{
.appVersion = "3133";
.formatVersion = 3;
DisplayStrings = (
"ABCDEFGHIJKLMNOPQRSTUVWXYZ
abcdefghijklmnopqrstuvwxyz"
);
classes = (
{
code = "A B C D E F G H I J K L M N O P Q R S T U V W X Y Z a b c d e f g h i j k l m n o p q r s t u v w x y z";
name = DEFAULT;
},
{
code = "A.alt1 B.alt1 C.alt1 D.alt1 E.alt1 F.alt1 G.alt1 H.alt1 I.alt1 J.alt1 K.alt1 L.alt1 M.alt1 N.alt1 O.alt1 P.alt1 Q.alt1 R.alt1 S.alt1 T.alt1 U.alt1 V.alt1 W.alt1 X.alt1 Y.alt1 Z.alt1 a.alt1 b.alt1 c.alt1 d.alt1 e.alt1 f.alt1 g.alt1 h.alt1 i.alt1 j.alt1 k.alt1 l.alt1 m.alt1 n.alt1 o.alt1 p.alt1 q.alt1 r.alt1 s.alt1 t.alt1 u.alt1 v.alt1 w.alt1 x.alt1 y.alt1 z.alt1";
name = ALT1;
},
{
code = "B C D F G H J K L M N P Q R S T V W X Y Z b c d f g h j k l m n p q r s t v w x y z";
name = Con0;
},
{
code = "B.alt1 C.alt1 D.alt1 F.alt1 G.alt1 H.alt1 J.alt1 K.alt1 L.alt1 M.alt1 N.alt1 P.alt1 Q.alt1 R.alt1 S.alt1 T.alt1 V.alt1 W.alt1 X.alt1 Y.alt1 Z.alt1 b.alt1 c.alt1 d.alt1 f.alt1 g.alt1 h.alt1 j.alt1 k.alt1 l.alt1 m.alt1 n.alt1 p.alt1 q.alt1 r.alt1 s.alt1 t.alt1 v.alt1 w.alt1 x.alt1 y.alt1 z.alt1";
name = Con1;
},
{
code = "A E I O U a e i o u";
name = Voc0;
},
{
code = "A.alt1 E.alt1 I.alt1 O.alt1 U.alt1 a.alt1 e.alt1 i.alt1 o.alt1 u.alt1";
name = Voc1;
},
{
code = "space comma
";
name = Etc;
},
{
code = "A.alt2 B.alt2 C.alt2 D.alt2 E.alt2 F.alt2 G.alt2 H.alt2 I.alt2 J.alt2 K.alt2 L.alt2 M.alt2 N.alt2 O.alt2 P.alt2 Q.alt2 R.alt2 S.alt2 T.alt2 U.alt2 V.alt2 W.alt2 X.alt2 Y.alt2 Z.alt2 a.alt2 b.alt2 c.alt2 d.alt2 e.alt2 f.alt2 g.alt2 h.alt2 i.alt2 j.alt2 k.alt2 l.alt2 m.alt2 n.alt2 o.alt2 p.alt2 q.alt2 r.alt2 s.alt2 t.alt2 u.alt2 v.alt2 w.alt2 x.alt2 y.alt2 z.alt2";
name = ALT2;
},
{
code = "B.alt2 C.alt2 D.alt2 F.alt2 G.alt2 H.alt2 J.alt2 K.alt2 L.alt2 M.alt2 N.alt2 P.alt2 Q.alt2 R.alt2 S.alt2 T.alt2 V.alt2 W.alt2 X.alt2 Y.alt2 Z.alt2 b.alt2 c.alt2 d.alt2 f.alt2 g.alt2 h.alt2 j.alt2 k.alt2 l.alt2 m.alt2 n.alt2 p.alt2 q.alt2 r.alt2 s.alt2 t.alt2 v.alt2 w.alt2 x.alt2 y.alt2 z.alt2";
name = Con2;
},
{

glyphs = (
{
glyphname = A;
kernLeft = A;
kernRight = A;
lastChange = "2022-09-29 08:35:11 +0000";
layers = (
{
anchors = (
{
name = bottom;
pos = (355,0);
},
{
name = ogonek;
pos = (639,10);
},
{
name = top;
pos = (355,702);
}
);
layerId = "D6A4831D-747C-4592-93C0-305F4CD57904";
shapes = (
{
closed = 1;
nodes = (
(641,-14,o),
(657,0,o),
(658,21,cs),
(659,37,o),
(660,50,o),
(660,59,cs),
(660,76,o),
(658,89,o),
(655,100,cs),
(631,177,o),
(618,263,o),
(617,359,cs),
(615,411,ls),
(611,465,o),
(607,507,o),
(603,536,cs),
(597,580,o),
(587,616,o),
(574,643,cs),
(555,680,o),
(519,702,o),
(479,702,cs),
(463,702,o),
(447,698,o),
(432,691,cs),
(361,657,o),
(304,601,o),
(261,523,cs),
(246,492,o),
(201,399,o),
(125,245,cs),
(56,105,ls),
(52,97,o),
(50,89,o),
(50,82,cs),
(50,71,o),
(55,60,o),
(65,49,cs),
(78,33,o),
(99,22,o),
(119,22,cs),
(140,22,o),
(156,33,o),
(169,56,cs),
(188,91,o),
(204,118,o),
(215,137,cs),
(228,158,o),
(246,172,o),
(269,178,cs),
(292,183,o),
(318,189,o),
(345,197,cs),
(393,211,ls),
(417,218,o),
(448,228,o),
(489,241,cs),
(495,243,o),
(500,244,o),
(505,244,cs),
(518,244,o),
(526,235,o),
(530,217,cs),
(540,173,o),
(548,138,o),
(555,113,cs),
(558,103,o),
(558,92,o),
(557,80,cs),
(556,73,o),
(556,67,o),
(557,63,c),
(556,60,o),
(556,56,o),
(556,51,cs),
(556,19,o),
(574,-4,o),
(607,-12,cs),
(618,-14,l)
);
},
{
closed = 1;
nodes = (
(297,322,ls),
(310,352,o),
(319,371,o),
(323,380,cs),
(348,435,o),
(378,486,o),
(413,533,cs),
(434,562,o),
(461,579,o),
(493,585,c),
(508,510,o),
(510,450,o),
(513,322,c),
(449,312,o),
(371,299,o),
(280,283,c)
);
}
);
userData = {
assembly = "NPUSHB[ ]	/* 18 values pushed */
71 64 61 2 4 1 3 18 16 2 2 1 8 1 0 2 3 76 
MPPEM[ ]	/* MeasurePixelPerEm */
PUSHB[ ]	/* 1 value pushed */
21 
LT[ ]	/* LessThan */
IF[ ]	/* If */
NPUSHB[ ]	/* 24 values pushed */
0 1 3 2 3 1 2 128 0 3 3 36 77 0 2 2 34 77 0 0 0 31 0 78 
ELSE[ ]	/* Else */
NPUSHB[ ]	/* 21 values pushed */
0 3 1 3 133 0 1 2 1 133 0 2 2 34 77 0 0 0 31 0 78 
EIF[ ]	/* EndIf */
PUSHB[ ]	/* 7 values pushed */
44 45 30 26 4 8 26 
CALL[ ]	/* CallFunction */";
};
width = 710;
}
);
note = A;
unicode = 65;
},
{
glyphname = Aacute;
kernLeft = A;
kernRight = A;
lastChange = "2022-09-29 08:18:29 +0000";
layers = (
{
layerId = "D6A4831D-747C-4592-93C0-305F4CD57904";
shapes = (
{
closed = 1;
nodes = (
(681,-5,ls),
(682,-1,o),
(682,3,o),
(682,7,cs),
(682,9,o),
(682,11,o),
(681,12,c),
(660,53,o),
(639,91,o),
(617,125,cs),
(612,132,o),
(606,142,o),
(598,154,cs),
(579,182,o),
(569,198,o),
(569,215,cs),
(569,252,o),
(556,278,o),
(531,303,cs),
(522,312,o),
(515,324,o),
(511,339,cs),
(501,378,ls),
(482,455,o),
(466,519,o),
(455,570,cs),
(440,637,o),
(410,669,o),
(341,682,c),
(296,670,o),
(266,659,o),
(250,648,cs),
(233,637,o),
(223,626,o),
(218,616,cs),
(197,576,ls),
(161,509,o),
(144,471,o),
(131,426,cs),
(103,331,o),
(87,245,o),
(60,100,cs),
(57,85,o),
(82,55,o),
(98,50,cs),
(100,49,o),
(103,49,o),
(107,49,cs),
(123,49,o),
(149,59,o),
(156,71,cs),
(167,91,o),
(180,120,o),
(193,159,c),
(198,190,o),
(212,202,o),
(236,202,cs),
(244,202,o),
(253,201,o),
(262,199,cs),
(290,193,o),
(322,189,o),
(357,188,cs),
(372,187,o),
(394,189,o),
(422,192,cs),
(454,196,o),
(470,188,o),
(489,164,cs),
(524,120,o),
(570,67,o),
(626,6,cs),
(631,0,o),
(641,-6,o),
(657,-11,c),
(664,-12,o),
(671,-15,o),
(678,-19,c)
);
},
{
closed = 1;
nodes = (
(227,298,l),
(250,383,o),
(268,441,o),
(279,470,cs),
(290,499,o),
(310,514,o),
(341,514,c),
(365,439,o),
(390,366,o),
(416,295,c)
);
},
{
closed = 1;
nodes = (
(305,725,o),
(364,735,o),
(397,757,cs),
(430,778,o),
(451,797,o),
(460,813,c),
(467,818,o),
(470,824,o),
(469,830,cs),
(468,836,o),
(459,848,o),
(442,865,cs),
(437,870,o),
(432,874,o),
(427,877,cs),
(411,886,o),
(392,883,o),
(371,867,cs),
(314,825,ls),
(293,810,o),
(271,796,o),
(248,784,cs),
(234,777,o),
(225,768,o),
(221,759,cs),
(217,748,o),
(217,737,o),
(222,726,c)
);
}
);
userData = {
assembly = "NPUSHB[ ]	/* 49 values pushed */
25 1 2 73 0 3 4 3 133 0 0 1 2 1 0 114 0 2 2 132 0 4 1 1 4 87 0 4 4 1 97 0 1 4 1 81 89 87 84 83 48 47 41 39 37 35 5 8 22 
CALL[ ]	/* CallFunction */";
};
width = 732;
}
);
note = Aacute;
unicode = 193;
},
{
glyphname = Abreve;
lastChange = "2022-09-29 08:18:29 +0000";
layers = (
{
layerId = "D6A4831D-747C-4592-93C0-305F4CD57904";
shapes = (
{
closed = 1;
nodes = (
(651,-62,o),
(667,-48,o),
(668,-27,cs),
(669,-11,o),
(670,2,o),
(670,11,cs),
(670,28,o),
(668,41,o),
(665,52,cs),
(640,128,o),
(627,214,o),
(627,311,cs),
(625,363,ls),
(623,418,o),
(619,459,o),
(613,488,cs),
(607,532,o),
(597,568,o),
(584,595,cs),
(565,632,o),
(529,654,o),
(489,654,cs),
(473,654,o),
(457,650,o),
(442,643,cs),
(370,612,o),
(313,556,o),
(271,475,cs),
(135,197,l),
(66,57,ls),
(62,49,o),
(60,41,o),
(60,34,cs),
(60,23,o),
(65,12,o),
(75,1,cs),
(88,-15,o),
(109,-26,o),
(129,-26,cs),
(150,-26,o),
(166,-15,o),
(179,8,cs),
(199,42,o),
(214,69,o),
(225,89,cs),
(236,111,o),
(254,125,o),
(279,130,cs),
(302,135,o),
(328,141,o),
(355,149,cs),
(403,163,ls),
(415,166,o),
(429,171,o),
(445,176,cs),
(460,181,o),
(478,187,o),
(499,193,cs),
(505,195,o),
(510,196,o),
(515,196,cs),
(528,196,o),
(536,187,o),
(540,169,cs),
(551,126,o),
(560,91,o),
(565,65,cs),
(566,55,o),
(567,44,o),
(567,32,cs),
(567,15,l),
(566,12,o),
(566,8,o),
(566,3,cs),
(566,-29,o),
(584,-52,o),
(617,-60,cs),
(628,-62,l)
);
},
{
closed = 1;
nodes = (
(307,274,ls),
(320,304,o),
(329,323,o),
(333,332,cs),
(362,385,o),
(392,436,o),
(423,485,cs),
(441,516,o),
(468,533,o),
(503,537,c),
(518,462,o),
(520,402,o),
(523,274,c),
(459,264,o),
(381,251,o),
(290,235,c)
);
},
{
closed = 1;
nodes = (
(466,701,o),
(478,707,o),
(483,721,cs),
(488,734,o),
(498,752,o),
(513,777,c),
(517,782,o),
(538,814,o),
(546,839,cs),
(547,844,o),
(547,847,o),
(547,849,cs),
(547,862,o),
(538,872,o),
(525,872,cs),
(523,872,o),
(520,872,o),
(516,871,cs),
(505,867,o),
(495,857,o),
(490,848,cs),
(486,839,o),
(478,828,o),
(466,814,cs),
(454,800,l),
(453,798,o),
(451,795,o),
(447,792,cs),
(442,788,o),
(439,785,o),
(437,783,c),
(423,798,ls),
(405,817,o),
(392,829,o),
(385,834,c),
(361,858,o),
(352,865,o),
(333,865,cs),
(322,865,o),
(303,862,o),
(299,855,c),
(298,852,o),
(298,848,o),
(301,842,cs),
(304,836,o),
(305,832,o),
(306,830,cs),
(307,827,o),
(309,824,o),
(312,821,cs),
(315,817,o),
(317,814,o),
(318,811,c),
(359,770,o),
(389,742,o),
(409,727,cs),
(428,711,o),
(441,703,o),
(446,702,c)
);
}
);
width = 720;
}
);
unicode = 258;
},
{
glyphname = Abreveacute;
lastChange = "2022-09-29 08:18:29 +0000";
layers = (
{
layerId = "D6A4831D-747C-4592-93C0-305F4CD57904";
shapes = (
{
closed = 1;
nodes = (
(626,-35,o),
(642,-21,o),
(643,0,cs),
(644,16,o),
(645,29,o),
(645,38,cs),
(645,55,o),
(643,68,o),
(640,79,cs),
(619,156,o),
(606,242,o),
(602,338,cs),
(600,390,ls),
(596,444,o),
(592,486,o),
(588,515,cs),
(582,559,o),
(572,595,o),
(559,622,cs),
(540,659,o),
(504,681,o),
(464,681,cs),
(448,681,o),
(432,677,o),
(417,670,cs),
(346,636,o),
(289,580,o),
(246,502,cs),
(231,471,o),
(186,378,o),
(110,224,cs),
(41,84,ls),
(37,76,o),
(35,68,o),
(35,61,cs),
(35,50,o),
(40,39,o),
(50,28,cs),
(63,12,o),
(84,1,o),
(104,1,cs),
(125,1,o),
(141,12,o),
(154,35,cs),
(173,70,o),
(189,97,o),
(200,116,cs),
(213,137,o),
(231,151,o),
(254,157,cs),
(277,162,o),
(303,168,o),
(330,176,cs),
(378,190,ls),
(402,197,o),
(433,207,o),
(474,220,cs),
(480,222,o),
(485,223,o),
(490,223,cs),
(503,223,o),
(511,214,o),
(515,196,cs),
(525,152,o),
(533,117,o),
(540,92,cs),
(543,82,o),
(543,71,o),
(542,59,cs),
(541,52,o),
(541,46,o),
(542,42,c),
(541,39,o),
(541,35,o),
(541,30,cs),
(541,-2,o),
(559,-25,o),
(592,-33,cs),
(603,-35,l)
);
},
{
closed = 1;
nodes = (
(282,301,ls),
(295,331,o),
(304,350,o),
(308,359,cs),
(333,414,o),
(363,465,o),
(398,512,cs),
(419,541,o),
(446,558,o),
(478,564,c),
(493,489,o),
(495,429,o),
(498,301,c),
(434,291,o),
(356,278,o),
(265,262,c)
);
},
{
closed = 1;
nodes = (
(522,717,o),
(550,729,o),
(579,764,cs),
(592,779,o),
(598,795,o),
(598,812,cs),
(598,840,o),
(589,854,o),
(558,854,cs),
(547,854,o),
(542,849,o),
(534,834,cs),
(523,811,o),
(508,796,o),
(469,780,cs),
(466,779,o),
(460,779,o),
(453,779,cs),
(434,779,o),
(419,785,o),
(407,797,cs),
(368,833,ls),
(349,849,o),
(327,805,o),
(340,798,c),
(391,747,l),
(416,730,o),
(448,709,o),
(493,713,cs)
);
},
{
closed = 1;
nodes = (
(389,852,o),
(404,852,o),
(422,859,cs),
(465,873,o),
(511,893,o),
(560,918,cs),
(571,923,o),
(580,931,o),
(586,944,cs),
(593,958,o),
(595,972,o),
(592,986,cs),
(590,996,o),
(583,1005,o),
(576,1007,cs),
(570,1010,o),
(563,1011,o),
(558,1008,c),
(540,1003,o),
(527,996,o),
(518,988,c),
(488,954,o),
(448,926,o),
(399,905,cs),
(373,895,o),
(376,896,o),
(362,869,c),
(366,864,o),
(371,860,o),
(376,857,c)
);
}
);
width = 720;
}
);
unicode = 7854;
},
{
glyphname = Abrevedotbelow;
lastChange = "2022-09-29 08:18:29 +0000";
layers = (
{
layerId = "D6A4831D-747C-4592-93C0-305F4CD57904";
shapes = (
{
closed = 1;
nodes = (
(626,-33,o),
(642,-19,o),
(643,2,cs),
(644,18,o),
(645,31,o),
(645,40,cs),
(645,57,o),
(643,70,o),
(640,81,cs),
(616,158,o),
(603,244,o),
(602,340,cs),
(600,392,ls),
(596,446,o),
(592,488,o),
(588,517,cs),
(582,561,o),
(572,597,o),
(559,624,cs),
(540,661,o),
(504,683,o),
(464,683,cs),
(448,683,o),
(432,679,o),
(417,672,cs),
(346,638,o),
(289,582,o),
(246,504,cs),
(231,473,o),
(186,380,o),
(110,226,cs),
(41,86,ls),
(37,78,o),
(35,70,o),
(35,63,cs),
(35,52,o),
(40,41,o),
(50,30,cs),
(63,14,o),
(84,3,o),
(104,3,cs),
(125,3,o),
(141,14,o),
(154,37,cs),
(173,72,o),
(189,99,o),
(200,118,cs),
(213,139,o),
(231,153,o),
(254,159,cs),
(277,164,o),
(303,170,o),
(330,178,cs),
(378,192,ls),
(402,199,o),
(433,209,o),
(474,222,cs),
(480,224,o),
(485,225,o),
(490,225,cs),
(503,225,o),
(511,216,o),
(515,198,cs),
(525,154,o),
(533,119,o),
(540,94,cs),
(543,84,o),
(543,73,o),
(542,61,cs),
(541,54,o),
(541,48,o),
(542,44,c),
(541,41,o),
(541,37,o),
(541,32,cs),
(541,0,o),
(559,-23,o),
(592,-31,cs),
(603,-33,l)
);
},
{
closed = 1;
nodes = (
(350,-168,o),
(363,-160,o),
(376,-151,cs),
(389,-142,o),
(398,-135,o),
(403,-132,cs),
(418,-123,o),
(425,-111,o),
(424,-97,cs),
(423,-83,o),
(417,-71,o),
(404,-62,cs),
(391,-53,o),
(379,-48,o),
(367,-47,cs),
(356,-46,o),
(344,-50,o),
(333,-57,cs),
(250,-113,o),
(313,-185,o),
(338,-173,cs)
);
},
{
closed = 1;
nodes = (
(282,303,ls),
(295,333,o),
(304,352,o),
(308,361,cs),
(333,416,o),
(363,467,o),
(398,514,cs),
(419,543,o),
(446,560,o),
(478,566,c),
(493,491,o),
(495,431,o),
(498,303,c),
(434,293,o),
(356,280,o),
(265,264,c)
);
},
{
closed = 1;
nodes = (
(523,726,o),
(549,739,o),
(579,774,cs),
(591,788,o),
(598,805,o),
(598,822,cs),
(598,850,o),
(589,864,o),
(558,864,cs),
(547,864,o),
(542,859,o),
(534,844,cs),
(523,822,o),
(507,805,o),
(469,790,cs),
(465,789,o),
(460,789,o),
(453,789,cs),
(434,789,o),
(418,795,o),
(406,807,cs),
(394,819,o),
(381,831,o),
(368,843,cs),
(349,859,o),
(327,814,o),
(340,808,c),
(391,757,l),
(417,740,o),
(448,718,o),
(493,723,cs)
);
}
);
width = 720;
}
);
unicode = 7862;
},
{
glyphname = Abrevegrave;
lastChange = "2022-09-29 08:18:29 +0000";
layers = (
{
layerId = "D6A4831D-747C-4592-93C0-305F4CD57904";
shapes = (
{
closed = 1;
nodes = (
(626,-31,o),
(642,-17,o),
(643,4,cs),
(644,20,o),
(645,33,o),
(645,42,cs),
(645,59,o),
(643,72,o),
(640,83,cs),
(616,160,o),
(603,246,o),
(602,342,cs),
(600,394,ls),
(596,448,o),
(592,490,o),
(588,519,cs),
(582,563,o),
(572,599,o),
(559,626,cs),
(540,663,o),
(504,685,o),
(464,685,cs),
(448,685,o),
(432,681,o),
(417,674,cs),
(346,640,o),
(289,584,o),
(246,506,cs),
(231,475,o),
(186,382,o),
(110,228,cs),
(41,88,ls),
(37,80,o),
(35,72,o),
(35,65,cs),
(35,54,o),
(40,43,o),
(50,32,cs),
(63,16,o),
(84,5,o),
(104,5,cs),
(125,5,o),
(141,16,o),
(154,39,cs),
(173,74,o),
(189,101,o),
(200,120,cs),
(213,141,o),
(231,155,o),
(254,161,cs),
(277,166,o),
(303,172,o),
(330,180,cs),
(378,194,ls),
(402,201,o),
(433,211,o),
(474,224,cs),
(480,226,o),
(485,227,o),
(490,227,cs),
(503,227,o),
(511,218,o),
(515,200,cs),
(525,156,o),
(533,121,o),
(540,96,cs),
(543,86,o),
(543,75,o),
(542,63,cs),
(541,56,o),
(541,50,o),
(542,46,c),
(541,43,o),
(541,39,o),
(541,34,cs),
(541,2,o),
(559,-21,o),
(592,-29,cs),
(603,-31,l)
);
},
{
closed = 1;
nodes = (
(282,322,ls),
(295,352,o),
(304,371,o),
(308,380,cs),
(333,435,o),
(363,486,o),
(398,533,cs),
(419,562,o),
(446,579,o),
(478,585,c),
(493,510,o),
(495,450,o),
(498,322,c),
(434,312,o),
(356,299,o),
(265,283,c)
);
},
{
closed = 1;
nodes = (
(496,721,o),
(524,734,o),
(554,769,cs),
(567,784,o),
(573,801,o),
(573,819,cs),
(573,847,o),
(564,861,o),
(533,861,cs),
(522,861,o),
(516,857,o),
(508,842,cs),
(496,819,o),
(480,802,o),
(441,786,cs),
(438,785,o),
(432,785,o),
(425,785,cs),
(405,785,o),
(390,791,o),
(377,804,cs),
(365,816,o),
(352,828,o),
(338,840,cs),
(319,856,o),
(296,811,o),
(309,805,c),
(361,752,l),
(388,735,o),
(420,713,o),
(466,718,cs)
);
},
{
closed = 1;
nodes = (
(450,818,o),
(458,820,o),
(465,824,cs),
(468,826,o),
(468,826,o),
(465,822,cs),
(462,819,o),
(462,819,o),
(465,823,c),
(471,835,l),
(465,851,ls),
(461,864,o),
(458,870,o),
(453,875,cs),
(426,901,o),
(389,933,o),
(342,972,c),
(335,979,o),
(317,986,o),
(312,983,cs),
(300,974,o),
(307,984,o),
(305,972,c),
(305,960,o),
(310,942,o),
(320,930,cs),
(333,915,o),
(357,889,o),
(394,851,cs),
(413,831,ls),
(421,822,o),
(431,818,o),
(442,818,cs)
);
}
);
width = 720;
}
);
unicode = 7856;
},
{
glyphname = Abrevehookabove;
lastChange = "2022-09-29 08:18:29 +0000";
layers = (
{
layerId = "D6A4831D-747C-4592-93C0-305F4CD57904";
shapes = (
{
closed = 1;
nodes = (
(626,-30,o),
(642,-16,o),
(643,5,cs),
(644,21,o),
(645,34,o),
(645,43,cs),
(645,60,o),
(643,73,o),
(640,84,cs),
(619,161,o),
(606,247,o),
(602,343,cs),
(600,395,ls),
(596,449,o),
(592,491,o),
(588,520,cs),
(582,564,o),
(572,600,o),
(559,627,cs),
(540,664,o),
(504,686,o),
(464,686,cs),
(448,686,o),
(432,682,o),
(417,675,cs),
(346,641,o),
(289,585,o),
(246,507,cs),
(231,476,o),
(186,383,o),
(110,229,cs),
(41,89,ls),
(37,81,o),
(35,73,o),
(35,66,cs),
(35,55,o),
(40,44,o),
(50,33,cs),
(63,17,o),
(84,6,o),
(104,6,cs),
(125,6,o),
(141,17,o),
(154,40,cs),
(173,75,o),
(189,102,o),
(200,121,cs),
(213,142,o),
(231,156,o),
(254,162,cs),
(277,167,o),
(303,173,o),
(330,181,cs),
(378,195,ls),
(402,202,o),
(433,212,o),
(474,225,cs),
(480,227,o),
(485,228,o),
(490,228,cs),
(503,228,o),
(511,219,o),
(515,201,cs),
(525,157,o),
(533,122,o),
(540,97,cs),
(543,87,o),
(543,76,o),
(542,64,cs),
(541,57,o),
(541,51,o),
(542,47,c),
(541,44,o),
(541,40,o),
(541,35,cs),
(541,3,o),
(559,-20,o),
(592,-28,cs),
(603,-30,l)
);
},
{
closed = 1;
nodes = (
(282,322,ls),
(295,352,o),
(304,371,o),
(308,380,cs),
(333,435,o),
(363,486,o),
(398,533,cs),
(419,562,o),
(446,579,o),
(478,585,c),
(493,510,o),
(495,450,o),
(498,322,c),
(434,312,o),
(356,299,o),
(265,283,c)
);
},
{
closed = 1;
nodes = (
(544,714,o),
(573,727,o),
(605,765,cs),
(618,781,o),
(625,798,o),
(625,818,cs),
(625,847,o),
(615,862,o),
(582,862,cs),
(571,862,o),
(565,857,o),
(557,841,cs),
(544,817,o),
(527,799,o),
(486,782,c),
(468,782,ls),
(448,782,o),
(431,788,o),
(418,801,cs),
(405,814,o),
(391,827,o),
(376,840,cs),
(356,857,o),
(332,809,o),
(346,802,c),
(401,746,l),
(430,728,o),
(463,705,o),
(512,710,cs)
);
},
{
closed = 1;
nodes = (
(505,821,o),
(532,852,o),
(536,880,c),
(539,889,o),
(539,904,o),
(534,924,c),
(524,942,o),
(517,952,o),
(514,955,cs),
(510,958,o),
(505,960,o),
(499,963,cs),
(471,974,o),
(439,972,o),
(426,965,cs),
(407,952,o),
(420,920,o),
(421,920,cs),
(460,923,l),
(473,926,o),
(488,919,o),
(495,908,c),
(502,900,o),
(502,892,o),
(497,884,c),
(462,869,o),
(445,855,o),
(445,843,cs),
(445,836,o),
(451,826,o),
(464,813,c)
);
}
);
width = 720;
}
);
unicode = 7858;
},
{
glyphname = Abrevetilde;
lastChange = "2022-09-29 08:18:29 +0000";
layers = (
{
layerId = "D6A4831D-747C-4592-93C0-305F4CD57904";
shapes = (
{
closed = 1;
nodes = (
(626,-14,o),
(642,0,o),
(643,21,cs),
(644,37,o),
(645,50,o),
(645,59,cs),
(645,76,o),
(643,89,o),
(640,100,cs),
(616,177,o),
(603,263,o),
(602,359,cs),
(600,411,ls),
(596,465,o),
(592,507,o),
(588,536,cs),
(582,580,o),
(572,616,o),
(559,643,cs),
(540,680,o),
(504,702,o),
(464,702,cs),
(448,702,o),
(432,698,o),
(417,691,cs),
(346,657,o),
(289,601,o),
(246,523,cs),
(231,492,o),
(186,399,o),
(110,245,cs),
(41,105,ls),
(37,97,o),
(35,89,o),
(35,82,cs),
(35,71,o),
(40,60,o),
(50,49,cs),
(63,33,o),
(84,22,o),
(104,22,cs),
(125,22,o),
(141,33,o),
(154,56,cs),
(173,91,o),
(189,118,o),
(200,137,cs),
(213,158,o),
(231,172,o),
(254,178,cs),
(277,183,o),
(303,189,o),
(330,197,cs),
(378,211,ls),
(402,218,o),
(433,228,o),
(474,241,cs),
(480,243,o),
(485,244,o),
(490,244,cs),
(503,244,o),
(511,235,o),
(515,217,cs),
(525,173,o),
(533,138,o),
(540,113,cs),
(543,103,o),
(543,92,o),
(542,80,cs),
(541,73,o),
(541,67,o),
(542,63,c),
(541,60,o),
(541,56,o),
(541,51,cs),
(541,19,o),
(559,-4,o),
(592,-12,cs),
(603,-14,l)
);
},
{
closed = 1;
nodes = (
(282,322,ls),
(295,352,o),
(304,371,o),
(308,380,cs),
(333,435,o),
(363,486,o),
(398,533,cs),
(419,562,o),
(446,579,o),
(478,585,c),
(493,510,o),
(495,450,o),
(498,322,c),
(434,312,o),
(356,299,o),
(265,283,c)
);
},
{
closed = 1;
nodes = (
(557,734,o),
(586,748,o),
(618,786,cs),
(632,802,o),
(639,820,o),
(639,839,cs),
(639,869,o),
(629,884,o),
(595,884,cs),
(583,884,o),
(578,879,o),
(569,863,cs),
(557,838,o),
(540,821,o),
(498,804,c),
(494,803,o),
(488,803,o),
(480,803,cs),
(460,803,o),
(443,809,o),
(430,822,cs),
(416,836,o),
(402,849,o),
(387,862,cs),
(367,879,o),
(343,830,o),
(357,824,c),
(412,767,l),
(441,749,o),
(475,726,o),
(524,731,cs)
);
},
{
closed = 1;
nodes = (
(596,895,o),
(622,908,o),
(648,939,cs),
(660,953,o),
(666,968,o),
(666,984,cs),
(666,1009,o),
(658,1021,o),
(629,1021,cs),
(620,1021,o),
(615,1018,o),
(608,1004,cs),
(597,983,o),
(582,968,o),
(548,954,c),
(545,954,o),
(539,953,o),
(532,953,cs),
(499,953,o),
(481,964,o),
(454,986,cs),
(437,1000,o),
(426,1008,o),
(410,1014,c),
(398,1016,o),
(389,1017,o),
(383,1017,cs),
(371,1017,o),
(363,1013,o),
(351,1004,cs),
(322,982,o),
(315,974,o),
(316,957,cs),
(317,929,o),
(358,924,o),
(359,924,c),
(363,921,o),
(367,920,o),
(372,920,cs),
(379,920,o),
(384,925,o),
(387,936,cs),
(390,952,o),
(398,962,o),
(413,962,cs),
(418,962,o),
(423,961,o),
(429,958,cs),
(440,953,o),
(455,944,o),
(476,931,cs),
(495,918,ls),
(524,899,o),
(549,891,o),
(570,893,cs)
);
}
);
width = 720;
}
);
unicode = 7860;
},
{
glyphname = Acaron;
lastChange = "2022-09-29 08:18:29 +0000";
layers = (
{
layerId = "D6A4831D-747C-4592-93C0-305F4CD57904";
shapes = (
{
closed = 1;
nodes = (
(626,-31,o),
(642,-17,o),
(643,4,cs),
(644,20,o),
(645,33,o),
(645,42,cs),
(645,59,o),
(643,72,o),
(640,83,cs),
(616,160,o),
(603,246,o),
(602,342,cs),
(600,394,ls),
(596,448,o),
(592,490,o),
(588,519,cs),
(582,563,o),
(572,599,o),
(559,626,cs),
(540,663,o),
(504,685,o),
(464,685,cs),
(448,685,o),
(432,681,o),
(417,674,cs),
(346,640,o),
(289,584,o),
(246,506,cs),
(231,475,o),
(186,382,o),
(110,228,cs),
(41,88,ls),
(37,80,o),
(35,72,o),
(35,65,cs),
(35,54,o),
(40,43,o),
(50,32,cs),
(63,16,o),
(84,5,o),
(104,5,cs),
(125,5,o),
(141,16,o),
(154,39,cs),
(173,74,o),
(189,101,o),
(200,120,cs),
(213,141,o),
(231,155,o),
(254,161,cs),
(277,166,o),
(303,172,o),
(330,180,cs),
(378,194,ls),
(402,201,o),
(433,211,o),
(474,224,cs),
(480,226,o),
(485,227,o),
(490,227,cs),
(503,227,o),
(511,218,o),
(515,200,cs),
(525,156,o),
(533,121,o),
(540,96,cs),
(543,86,o),
(543,75,o),
(542,63,cs),
(541,56,o),
(541,50,o),
(542,46,c),
(541,43,o),
(541,39,o),
(541,34,cs),
(541,2,o),
(559,-21,o),
(592,-29,cs),
(603,-31,l)
);
},
{
closed = 1;
nodes = (
(282,305,ls),
(295,335,o),
(304,354,o),
(308,363,cs),
(333,418,o),
(363,469,o),
(398,516,cs),
(419,545,o),
(446,562,o),
(478,568,c),
(493,493,o),
(495,433,o),
(498,305,c),
(434,295,o),
(356,282,o),
(265,266,c)
);
},
{
closed = 1;
nodes = (
(434,723,o),
(453,730,o),
(470,745,cs),
(512,780,o),
(558,820,o),
(609,865,cs),
(617,872,o),
(621,881,o),
(621,890,cs),
(621,901,o),
(616,910,o),
(605,916,cs),
(592,923,o),
(579,927,o),
(564,927,c),
(539,900,o),
(517,878,o),
(499,860,cs),
(486,846,o),
(463,824,o),
(431,793,c),
(419,805,o),
(411,813,o),
(408,817,c),
(388,876,l),
(375,887,o),
(362,893,o),
(348,893,cs),
(324,893,o),
(308,881,o),
(308,864,cs),
(308,862,o),
(309,858,o),
(310,853,c),
(318,832,o),
(329,806,o),
(344,775,cs),
(361,742,o),
(387,723,o),
(415,723,cs)
);
}
);
width = 720;
}
);
unicode = 461;
},
{
glyphname = Acircumflex;
kernLeft = A;
kernRight = A;
lastChange = "2022-09-29 08:18:29 +0000";
layers = (
{
layerId = "D6A4831D-747C-4592-93C0-305F4CD57904";
shapes = (
{
closed = 1;
nodes = (
(578,-19,o),
(591,-13,o),
(599,-2,c),
(608,7,o),
(612,20,o),
(612,36,cs),
(612,41,o),
(612,46,o),
(611,49,c),
(584,211,ls),
(577,246,o),
(573,272,o),
(570,289,cs),
(545,441,l),
(514,622,ls),
(507,665,o),
(494,691,o),
(459,702,cs),
(447,705,o),
(437,707,o),
(428,707,cs),
(399,707,o),
(375,692,o),
(356,661,c),
(353,654,o),
(349,649,o),
(346,644,cs),
(343,639,o),
(340,635,o),
(338,631,cs),
(327,614,ls),
(308,585,o),
(295,565,o),
(288,552,cs),
(222,421,ls),
(192,360,o),
(166,309,o),
(144,269,cs),
(133,250,o),
(115,231,o),
(89,213,cs),
(84,209,ls),
(75,203,o),
(69,198,o),
(66,195,cs),
(62,192,o),
(60,188,o),
(60,184,cs),
(60,178,o),
(63,171,o),
(70,163,c),
(71,160,o),
(72,157,o),
(72,152,cs),
(72,149,o),
(72,145,o),
(71,139,cs),
(70,132,o),
(69,128,o),
(69,125,cs),
(70,115,ls),
(71,102,o),
(71,88,o),
(78,81,cs),
(90,67,o),
(106,60,o),
(125,60,cs),
(130,60,o),
(134,60,o),
(136,61,c),
(160,64,o),
(179,79,o),
(190,100,cs),
(195,110,o),
(201,128,o),
(209,154,c),
(238,222,o),
(255,219,o),
(306,219,cs),
(313,219,o),
(328,218,o),
(351,217,cs),
(357,217,o),
(369,218,o),
(388,220,cs),
(415,223,o),
(434,224,o),
(446,224,cs),
(453,224,o),
(457,223,o),
(460,222,c),
(472,213,o),
(479,198,o),
(482,175,cs),
(490,126,o),
(496,92,o),
(500,74,cs),
(507,35,ls),
(514,-2,o),
(531,-19,o),
(559,-19,cs)
);
},
{
closed = 1;
nodes = (
(415,558,l),
(460,287,l),
(266,281,l)
);
},
{
closed = 1;
nodes = (
(356,739,ls),
(373,740,o),
(388,747,o),
(400,759,cs),
(447,805,l),
(462,789,ls),
(470,779,o),
(475,773,o),
(477,772,c),
(486,763,o),
(498,760,o),
(511,762,cs),
(523,765,o),
(530,772,o),
(530,781,cs),
(530,784,o),
(530,787,o),
(529,789,cs),
(524,804,o),
(516,821,o),
(505,842,cs),
(494,866,o),
(478,878,o),
(458,878,cs),
(446,878,o),
(433,873,o),
(420,862,cs),
(364,814,l),
(326,781,ls),
(320,775,o),
(317,769,o),
(317,763,cs),
(317,755,o),
(321,749,o),
(329,746,c),
(336,741,o),
(344,739,o),
(353,739,cs)
);
}
);
userData = {
assembly = "MPPEM[ ]	/* MeasurePixelPerEm */
PUSHB[ ]	/* 1 value pushed */
39 
LT[ ]	/* LessThan */
IF[ ]	/* If */
NPUSHB[ ]	/* 20 values pushed */
21 13 2 1 0 104 1 7 6 74 66 2 5 3 29 1 2 5 4 76 
ELSE[ ]	/* Else */
NPUSHB[ ]	/* 20 values pushed */
21 13 2 1 0 104 1 7 6 74 66 2 5 4 29 1 2 5 4 76 
EIF[ ]	/* EndIf */
MPPEM[ ]	/* MeasurePixelPerEm */
PUSHB[ ]	/* 1 value pushed */
39 
LT[ ]	/* LessThan */
IF[ ]	/* If */
NPUSHB[ ]	/* 38 values pushed */
0 0 1 0 133 0 1 6 1 133 0 6 7 6 133 0 5 3 2 3 5 2 128 0 7 4 1 3 5 7 3 105 0 2 2 31 2 78 
ELSE[ ]	/* Else */
NPUSHB[ ]	/* 44 values pushed */
0 0 1 0 133 0 1 6 1 133 0 6 7 6 133 0 3 7 4 4 3 114 0 5 4 2 4 5 2 128 0 7 0 4 5 7 4 105 0 2 2 31 2 78 
EIF[ ]	/* EndIf */
NPUSHB[ ]	/* 18 values pushed */
103 102 92 90 61 60 50 46 44 43 34 32 26 24 38 8 8 23 
CALL[ ]	/* CallFunction */";
};
width = 662;
}
);
note = Acircumflex;
unicode = 194;
},
{
glyphname = Acircumflexacute;
lastChange = "2022-09-29 08:18:29 +0000";
layers = (
{
layerId = "D6A4831D-747C-4592-93C0-305F4CD57904";
shapes = (
{
closed = 1;
nodes = (
(626,-38,o),
(642,-24,o),
(643,-3,cs),
(644,13,o),
(645,26,o),
(645,35,cs),
(645,52,o),
(643,65,o),
(640,76,cs),
(619,153,o),
(606,239,o),
(602,335,cs),
(600,387,ls),
(596,441,o),
(592,483,o),
(588,512,cs),
(582,556,o),
(572,592,o),
(559,619,cs),
(540,656,o),
(504,678,o),
(464,678,cs),
(448,678,o),
(432,674,o),
(417,667,cs),
(346,633,o),
(289,577,o),
(246,499,cs),
(231,468,o),
(186,375,o),
(110,221,cs),
(41,81,ls),
(37,73,o),
(35,65,o),
(35,58,cs),
(35,47,o),
(40,36,o),
(50,25,cs),
(63,9,o),
(84,-2,o),
(104,-2,cs),
(125,-2,o),
(141,9,o),
(154,32,cs),
(173,67,o),
(189,94,o),
(200,113,cs),
(213,134,o),
(231,148,o),
(254,154,cs),
(277,159,o),
(303,165,o),
(330,173,cs),
(378,187,ls),
(402,194,o),
(433,204,o),
(474,217,cs),
(480,219,o),
(485,220,o),
(490,220,cs),
(503,220,o),
(511,211,o),
(515,193,cs),
(525,149,o),
(533,114,o),
(540,89,cs),
(543,79,o),
(543,68,o),
(542,56,cs),
(541,49,o),
(541,43,o),
(542,39,c),
(541,36,o),
(541,32,o),
(541,27,cs),
(541,-5,o),
(559,-28,o),
(592,-36,cs),
(603,-38,l)
);
},
{
closed = 1;
nodes = (
(282,298,ls),
(295,328,o),
(304,347,o),
(308,356,cs),
(333,411,o),
(363,462,o),
(398,509,cs),
(419,538,o),
(446,555,o),
(478,561,c),
(493,486,o),
(495,426,o),
(498,298,c),
(434,288,o),
(356,275,o),
(265,259,c)
);
},
{
closed = 1;
nodes = (
(593,660,o),
(602,670,o),
(607,691,c),
(607,694,o),
(605,698,o),
(602,701,cs),
(598,704,o),
(595,707,o),
(594,709,c),
(576,730,o),
(556,756,o),
(534,785,cs),
(527,794,o),
(518,808,o),
(506,825,cs),
(491,847,o),
(481,860,o),
(477,864,cs),
(470,872,o),
(462,876,o),
(452,876,cs),
(441,876,o),
(432,872,o),
(425,864,cs),
(404,840,ls),
(393,829,o),
(384,817,o),
(377,806,cs),
(354,775,o),
(334,747,o),
(319,723,cs),
(316,719,o),
(315,715,o),
(315,710,cs),
(315,697,o),
(317,674,o),
(336,674,c),
(345,680,o),
(354,688,o),
(363,697,cs),
(424,758,o),
(455,787,o),
(456,786,cs),
(457,784,o),
(460,779,o),
(465,772,cs),
(487,743,o),
(518,709,o),
(559,669,c),
(563,664,o),
(572,660,o),
(580,660,cs)
);
},
{
closed = 1;
nodes = (
(342,860,o),
(356,862,o),
(371,869,cs),
(409,886,o),
(449,907,o),
(492,933,cs),
(501,938,o),
(508,947,o),
(513,959,cs),
(518,972,o),
(518,985,o),
(515,998,cs),
(512,1006,o),
(506,1014,o),
(499,1015,c),
(493,1018,o),
(487,1018,o),
(482,1015,c),
(467,1009,o),
(455,1002,o),
(448,993,cs),
(423,960,o),
(389,932,o),
(346,909,cs),
(325,898,o),
(326,900,o),
(317,873,c),
(320,869,o),
(325,866,o),
(330,864,cs)
);
}
);
width = 720;
}
);
unicode = 7844;
},
{
glyphname = Acircumflexdotbelow;
lastChange = "2022-09-29 08:18:29 +0000";
layers = (
{
layerId = "D6A4831D-747C-4592-93C0-305F4CD57904";
shapes = (
{
closed = 1;
nodes = (
(626,-34,o),
(642,-20,o),
(643,1,cs),
(644,17,o),
(645,30,o),
(645,39,cs),
(645,56,o),
(643,69,o),
(640,80,cs),
(619,157,o),
(606,243,o),
(602,339,cs),
(600,391,ls),
(596,445,o),
(592,487,o),
(588,516,cs),
(582,560,o),
(572,596,o),
(559,623,cs),
(540,660,o),
(504,682,o),
(464,682,cs),
(448,682,o),
(432,678,o),
(417,671,cs),
(346,637,o),
(289,581,o),
(246,503,cs),
(231,472,o),
(186,379,o),
(110,225,cs),
(41,85,ls),
(37,77,o),
(35,69,o),
(35,62,cs),
(35,51,o),
(40,40,o),
(50,29,cs),
(63,13,o),
(84,2,o),
(104,2,cs),
(125,2,o),
(141,13,o),
(154,36,cs),
(173,71,o),
(189,98,o),
(200,117,cs),
(213,138,o),
(231,152,o),
(254,158,cs),
(277,163,o),
(303,169,o),
(330,177,cs),
(378,191,ls),
(402,198,o),
(433,208,o),
(474,221,cs),
(480,223,o),
(485,224,o),
(490,224,cs),
(503,224,o),
(511,215,o),
(515,197,cs),
(525,153,o),
(533,118,o),
(540,93,cs),
(543,83,o),
(543,72,o),
(542,60,cs),
(541,53,o),
(541,47,o),
(542,43,c),
(541,40,o),
(541,36,o),
(541,31,cs),
(541,-1,o),
(559,-24,o),
(592,-32,cs),
(603,-34,l)
);
},
{
closed = 1;
nodes = (
(350,-168,o),
(363,-160,o),
(376,-151,cs),
(389,-142,o),
(398,-135,o),
(403,-132,cs),
(418,-123,o),
(425,-111,o),
(424,-97,cs),
(423,-83,o),
(417,-71,o),
(404,-62,cs),
(391,-53,o),
(379,-48,o),
(367,-47,cs),
(356,-46,o),
(344,-50,o),
(333,-57,cs),
(250,-113,o),
(313,-185,o),
(338,-173,cs)
);
},
{
closed = 1;
nodes = (
(282,302,ls),
(295,332,o),
(304,351,o),
(308,360,cs),
(333,415,o),
(363,466,o),
(398,513,cs),
(419,542,o),
(446,559,o),
(478,565,c),
(493,490,o),
(495,430,o),
(498,302,c),
(434,292,o),
(356,279,o),
(265,263,c)
);
},
{
closed = 1;
nodes = (
(611,659,o),
(621,670,o),
(626,691,c),
(626,694,o),
(624,698,o),
(621,702,c),
(617,705,o),
(614,708,o),
(613,710,c),
(594,732,o),
(573,758,o),
(550,789,cs),
(543,798,o),
(534,812,o),
(521,830,cs),
(505,853,o),
(495,866,o),
(491,871,cs),
(484,879,o),
(476,883,o),
(465,883,cs),
(454,883,o),
(444,879,o),
(437,871,cs),
(433,865,o),
(426,857,o),
(415,846,cs),
(404,834,o),
(395,822,o),
(387,811,cs),
(363,778,o),
(343,749,o),
(327,724,cs),
(324,720,o),
(323,716,o),
(323,711,cs),
(323,698,o),
(325,674,o),
(345,674,c),
(354,680,o),
(364,688,o),
(373,697,cs),
(436,760,o),
(468,791,o),
(469,790,cs),
(470,788,o),
(473,783,o),
(479,775,cs),
(502,746,o),
(534,710,o),
(576,668,c),
(580,663,o),
(590,659,o),
(598,659,cs)
);
}
);
width = 720;
}
);
unicode = 7852;
},
{
glyphname = Acircumflexgrave;
lastChange = "2022-09-29 08:18:29 +0000";
layers = (
{
layerId = "D6A4831D-747C-4592-93C0-305F4CD57904";
shapes = (
{
closed = 1;
nodes = (
(626,-32,o),
(642,-18,o),
(643,3,cs),
(644,19,o),
(645,32,o),
(645,41,cs),
(645,58,o),
(643,71,o),
(640,82,cs),
(619,159,o),
(606,245,o),
(602,341,cs),
(600,393,ls),
(596,447,o),
(592,489,o),
(588,518,cs),
(582,562,o),
(572,598,o),
(559,625,cs),
(540,662,o),
(504,684,o),
(464,684,cs),
(448,684,o),
(432,680,o),
(417,673,cs),
(346,639,o),
(289,583,o),
(246,505,cs),
(231,474,o),
(186,381,o),
(110,227,cs),
(41,87,ls),
(37,79,o),
(35,71,o),
(35,64,cs),
(35,53,o),
(40,42,o),
(50,31,cs),
(63,15,o),
(84,4,o),
(104,4,cs),
(125,4,o),
(141,15,o),
(154,38,cs),
(173,73,o),
(189,100,o),
(200,119,cs),
(213,140,o),
(231,154,o),
(254,160,cs),
(277,165,o),
(303,171,o),
(330,179,cs),
(378,193,ls),
(402,200,o),
(433,210,o),
(474,223,cs),
(480,225,o),
(485,226,o),
(490,226,cs),
(503,226,o),
(511,217,o),
(515,199,cs),
(525,155,o),
(533,120,o),
(540,95,cs),
(543,85,o),
(543,74,o),
(542,62,cs),
(541,55,o),
(541,49,o),
(542,45,c),
(541,42,o),
(541,38,o),
(541,33,cs),
(541,1,o),
(559,-22,o),
(592,-30,cs),
(603,-32,l)
);
},
{
closed = 1;
nodes = (
(282,304,ls),
(295,334,o),
(304,353,o),
(308,362,cs),
(333,417,o),
(363,468,o),
(398,515,cs),
(419,544,o),
(446,561,o),
(478,567,c),
(493,492,o),
(495,432,o),
(498,304,c),
(434,294,o),
(356,281,o),
(265,265,c)
);
},
{
closed = 1;
nodes = (
(626,781,o),
(634,783,o),
(642,788,cs),
(645,790,o),
(645,789,o),
(642,785,cs),
(639,781,o),
(639,781,o),
(642,786,cs),
(650,800,l),
(643,817,ls),
(638,830,o),
(635,838,o),
(628,845,c),
(609,860,o),
(574,890,o),
(521,934,c),
(513,942,o),
(492,949,o),
(487,945,cs),
(474,936,o),
(480,946,o),
(479,933,cs),
(479,920,o),
(485,899,o),
(496,886,cs),
(511,870,o),
(534,847,o),
(563,817,cs),
(584,795,ls),
(594,785,o),
(605,780,o),
(617,780,cs)
);
},
{
closed = 1;
nodes = (
(578,671,o),
(588,682,o),
(593,703,c),
(593,706,o),
(591,710,o),
(588,714,c),
(584,717,o),
(581,720,o),
(580,722,c),
(561,744,o),
(549,759,o),
(543,766,cs),
(536,775,o),
(527,789,o),
(514,807,cs),
(498,830,o),
(488,843,o),
(484,848,cs),
(477,856,o),
(469,860,o),
(458,860,cs),
(447,860,o),
(437,856,o),
(430,848,cs),
(426,842,o),
(419,834,o),
(408,823,cs),
(397,811,o),
(388,799,o),
(380,788,cs),
(365,769,o),
(350,747,o),
(334,722,cs),
(331,718,o),
(330,714,o),
(330,709,cs),
(330,696,o),
(332,672,o),
(352,672,c),
(361,678,o),
(371,686,o),
(380,695,cs),
(419,734,o),
(442,755,o),
(451,759,cs),
(459,762,o),
(466,760,o),
(472,752,cs),
(477,746,o),
(501,722,o),
(543,680,c),
(547,675,o),
(557,671,o),
(565,671,cs)
);
}
);
width = 720;
}
);
unicode = 7846;
},
{
glyphname = Acircumflexhookabove;
lastChange = "2022-09-29 08:18:29 +0000";
layers = (
{
layerId = "D6A4831D-747C-4592-93C0-305F4CD57904";
shapes = (
{
closed = 1;
nodes = (
(641,-14,o),
(657,0,o),
(658,21,cs),
(659,37,o),
(660,50,o),
(660,59,cs),
(660,76,o),
(658,89,o),
(655,100,cs),
(631,177,o),
(618,263,o),
(617,359,cs),
(615,411,ls),
(611,465,o),
(607,507,o),
(603,536,cs),
(597,580,o),
(587,616,o),
(574,643,cs),
(555,680,o),
(519,702,o),
(479,702,cs),
(463,702,o),
(447,698,o),
(432,691,cs),
(361,657,o),
(304,601,o),
(261,523,cs),
(246,492,o),
(201,399,o),
(125,245,cs),
(56,105,ls),
(52,97,o),
(50,89,o),
(50,82,cs),
(50,71,o),
(55,60,o),
(65,49,cs),
(78,33,o),
(99,22,o),
(119,22,cs),
(140,22,o),
(156,33,o),
(169,56,cs),
(188,91,o),
(204,118,o),
(215,137,cs),
(228,158,o),
(246,172,o),
(269,178,cs),
(292,183,o),
(318,189,o),
(345,197,cs),
(393,211,ls),
(417,218,o),
(448,228,o),
(489,241,cs),
(495,243,o),
(500,244,o),
(505,244,cs),
(518,244,o),
(526,235,o),
(530,217,cs),
(540,173,o),
(548,138,o),
(555,113,cs),
(558,103,o),
(558,92,o),
(557,80,cs),
(556,73,o),
(556,67,o),
(557,63,c),
(556,60,o),
(556,56,o),
(556,51,cs),
(556,19,o),
(574,-4,o),
(607,-12,cs),
(618,-14,l)
);
},
{
closed = 1;
nodes = (
(297,322,ls),
(310,352,o),
(319,371,o),
(323,380,cs),
(348,435,o),
(378,486,o),
(413,533,cs),
(434,562,o),
(461,579,o),
(493,585,c),
(508,510,o),
(510,450,o),
(513,322,c),
(449,312,o),
(371,299,o),
(280,283,c)
);
},
{
closed = 1;
nodes = (
(605,668,o),
(613,677,o),
(618,696,c),
(618,703,o),
(609,711,o),
(600,727,cs),
(593,738,o),
(580,757,o),
(559,785,cs),
(553,793,o),
(544,805,o),
(533,822,cs),
(518,842,o),
(507,855,o),
(500,861,cs),
(492,867,o),
(483,870,o),
(473,870,cs),
(464,870,o),
(453,866,o),
(448,859,cs),
(445,854,o),
(438,846,o),
(429,836,cs),
(419,825,o),
(410,815,o),
(403,805,cs),
(381,775,o),
(366,754,o),
(358,741,cs),
(349,728,o),
(345,719,o),
(345,714,cs),
(345,702,o),
(346,681,o),
(365,681,c),
(374,686,o),
(382,693,o),
(390,702,cs),
(447,759,o),
(476,787,o),
(477,786,cs),
(478,784,o),
(481,779,o),
(486,772,cs),
(507,745,o),
(536,713,o),
(573,676,cs),
(577,671,o),
(586,668,o),
(593,668,cs)
);
},
{
closed = 1;
nodes = (
(444,862,o),
(480,903,o),
(485,942,c),
(489,954,o),
(488,973,o),
(483,1000,c),
(470,1024,o),
(461,1038,o),
(456,1041,cs),
(451,1044,o),
(445,1048,o),
(437,1051,cs),
(400,1066,o),
(358,1063,o),
(342,1054,cs),
(317,1037,o),
(334,994,o),
(335,994,cs),
(386,998,l),
(403,1002,o),
(423,993,o),
(431,978,c),
(440,967,o),
(441,957,o),
(434,947,c),
(389,926,o),
(366,908,o),
(366,892,cs),
(366,883,o),
(374,870,o),
(391,853,c)
);
}
);
width = 710;
}
);
unicode = 7848;
},
{
glyphname = Acircumflextilde;
lastChange = "2022-09-29 08:18:29 +0000";
layers = (
{
layerId = "D6A4831D-747C-4592-93C0-305F4CD57904";
shapes = (
{
closed = 1;
nodes = (
(626,-35,o),
(642,-21,o),
(643,0,cs),
(644,16,o),
(645,29,o),
(645,38,cs),
(645,55,o),
(643,68,o),
(640,79,cs),
(616,156,o),
(603,242,o),
(602,338,cs),
(600,390,ls),
(596,444,o),
(592,486,o),
(588,515,cs),
(582,559,o),
(572,595,o),
(559,622,cs),
(540,659,o),
(504,681,o),
(464,681,cs),
(448,681,o),
(432,677,o),
(417,670,cs),
(346,636,o),
(289,580,o),
(246,502,cs),
(231,471,o),
(186,378,o),
(110,224,cs),
(41,84,ls),
(37,76,o),
(35,68,o),
(35,61,cs),
(35,50,o),
(40,39,o),
(50,28,cs),
(63,12,o),
(84,1,o),
(104,1,cs),
(125,1,o),
(141,12,o),
(154,35,cs),
(173,70,o),
(189,97,o),
(200,116,cs),
(213,137,o),
(231,151,o),
(254,157,cs),
(277,162,o),
(303,168,o),
(330,176,cs),
(378,190,ls),
(402,197,o),
(433,207,o),
(474,220,cs),
(480,222,o),
(485,223,o),
(490,223,cs),
(503,223,o),
(511,214,o),
(515,196,cs),
(525,152,o),
(533,117,o),
(540,92,cs),
(543,82,o),
(543,71,o),
(542,59,cs),
(541,52,o),
(541,46,o),
(542,42,c),
(541,39,o),
(541,35,o),
(541,30,cs),
(541,-2,o),
(559,-25,o),
(592,-33,cs),
(603,-35,l)
);
},
{
closed = 1;
nodes = (
(282,301,ls),
(295,331,o),
(304,350,o),
(308,359,cs),
(333,414,o),
(363,465,o),
(398,512,cs),
(419,541,o),
(446,558,o),
(478,564,c),
(493,489,o),
(495,429,o),
(498,301,c),
(434,291,o),
(356,278,o),
(265,262,c)
);
},
{
closed = 1;
nodes = (
(603,642,o),
(613,653,o),
(618,674,c),
(618,677,o),
(616,681,o),
(613,685,c),
(609,688,o),
(606,691,o),
(605,693,c),
(586,715,o),
(565,741,o),
(542,772,cs),
(535,781,o),
(526,795,o),
(513,813,cs),
(497,836,o),
(487,849,o),
(483,854,cs),
(476,862,o),
(468,866,o),
(457,866,cs),
(446,866,o),
(436,862,o),
(429,854,cs),
(425,848,o),
(418,840,o),
(407,829,cs),
(396,817,o),
(387,805,o),
(379,794,cs),
(355,761,o),
(335,732,o),
(319,707,cs),
(316,703,o),
(315,699,o),
(315,694,cs),
(315,681,o),
(317,657,o),
(337,657,c),
(346,663,o),
(356,671,o),
(365,680,cs),
(428,743,o),
(460,774,o),
(461,773,cs),
(462,771,o),
(465,766,o),
(471,758,cs),
(494,729,o),
(526,693,o),
(568,651,c),
(572,646,o),
(582,642,o),
(590,642,cs)
);
},
{
closed = 1;
nodes = (
(584,859,o),
(613,872,o),
(642,907,cs),
(655,922,o),
(662,939,o),
(662,957,cs),
(662,985,o),
(653,999,o),
(621,999,cs),
(610,999,o),
(605,995,o),
(597,980,cs),
(585,956,o),
(569,940,o),
(530,924,cs),
(527,923,o),
(521,923,o),
(513,923,cs),
(476,923,o),
(455,935,o),
(426,959,cs),
(407,975,o),
(394,984,o),
(377,991,c),
(363,993,o),
(353,994,o),
(347,994,cs),
(334,994,o),
(324,990,o),
(311,979,cs),
(279,955,o),
(271,946,o),
(272,927,cs),
(273,896,o),
(319,890,o),
(320,890,c),
(325,887,o),
(329,886,o),
(334,886,cs),
(342,886,o),
(348,892,o),
(351,904,cs),
(355,921,o),
(364,933,o),
(380,933,cs),
(385,933,o),
(391,931,o),
(398,928,cs),
(410,923,o),
(427,913,o),
(450,898,cs),
(463,889,o),
(471,885,o),
(472,884,cs),
(504,863,o),
(532,853,o),
(555,856,cs)
);
}
);
width = 720;
}
);
unicode = 7850;
},
{
glyphname = Adieresis;
kernLeft = A;
kernRight = A;
lastChange = "2022-09-29 08:18:29 +0000";
layers = (
{
layerId = "D6A4831D-747C-4592-93C0-305F4CD57904";
shapes = (
{
closed = 1;
nodes = (
(601,-19,o),
(615,-13,o),
(624,-1,c),
(633,8,o),
(637,22,o),
(637,39,cs),
(637,44,o),
(637,49,o),
(636,52,c),
(608,222,ls),
(601,258,o),
(597,285,o),
(594,303,cs),
(567,462,l),
(535,652,ls),
(528,696,o),
(514,724,o),
(477,735,cs),
(465,738,o),
(454,740,o),
(445,740,cs),
(414,740,o),
(389,724,o),
(370,692,cs),
(366,685,o),
(362,680,o),
(359,675,cs),
(351,661,l),
(339,643,ls),
(319,613,o),
(306,591,o),
(299,578,cs),
(229,441,ls),
(198,377,o),
(171,324,o),
(148,282,cs),
(137,262,o),
(117,243,o),
(90,224,cs),
(85,220,ls),
(76,213,o),
(69,208,o),
(66,205,cs),
(62,202,o),
(60,198,o),
(60,193,cs),
(60,187,o),
(63,180,o),
(70,171,cs),
(72,168,o),
(73,165,o),
(73,160,cs),
(73,157,o),
(72,153,o),
(71,146,cs),
(70,139,o),
(69,135,o),
(69,132,cs),
(70,121,ls),
(71,108,o),
(72,93,o),
(79,86,cs),
(92,71,o),
(108,64,o),
(128,64,cs),
(133,64,o),
(137,64,o),
(140,65,c),
(164,68,o),
(185,83,o),
(196,106,cs),
(201,116,o),
(207,135,o),
(216,162,c),
(247,233,o),
(265,230,o),
(317,230,cs),
(364,228,ls),
(371,228,o),
(384,229,o),
(403,231,cs),
(431,234,o),
(451,235,o),
(464,235,cs),
(471,235,o),
(475,234,o),
(478,233,c),
(491,224,o),
(498,207,o),
(501,184,cs),
(510,133,o),
(516,97,o),
(520,78,cs),
(528,37,ls),
(535,-2,o),
(553,-19,o),
(582,-19,cs)
);
},
{
closed = 1;
nodes = (
(431,585,l),
(478,301,l),
(275,295,l)
);
},
{
closed = 1;
nodes = (
(341,769,o),
(363,785,o),
(368,797,cs),
(369,801,o),
(370,804,o),
(370,806,cs),
(370,831,o),
(332,855,o),
(291,854,c),
(264,809,l),
(273,804,o),
(280,799,o),
(285,796,cs),
(289,793,o),
(312,777,o),
(332,772,cs)
);
},
{
closed = 1;
nodes = (
(645,735,o),
(660,748,o),
(660,772,cs),
(660,801,o),
(639,820,o),
(610,823,cs),
(599,823,o),
(585,817,o),
(569,809,cs),
(552,800,o),
(540,795,o),
(533,792,c),
(538,789,o),
(549,780,o),
(566,767,cs),
(583,752,o),
(598,742,o),
(609,738,cs),
(614,736,o),
(620,735,o),
(625,735,cs)
);
}
);
userData = {
assembly = "MPPEM[ ]	/* MeasurePixelPerEm */
PUSHB[ ]	/* 1 value pushed */
39 
LT[ ]	/* LessThan */
IF[ ]	/* If */
NPUSHB[ ]	/* 21 values pushed */
25 11 7 3 7 2 107 1 8 1 77 69 2 6 4 32 1 3 6 4 76 
ELSE[ ]	/* Else */
NPUSHB[ ]	/* 21 values pushed */
25 11 7 3 7 2 107 1 8 1 77 69 2 6 5 32 1 3 6 4 76 
EIF[ ]	/* EndIf */
MPPEM[ ]	/* MeasurePixelPerEm */
PUSHB[ ]	/* 1 value pushed */
39 
LT[ ]	/* LessThan */
IF[ ]	/* If */
NPUSHB[ ]	/* 45 values pushed */
0 0 2 0 133 0 7 2 1 2 7 1 128 0 6 4 3 4 6 3 128 9 1 2 0 1 8 2 1 105 0 8 5 1 4 6 8 4 105 0 3 3 31 3 78 
ELSE[ ]	/* Else */
NPUSHB[ ]	/* 51 values pushed */
0 0 2 0 133 0 7 2 1 2 7 1 128 0 4 8 5 5 4 114 0 6 5 3 5 6 3 128 9 1 2 0 1 8 2 1 105 0 8 0 5 6 8 5 105 0 3 3 31 3 78 
EIF[ ]	/* EndIf */
NPUSHB[ ]	/* 23 values pushed */
14 14 106 105 95 93 64 63 53 49 47 46 37 35 14 30 14 29 25 24 10 8 24 
CALL[ ]	/* CallFunction */";
};
width = 710;
}
);
note = Adieresis;
unicode = 196;
},
{
glyphname = Adieresismacron;
lastChange = "2022-09-29 08:18:29 +0000";
layers = (
{
layerId = "D6A4831D-747C-4592-93C0-305F4CD57904";
shapes = (
{
closed = 1;
nodes = (
(626,-14,o),
(642,0,o),
(643,21,cs),
(644,37,o),
(645,50,o),
(645,59,cs),
(645,76,o),
(643,89,o),
(640,100,cs),
(616,177,o),
(603,263,o),
(602,359,cs),
(600,411,ls),
(596,465,o),
(592,507,o),
(588,536,cs),
(582,580,o),
(572,616,o),
(559,643,cs),
(540,680,o),
(504,702,o),
(464,702,cs),
(448,702,o),
(432,698,o),
(417,691,cs),
(346,657,o),
(289,601,o),
(246,523,cs),
(231,492,o),
(186,399,o),
(110,245,cs),
(41,105,ls),
(37,97,o),
(35,89,o),
(35,82,cs),
(35,71,o),
(40,60,o),
(50,49,cs),
(63,33,o),
(84,22,o),
(104,22,cs),
(125,22,o),
(141,33,o),
(154,56,cs),
(173,91,o),
(189,118,o),
(200,137,cs),
(213,158,o),
(231,172,o),
(254,178,cs),
(277,183,o),
(303,189,o),
(330,197,cs),
(378,211,ls),
(402,218,o),
(433,228,o),
(474,241,cs),
(480,243,o),
(485,244,o),
(490,244,cs),
(503,244,o),
(511,235,o),
(515,217,cs),
(525,173,o),
(533,138,o),
(540,113,cs),
(543,103,o),
(543,92,o),
(542,80,cs),
(541,73,o),
(541,67,o),
(542,63,c),
(541,60,o),
(541,56,o),
(541,51,cs),
(541,19,o),
(559,-4,o),
(592,-12,cs),
(603,-14,l)
);
},
{
closed = 1;
nodes = (
(282,322,ls),
(295,352,o),
(304,371,o),
(308,380,cs),
(333,435,o),
(363,486,o),
(398,533,cs),
(419,562,o),
(446,579,o),
(478,585,c),
(493,510,o),
(495,450,o),
(498,322,c),
(434,312,o),
(356,299,o),
(265,283,c)
);
},
{
closed = 1;
nodes = (
(371,702,o),
(392,714,o),
(395,726,c),
(379,773,o),
(354,777,o),
(327,776,c),
(318,760,o),
(310,746,o),
(303,735,c),
(325,723,l),
(340,712,o),
(352,705,o),
(363,703,cs)
);
},
{
closed = 1;
nodes = (
(369,809,o),
(410,810,o),
(465,808,c),
(471,809,o),
(489,809,o),
(519,808,cs),
(549,807,o),
(576,809,o),
(601,812,c),
(620,818,ls),
(641,826,o),
(648,839,o),
(636,854,c),
(633,856,o),
(630,859,o),
(626,863,c),
(609,872,o),
(599,880,o),
(575,880,cs),
(559,879,o),
(533,880,o),
(498,884,cs),
(462,888,l),
(458,887,o),
(451,888,o),
(441,891,cs),
(430,894,o),
(422,895,o),
(416,895,cs),
(302,890,o),
(255,870,o),
(276,834,c),
(293,813,o),
(315,803,o),
(343,806,cs)
);
},
{
closed = 1;
nodes = (
(641,670,o),
(655,682,o),
(655,703,cs),
(655,730,o),
(636,747,o),
(611,748,cs),
(604,748,o),
(591,744,o),
(572,735,cs),
(563,730,o),
(553,725,o),
(542,721,c),
(559,706,o),
(567,700,o),
(565,702,cs),
(594,678,o),
(604,670,o),
(624,670,cs)
);
}
);
width = 720;
}
);
unicode = 478;
},
{
glyphname = Adotbelow;
lastChange = "2022-09-29 08:18:29 +0000";
layers = (
{
layerId = "D6A4831D-747C-4592-93C0-305F4CD57904";
shapes = (
{
closed = 1;
nodes = (
(626,-14,o),
(642,0,o),
(643,21,cs),
(644,37,o),
(645,50,o),
(645,59,cs),
(645,76,o),
(643,89,o),
(640,100,cs),
(616,177,o),
(603,263,o),
(602,359,cs),
(600,411,ls),
(596,465,o),
(592,507,o),
(588,536,cs),
(582,580,o),
(572,616,o),
(559,643,cs),
(540,680,o),
(504,702,o),
(464,702,cs),
(448,702,o),
(432,698,o),
(417,691,cs),
(346,657,o),
(289,601,o),
(246,523,cs),
(231,492,o),
(186,399,o),
(110,245,cs),
(41,105,ls),
(37,97,o),
(35,89,o),
(35,82,cs),
(35,71,o),
(40,60,o),
(50,49,cs),
(63,33,o),
(84,22,o),
(104,22,cs),
(125,22,o),
(141,33,o),
(154,56,cs),
(173,91,o),
(189,118,o),
(200,137,cs),
(213,158,o),
(231,172,o),
(254,178,cs),
(277,183,o),
(303,189,o),
(330,197,cs),
(378,211,ls),
(402,218,o),
(433,228,o),
(474,241,cs),
(480,243,o),
(485,244,o),
(490,244,cs),
(503,244,o),
(511,235,o),
(515,217,cs),
(525,173,o),
(533,138,o),
(540,113,cs),
(543,103,o),
(543,92,o),
(542,80,cs),
(541,73,o),
(541,67,o),
(542,63,c),
(541,60,o),
(541,56,o),
(541,51,cs),
(541,19,o),
(559,-4,o),
(592,-12,cs),
(603,-14,l)
);
},
{
closed = 1;
nodes = (
(350,-168,o),
(363,-160,o),
(376,-151,cs),
(389,-142,o),
(398,-135,o),
(403,-132,cs),
(418,-123,o),
(425,-111,o),
(424,-97,cs),
(423,-83,o),
(417,-71,o),
(404,-62,cs),
(391,-53,o),
(379,-48,o),
(367,-47,cs),
(356,-46,o),
(344,-50,o),
(333,-57,cs),
(250,-113,o),
(313,-185,o),
(338,-173,cs)
);
},
{
closed = 1;
nodes = (
(282,322,ls),
(295,352,o),
(304,371,o),
(308,380,cs),
(333,435,o),
(363,486,o),
(398,533,cs),
(419,562,o),
(446,579,o),
(478,585,c),
(493,510,o),
(495,450,o),
(498,322,c),
(434,312,o),
(356,299,o),
(265,283,c)
);
}
);
width = 720;
}
);
unicode = 7840;
},
{
glyphname = Agrave;
kernLeft = A;
kernRight = A;
lastChange = "2022-09-29 08:18:29 +0000";
layers = (
{
layerId = "D6A4831D-747C-4592-93C0-305F4CD57904";
shapes = (
{
closed = 1;
nodes = (
(446,726,o),
(456,730,o),
(460,739,c),
(471,742,o),
(476,753,o),
(476,770,cs),
(476,787,o),
(468,802,o),
(451,815,cs),
(397,858,o),
(350,892,o),
(309,917,cs),
(292,928,o),
(269,936,o),
(256,936,cs),
(251,936,o),
(247,935,o),
(245,934,cs),
(239,931,o),
(236,930,o),
(236,932,cs),
(236,934,o),
(233,929,o),
(228,918,cs),
(216,892,l),
(217,891,o),
(221,883,o),
(228,869,c),
(243,859,o),
(255,851,o),
(262,844,c),
(325,796,o),
(365,766,o),
(383,755,cs),
(400,744,o),
(416,734,o),
(431,726,c)
);
},
{
closed = 1;
nodes = (
(640,0,o),
(648,2,o),
(658,6,cs),
(680,15,l),
(681,41,ls),
(681,46,o),
(681,49,o),
(680,51,c),
(669,105,ls),
(664,129,o),
(645,213,o),
(629,269,cs),
(623,290,o),
(620,306,o),
(620,318,cs),
(620,339,o),
(630,356,o),
(649,369,c),
(646,372,o),
(643,377,o),
(640,382,cs),
(636,387,o),
(632,389,o),
(629,390,cs),
(606,397,o),
(592,416,o),
(589,446,cs),
(587,464,o),
(583,478,o),
(578,489,cs),
(560,527,ls),
(537,578,o),
(524,605,o),
(505,630,cs),
(481,662,o),
(450,678,o),
(417,678,cs),
(381,678,o),
(347,659,o),
(324,623,cs),
(277,550,o),
(244,487,o),
(223,434,cs),
(192,357,o),
(152,250,o),
(144,229,cs),
(124,171,ls),
(108,127,o),
(91,104,o),
(50,108,c),
(58,69,o),
(77,57,o),
(105,57,cs),
(156,57,o),
(198,78,o),
(222,123,cs),
(225,129,o),
(234,150,o),
(247,185,cs),
(266,233,o),
(277,258,o),
(282,261,cs),
(291,266,o),
(305,268,o),
(323,267,cs),
(363,266,ls),
(377,265,o),
(387,266,o),
(393,269,c),
(404,272,o),
(423,276,o),
(452,280,cs),
(476,282,o),
(496,285,o),
(511,289,c),
(516,276,o),
(528,211,o),
(549,94,cs),
(554,67,l),
(555,45,o),
(556,31,o),
(559,25,cs),
(561,19,o),
(566,15,o),
(575,12,cs),
(596,4,o),
(616,0,o),
(633,0,cs)
);
},
{
closed = 1;
nodes = (
(342,434,o),
(369,482,o),
(418,561,c),
(426,539,o),
(440,508,o),
(460,469,cs),
(478,434,o),
(490,410,o),
(495,395,c),
(471,382,o),
(444,378,o),
(403,378,cs),
(368,378,ls),
(351,378,o),
(337,377,o),
(325,375,c)
);
}
);
userData = {
assembly = "NPUSHB[ ]	/* 45 values pushed */
11 1 4 0 96 95 61 3 2 1 2 76 0 0 4 0 133 0 4 1 4 133 0 1 2 1 133 0 2 3 2 133 0 3 3 118 74 73 42 46 25 29 5 8 26 
CALL[ ]	/* CallFunction */";
};
width = 731;
}
);
metricLeft = A;
metricRight = A;
note = Agrave;
unicode = 192;
},
{
glyphname = Ahookabove;
lastChange = "2022-09-29 08:18:29 +0000";
layers = (
{
layerId = "D6A4831D-747C-4592-93C0-305F4CD57904";
shapes = (
{
closed = 1;
nodes = (
(626,-14,o),
(642,0,o),
(643,21,cs),
(644,37,o),
(645,49,o),
(645,59,cs),
(645,75,o),
(643,89,o),
(640,99,cs),
(616,175,o),
(603,261,o),
(602,356,cs),
(600,408,ls),
(596,462,o),
(592,503,o),
(588,532,cs),
(582,576,o),
(572,611,o),
(559,639,cs),
(540,676,o),
(504,697,o),
(464,697,cs),
(448,697,o),
(432,693,o),
(417,686,cs),
(346,652,o),
(289,597,o),
(246,519,cs),
(231,488,o),
(186,396,o),
(110,243,cs),
(41,104,ls),
(37,96,o),
(35,89,o),
(35,81,cs),
(35,71,o),
(40,60,o),
(50,49,cs),
(63,33,o),
(84,22,o),
(104,22,cs),
(125,22,o),
(141,33,o),
(154,56,cs),
(173,90,o),
(189,117,o),
(200,136,cs),
(213,157,o),
(231,171,o),
(254,177,cs),
(277,181,o),
(303,188,o),
(330,196,cs),
(378,210,ls),
(402,216,o),
(433,226,o),
(474,239,cs),
(480,241,o),
(485,242,o),
(490,242,cs),
(503,242,o),
(511,233,o),
(515,215,cs),
(525,172,o),
(533,137,o),
(540,112,cs),
(543,102,o),
(543,91,o),
(542,79,cs),
(541,72,o),
(541,67,o),
(542,63,c),
(541,60,o),
(541,56,o),
(541,51,cs),
(541,19,o),
(559,-4,o),
(592,-12,cs),
(603,-14,l)
);
},
{
closed = 1;
nodes = (
(282,320,ls),
(295,350,o),
(304,369,o),
(308,377,cs),
(333,432,o),
(363,482,o),
(398,529,cs),
(419,558,o),
(446,575,o),
(478,581,c),
(493,507,o),
(495,447,o),
(498,320,c),
(434,310,o),
(356,297,o),
(265,281,c)
);
},
{
closed = 1;
nodes = (
(551,713,o),
(582,749,o),
(587,783,c),
(591,794,o),
(590,811,o),
(585,834,c),
(573,856,o),
(566,868,o),
(561,871,cs),
(557,874,o),
(552,877,o),
(545,879,cs),
(512,892,o),
(475,890,o),
(461,882,cs),
(438,867,o),
(453,829,o),
(455,829,cs),
(500,833,l),
(515,836,o),
(532,828,o),
(539,815,c),
(547,806,o),
(548,797,o),
(542,788,c),
(502,769,o),
(482,753,o),
(482,739,cs),
(482,731,o),
(489,720,o),
(504,705,c)
);
}
);
width = 720;
}
);
unicode = 7842;
},
{
glyphname = Amacron;
kernLeft = A;
kernRight = A;
lastChange = "2022-09-29 08:18:29 +0000";
layers = (
{
layerId = "D6A4831D-747C-4592-93C0-305F4CD57904";
shapes = (
{
closed = 1;
nodes = (
(189,-19,o),
(205,-4,o),
(215,24,cs),
(223,46,o),
(228,71,o),
(231,98,cs),
(235,137,o),
(255,161,o),
(291,170,cs),
(338,182,o),
(383,189,o),
(428,190,cs),
(447,191,o),
(466,190,o),
(485,187,c),
(491,163,ls),
(499,132,o),
(504,110,o),
(505,99,cs),
(510,61,o),
(524,32,o),
(547,11,cs),
(554,4,o),
(565,1,o),
(578,1,cs),
(584,1,o),
(588,1,o),
(591,2,cs),
(598,3,o),
(607,21,o),
(606,32,cs),
(605,54,o),
(598,82,o),
(587,117,cs),
(578,142,l),
(571,155,o),
(568,167,o),
(568,176,cs),
(568,195,o),
(584,206,o),
(619,210,cs),
(643,213,o),
(657,231,o),
(658,260,c),
(639,263,o),
(624,264,o),
(615,265,cs),
(588,268,o),
(573,270,o),
(571,271,c),
(529,559,ls),
(528,568,o),
(526,581,o),
(525,597,cs),
(520,635,ls),
(515,676,o),
(491,705,o),
(448,721,cs),
(435,726,o),
(426,728,o),
(421,727,cs),
(409,726,o),
(399,721,o),
(391,712,cs),
(367,684,ls),
(348,663,o),
(329,639,o),
(317,618,cs),
(245,493,o),
(191,379,o),
(155,277,cs),
(145,249,o),
(128,229,o),
(105,217,c),
(84,210,o),
(72,206,o),
(67,203,cs),
(62,200,o),
(60,195,o),
(60,190,cs),
(60,174,o),
(69,167,o),
(88,158,c),
(104,146,o),
(112,131,o),
(112,114,cs),
(112,110,o),
(111,104,o),
(110,95,c),
(107,84,o),
(106,70,o),
(106,53,cs),
(104,33,ls),
(103,18,o),
(110,5,o),
(125,-6,cs),
(141,-17,o),
(155,-22,o),
(168,-21,cs)
);
},
{
closed = 1;
nodes = (
(320,354,o),
(345,421,o),
(365,462,cs),
(385,503,o),
(402,532,o),
(415,549,c),
(432,484,o),
(447,395,o),
(448,383,cs),
(453,334,o),
(459,297,o),
(466,272,c),
(441,266,o),
(410,263,o),
(372,263,cs),
(345,263,ls),
(339,263,o),
(331,263,o),
(322,264,cs),
(313,264,o),
(302,264,o),
(291,263,c)
);
},
{
closed = 1;
nodes = (
(487,790,o),
(539,798,o),
(590,811,cs),
(601,813,o),
(609,833,o),
(620,842,c),
(609,849,o),
(599,861,o),
(587,861,cs),
(514,865,o),
(441,861,o),
(364,865,cs),
(345,865,o),
(323,874,o),
(302,874,cs),
(269,874,o),
(236,872,o),
(204,861,cs),
(193,858,o),
(179,833,o),
(179,820,c),
(181,811,o),
(200,800,o),
(212,790,c),
(217,788,o),
(225,788,o),
(231,788,cs),
(432,788,l),
(432,781,l)
);
}
);
width = 708;
}
);
unicode = 256;
},
{
glyphname = Aogonek;
lastChange = "2022-09-29 08:18:29 +0000";
layers = (
{
layerId = "D6A4831D-747C-4592-93C0-305F4CD57904";
shapes = (
{
closed = 1;
nodes = (
(601,-28,o),
(615,-22,o),
(624,-10,c),
(633,-1,o),
(637,13,o),
(637,30,cs),
(637,35,o),
(637,40,o),
(636,43,c),
(608,213,ls),
(601,249,o),
(597,276,o),
(594,294,cs),
(567,453,l),
(535,643,ls),
(528,687,o),
(514,715,o),
(477,726,cs),
(465,729,o),
(454,731,o),
(445,731,cs),
(414,731,o),
(389,715,o),
(370,683,cs),
(366,676,o),
(362,671,o),
(359,666,cs),
(351,652,l),
(339,634,ls),
(319,604,o),
(306,582,o),
(299,569,cs),
(229,432,ls),
(198,368,o),
(171,315,o),
(148,273,cs),
(137,253,o),
(117,234,o),
(90,215,cs),
(85,211,ls),
(76,204,o),
(69,199,o),
(66,196,cs),
(62,193,o),
(60,189,o),
(60,184,cs),
(60,178,o),
(63,171,o),
(70,162,cs),
(72,159,o),
(73,156,o),
(73,151,cs),
(73,148,o),
(72,144,o),
(71,137,cs),
(70,130,o),
(69,126,o),
(69,123,cs),
(70,112,ls),
(71,99,o),
(72,84,o),
(79,77,cs),
(92,62,o),
(108,55,o),
(128,55,cs),
(133,55,o),
(137,55,o),
(140,56,c),
(164,59,o),
(185,74,o),
(196,97,cs),
(201,107,o),
(207,126,o),
(216,153,c),
(247,224,o),
(265,221,o),
(317,221,cs),
(364,219,ls),
(371,219,o),
(384,220,o),
(403,222,cs),
(431,225,o),
(451,226,o),
(464,226,cs),
(471,226,o),
(475,225,o),
(478,224,c),
(491,215,o),
(498,198,o),
(501,175,cs),
(510,124,o),
(516,88,o),
(520,69,cs),
(528,28,ls),
(535,-11,o),
(553,-28,o),
(582,-28,cs)
);
},
{
closed = 1;
nodes = (
(563,-252,o),
(585,-249,o),
(617,-244,cs),
(622,-243,o),
(626,-241,o),
(630,-237,cs),
(638,-231,ls),
(643,-226,o),
(646,-221,o),
(646,-214,cs),
(646,-204,o),
(641,-196,o),
(631,-191,cs),
(622,-188,o),
(614,-186,o),
(607,-186,c),
(604,-185,o),
(599,-185,o),
(593,-185,cs),
(586,-185,o),
(581,-185,o),
(577,-184,cs),
(545,-179,o),
(526,-162,o),
(526,-135,cs),
(526,-123,o),
(528,-113,o),
(532,-105,cs),
(541,-86,o),
(551,-69,o),
(563,-52,cs),
(567,-47,o),
(574,-42,o),
(583,-36,cs),
(599,-27,o),
(609,-19,o),
(613,0,cs),
(617,15,o),
(608,22,o),
(585,22,cs),
(565,22,o),
(540,15,o),
(527,8,cs),
(512,-1,o),
(491,-27,o),
(466,-71,c),
(458,-92,o),
(454,-111,o),
(453,-130,cs),
(452,-145,ls),
(452,-204,o),
(489,-244,o),
(552,-251,cs)
);
},
{
closed = 1;
nodes = (
(431,576,l),
(478,292,l),
(275,286,l)
);
}
);
width = 696;
}
);
unicode = 260;
},
{
glyphname = Aring;
kernLeft = A;
kernRight = A;
lastChange = "2022-09-29 08:18:29 +0000";
layers = (
{
layerId = "D6A4831D-747C-4592-93C0-305F4CD57904";
shapes = (
{
closed = 1;
nodes = (
(637,-29,o),
(653,-16,o),
(654,5,c),
(655,10,o),
(653,24,o),
(650,48,cs),
(646,72,o),
(643,91,o),
(641,106,cs),
(625,222,o),
(615,290,o),
(615,334,c),
(608,413,o),
(585,582,o),
(572,611,cs),
(555,648,o),
(519,669,o),
(480,669,cs),
(464,669,o),
(448,666,o),
(432,659,c),
(314,507,o),
(231,387,o),
(183,299,cs),
(134,211,o),
(95,140,o),
(66,86,cs),
(62,79,o),
(60,71,o),
(60,64,cs),
(60,53,o),
(65,43,o),
(74,32,cs),
(89,14,o),
(107,5,o),
(126,6,cs),
(147,7,o),
(164,17,o),
(177,38,cs),
(195,67,o),
(210,94,o),
(221,118,cs),
(232,141,o),
(250,154,o),
(275,157,cs),
(286,158,o),
(338,162,o),
(386,162,cs),
(425,162,o),
(459,161,o),
(486,158,cs),
(513,155,o),
(528,151,o),
(529,145,cs),
(550,60,o),
(572,-20,o),
(603,-27,cs),
(610,-28,o),
(614,-29,o),
(617,-29,cs)
);
},
{
closed = 1;
nodes = (
(451,245,o),
(411,252,o),
(402,253,cs),
(367,258,o),
(340,262,o),
(322,263,cs),
(310,264,o),
(298,263,o),
(285,260,c),
(352,374,o),
(401,451,o),
(430,492,cs),
(459,533,o),
(480,554,o),
(492,556,c),
(503,499,o),
(510,406,o),
(511,275,c),
(512,268,o),
(512,259,o),
(512,247,c),
(501,246,o),
(490,245,o),
(479,245,cs)
);
},
{
closed = 1;
nodes = (
(537,679,o),
(546,681,o),
(555,684,cs),
(572,690,o),
(587,705,o),
(602,728,cs),
(611,743,o),
(615,758,o),
(615,775,cs),
(615,786,o),
(612,804,o),
(607,827,cs),
(606,834,o),
(594,843,o),
(583,848,cs),
(578,850,o),
(572,853,o),
(564,856,cs),
(555,859,o),
(549,863,o),
(544,866,cs),
(527,879,o),
(511,885,o),
(498,885,cs),
(492,885,o),
(486,884,o),
(481,882,cs),
(434,865,o),
(409,832,o),
(409,789,cs),
(409,774,o),
(412,758,o),
(418,741,cs),
(430,705,o),
(483,679,o),
(527,679,cs)
);
},
{
closed = 1;
nodes = (
(498,744,o),
(488,747,o),
(483,753,cs),
(476,761,o),
(467,777,o),
(466,790,c),
(471,801,o),
(482,813,o),
(493,818,cs),
(513,828,o),
(531,833,o),
(546,833,c),
(549,834,o),
(553,831,o),
(558,826,cs),
(563,821,o),
(567,817,o),
(569,816,c),
(572,809,o),
(574,803,o),
(574,798,cs),
(574,787,o),
(568,774,o),
(556,759,c),
(547,751,o),
(528,744,o),
(512,744,cs)
);
}
);
userData = {
assembly = "NPUSHB[ ]	/* 18 values pushed */
38 28 2 2 1 102 100 89 3 7 6 106 98 2 8 7 3 76 
MPPEM[ ]	/* MeasurePixelPerEm */
PUSHB[ ]	/* 1 value pushed */
21 
LT[ ]	/* LessThan */
IF[ ]	/* If */
NPUSHB[ ]	/* 45 values pushed */
0 1 2 1 133 0 8 7 4 7 8 4 128 0 2 0 0 6 2 0 106 0 7 0 4 5 7 4 105 0 6 6 36 77 0 5 5 34 77 0 3 3 31 3 78 
ELSE[ ]	/* Else */
NPUSHB[ ]	/* 48 values pushed */
0 1 2 1 133 0 6 0 7 0 6 7 128 0 8 7 4 7 8 4 128 0 2 0 0 6 2 0 106 0 7 0 4 5 7 4 105 0 5 5 34 77 0 3 3 31 3 78 
EIF[ ]	/* EndIf */
NPUSHB[ ]	/* 19 values pushed */
97 95 92 90 84 82 72 70 64 61 54 53 34 32 40 32 9 8 24 
CALL[ ]	/* CallFunction */";
};
width = 704;
}
);
note = Aring;
unicode = 197;
},
{
glyphname = Aringacute;
kernLeft = A;
kernRight = A;
lastChange = "2022-09-29 08:18:29 +0000";
layers = (
{
layerId = "D6A4831D-747C-4592-93C0-305F4CD57904";
shapes = (
{
closed = 1;
nodes = (
(637,-29,o),
(653,-16,o),
(654,5,c),
(655,10,o),
(653,24,o),
(650,48,cs),
(646,72,o),
(643,91,o),
(641,106,cs),
(625,222,o),
(615,290,o),
(615,334,c),
(608,413,o),
(585,582,o),
(572,611,cs),
(555,648,o),
(519,669,o),
(480,669,cs),
(464,669,o),
(448,666,o),
(432,659,c),
(314,507,o),
(231,387,o),
(183,299,cs),
(134,211,o),
(95,140,o),
(66,86,cs),
(62,79,o),
(60,71,o),
(60,64,cs),
(60,53,o),
(65,43,o),
(74,32,cs),
(89,14,o),
(107,5,o),
(126,6,cs),
(147,7,o),
(164,17,o),
(177,38,cs),
(195,67,o),
(210,94,o),
(221,118,cs),
(232,141,o),
(250,154,o),
(275,157,cs),
(286,158,o),
(338,162,o),
(386,162,cs),
(425,162,o),
(459,161,o),
(486,158,cs),
(513,155,o),
(528,151,o),
(529,145,cs),
(550,60,o),
(572,-20,o),
(603,-27,cs),
(610,-28,o),
(614,-29,o),
(617,-29,cs)
);
},
{
closed = 1;
nodes = (
(451,245,o),
(411,252,o),
(402,253,cs),
(367,258,o),
(340,262,o),
(322,263,cs),
(310,264,o),
(298,263,o),
(285,260,c),
(352,374,o),
(401,451,o),
(430,492,cs),
(459,533,o),
(480,554,o),
(492,556,c),
(503,499,o),
(510,406,o),
(511,275,c),
(512,268,o),
(512,259,o),
(512,247,c),
(501,246,o),
(490,245,o),
(479,245,cs)
);
},
{
closed = 1;
nodes = (
(537,679,o),
(546,681,o),
(555,684,cs),
(572,690,o),
(587,705,o),
(602,728,cs),
(611,743,o),
(615,758,o),
(615,775,cs),
(615,786,o),
(612,804,o),
(607,827,cs),
(606,834,o),
(594,843,o),
(583,848,cs),
(578,850,o),
(572,853,o),
(564,856,cs),
(555,859,o),
(549,863,o),
(544,866,cs),
(527,879,o),
(511,885,o),
(498,885,cs),
(492,885,o),
(486,884,o),
(481,882,cs),
(434,865,o),
(409,832,o),
(409,789,cs),
(409,774,o),
(412,758,o),
(418,741,cs),
(430,705,o),
(483,679,o),
(527,679,cs)
);
},
{
closed = 1;
nodes = (
(498,744,o),
(488,747,o),
(483,753,cs),
(476,761,o),
(467,777,o),
(466,790,c),
(471,801,o),
(482,813,o),
(493,818,cs),
(513,828,o),
(531,833,o),
(546,833,c),
(549,834,o),
(553,831,o),
(558,826,cs),
(563,821,o),
(567,817,o),
(569,816,c),
(572,809,o),
(574,803,o),
(574,798,cs),
(574,787,o),
(568,774,o),
(556,759,c),
(547,751,o),
(528,744,o),
(512,744,cs)
);
},
{
closed = 1;
nodes = (
(613,755,o),
(626,759,o),
(639,768,cs),
(671,790,o),
(705,817,o),
(741,848,cs),
(749,855,o),
(754,864,o),
(756,876,cs),
(758,889,o),
(756,901,o),
(751,912,cs),
(747,919,o),
(740,925,o),
(733,926,cs),
(728,927,o),
(723,926,o),
(718,923,cs),
(705,914,o),
(696,905,o),
(691,896,cs),
(672,861,o),
(645,830,o),
(609,803,c),
(592,788,o),
(592,788,o),
(587,763,c),
(592,760,o),
(596,758,o),
(601,757,cs)
);
}
);
userData = {
assembly = "NPUSHB[ ]	/* 18 values pushed */
38 28 2 2 1 102 100 89 3 7 6 106 98 2 8 7 3 76 
MPPEM[ ]	/* MeasurePixelPerEm */
PUSHB[ ]	/* 1 value pushed */
21 
LT[ ]	/* LessThan */
IF[ ]	/* If */
NPUSHB[ ]	/* 45 values pushed */
0 1 2 1 133 0 8 7 4 7 8 4 128 0 2 0 0 6 2 0 106 0 7 0 4 5 7 4 105 0 6 6 36 77 0 5 5 34 77 0 3 3 31 3 78 
ELSE[ ]	/* Else */
NPUSHB[ ]	/* 48 values pushed */
0 1 2 1 133 0 6 0 7 0 6 7 128 0 8 7 4 7 8 4 128 0 2 0 0 6 2 0 106 0 7 0 4 5 7 4 105 0 5 5 34 77 0 3 3 31 3 78 
EIF[ ]	/* EndIf */
NPUSHB[ ]	/* 19 values pushed */
97 95 92 90 84 82 72 70 64 61 54 53 34 32 40 32 9 8 24 
CALL[ ]	/* CallFunction */";
};
width = 757;
}
);
note = Aring;
unicode = 506;
},
{
glyphname = Atilde;
kernLeft = A;
kernRight = A;
lastChange = "2022-09-29 08:18:29 +0000";
layers = (
{
layerId = "D6A4831D-747C-4592-93C0-305F4CD57904";
shapes = (
{
closed = 1;
nodes = (
(656,-19,o),
(672,-5,o),
(673,16,c),
(674,21,o),
(672,36,o),
(669,61,cs),
(660,120,ls),
(643,241,o),
(633,309,o),
(633,356,c),
(626,437,o),
(604,613,o),
(589,642,cs),
(570,681,o),
(534,702,o),
(494,702,cs),
(477,702,o),
(461,698,o),
(445,691,c),
(322,534,o),
(236,411,o),
(185,321,cs),
(134,230,o),
(94,157,o),
(66,100,cs),
(62,92,o),
(60,84,o),
(60,77,cs),
(60,66,o),
(65,55,o),
(75,44,cs),
(91,26,o),
(109,17,o),
(129,17,cs),
(150,17,o),
(168,28,o),
(181,51,cs),
(199,82,o),
(214,109,o),
(227,133,cs),
(238,154,o),
(256,168,o),
(282,173,cs),
(294,176,o),
(347,178,o),
(396,178,cs),
(437,178,o),
(471,177,o),
(500,174,cs),
(529,171,o),
(544,167,o),
(545,161,cs),
(556,117,o),
(567,77,o),
(580,42,cs),
(592,6,o),
(606,-14,o),
(621,-17,cs),
(628,-18,o),
(632,-19,o),
(635,-19,cs)
);
},
{
closed = 1;
nodes = (
(464,264,o),
(422,271,o),
(413,272,cs),
(376,279,o),
(349,282,o),
(331,282,cs),
(318,282,o),
(305,281,o),
(292,279,c),
(361,397,o),
(411,477,o),
(442,519,cs),
(473,561,o),
(494,583,o),
(506,585,c),
(518,527,o),
(525,430,o),
(526,295,c),
(527,288,o),
(527,279,o),
(527,266,c),
(515,265,o),
(504,264,o),
(493,264,cs)
);
},
{
closed = 1;
nodes = (
(620,779,o),
(673,801,o),
(698,836,cs),
(704,844,o),
(707,852,o),
(707,860,cs),
(707,873,o),
(700,884,o),
(686,892,cs),
(676,898,o),
(665,901,o),
(654,901,cs),
(638,901,o),
(626,895,o),
(619,884,cs),
(590,841,o),
(579,839,o),
(555,839,c),
(533,844,o),
(518,850,o),
(510,855,cs),
(488,867,ls),
(470,876,o),
(448,885,o),
(423,892,cs),
(416,894,o),
(409,895,o),
(402,895,cs),
(387,895,o),
(375,891,o),
(366,884,cs),
(348,871,o),
(327,852,o),
(304,829,cs),
(300,825,o),
(304,815,o),
(311,808,cs),
(318,801,o),
(327,797,o),
(338,797,cs),
(346,797,o),
(353,798,o),
(359,801,cs),
(372,806,o),
(393,814,o),
(422,826,c),
(466,805,ls),
(492,794,o),
(510,788,o),
(520,785,cs),
(535,781,o),
(551,779,o),
(567,779,cs)
);
}
);
userData = {
assembly = "NPUSHB[ ]	/* 17 values pushed */
12 1 1 3 98 96 44 3 9 8 102 94 2 10 9 3 76 
MPPEM[ ]	/* MeasurePixelPerEm */
PUSHB[ ]	/* 1 value pushed */
21 
LT[ ]	/* LessThan */
IF[ ]	/* If */
NPUSHB[ ]	/* 54 values pushed */
4 1 2 3 2 133 0 1 3 0 3 1 0 128 0 10 9 6 9 10 6 128 0 3 0 0 8 3 0 105 0 9 0 6 7 9 6 105 0 8 8 36 77 0 7 7 34 77 0 5 5 31 5 78 
ELSE[ ]	/* Else */
MPPEM[ ]	/* MeasurePixelPerEm */
PUSHB[ ]	/* 1 value pushed */
39 
LT[ ]	/* LessThan */
IF[ ]	/* If */
NPUSHB[ ]	/* 57 values pushed */
4 1 2 3 2 133 0 1 3 0 3 1 0 128 0 8 0 9 0 8 9 128 0 10 9 6 9 10 6 128 0 3 0 0 8 3 0 105 0 9 0 6 7 9 6 105 0 7 7 34 77 0 5 5 31 5 78 
ELSE[ ]	/* Else */
NPUSHB[ ]	/* 61 values pushed */
0 4 2 4 133 0 2 3 2 133 0 1 3 0 3 1 0 128 0 8 0 9 0 8 9 128 0 10 9 6 9 10 6 128 0 3 0 0 8 3 0 105 0 9 0 6 7 9 6 105 0 7 7 34 77 0 5 5 31 5 78 
EIF[ ]	/* EndIf */
EIF[ ]	/* EndIf */
NPUSHB[ ]	/* 16 values pushed */
93 91 88 86 42 38 55 28 36 38 39 40 37 11 8 31 
CALL[ ]	/* CallFunction */";
};
width = 757;
}
);
note = Atilde;
unicode = 195;
},
{
glyphname = AE;
lastChange = "2022-09-29 08:18:29 +0000";
layers = (
{
layerId = "D6A4831D-747C-4592-93C0-305F4CD57904";
shapes = (
{
closed = 1;
nodes = (
(525,-19,o),
(531,-18,o),
(537,-16,cs),
(573,-4,o),
(600,-3,o),
(661,0,cs),
(686,0,o),
(709,1,o),
(729,4,cs),
(742,6,o),
(763,8,o),
(790,11,cs),
(844,18,o),
(885,23,o),
(912,28,cs),
(945,32,o),
(966,41,o),
(973,72,c),
(958,103,o),
(933,113,o),
(897,113,cs),
(871,113,ls),
(862,113,o),
(815,112,o),
(784,107,cs),
(769,105,o),
(745,101,o),
(714,94,cs),
(666,85,o),
(634,78,o),
(601,78,cs),
(582,78,o),
(566,80,o),
(552,83,cs),
(547,84,o),
(536,155,o),
(537,164,cs),
(538,176,o),
(546,191,o),
(554,195,cs),
(558,197,o),
(609,206,o),
(707,221,cs),
(822,239,o),
(885,250,o),
(896,253,cs),
(904,256,o),
(915,275,o),
(912,284,c),
(911,295,o),
(901,307,o),
(889,314,c),
(884,318,o),
(877,320,o),
(866,320,cs),
(859,320,l),
(806,316,ls),
(699,308,o),
(623,304,o),
(580,304,cs),
(551,304,o),
(530,305,o),
(517,308,c),
(498,377,o),
(488,444,o),
(488,511,cs),
(488,523,o),
(489,540,o),
(490,562,c),
(525,577,ls),
(565,596,o),
(598,610,o),
(623,619,cs),
(642,626,o),
(679,636,o),
(734,650,cs),
(771,659,l),
(796,664,ls),
(813,667,o),
(824,670,o),
(831,673,cs),
(840,678,o),
(853,691,o),
(853,702,cs),
(854,713,o),
(844,726,o),
(835,734,cs),
(816,748,o),
(794,755,o),
(769,755,cs),
(760,755,o),
(745,754,o),
(726,751,cs),
(705,748,o),
(687,744,o),
(672,741,cs),
(633,733,ls),
(616,729,o),
(590,724,o),
(555,718,cs),
(544,715,o),
(501,704,o),
(470,704,cs),
(460,704,o),
(448,706,o),
(434,709,c),
(427,712,o),
(418,713,o),
(409,713,cs),
(379,713,o),
(354,695,o),
(334,659,cs),
(250,511,o),
(191,379,o),
(96,160,cs),
(70,100,ls),
(63,84,o),
(60,71,o),
(60,60,cs),
(60,41,o),
(66,24,o),
(78,9,c),
(87,8,o),
(97,7,o),
(108,4,cs),
(119,1,o),
(126,0,o),
(131,0,cs),
(143,0,o),
(156,4,o),
(171,13,c),
(174,18,o),
(178,26,o),
(183,36,cs),
(188,45,o),
(190,53,o),
(191,60,cs),
(206,123,o),
(218,158,o),
(228,163,cs),
(237,168,o),
(250,170,o),
(267,170,cs),
(313,170,ls),
(319,170,o),
(326,171,o),
(334,173,cs),
(341,175,o),
(348,176,o),
(353,177,cs),
(359,178,o),
(367,179,o),
(376,181,cs),
(385,183,o),
(391,184,o),
(396,184,cs),
(413,184,o),
(425,175,o),
(430,148,cs),
(451,37,o),
(481,-19,o),
(520,-19,cs)
);
},
{
closed = 1;
nodes = (
(313,259,o),
(286,263,o),
(257,270,c),
(288,363,o),
(311,427,o),
(328,463,cs),
(345,499,o),
(359,523,o),
(372,536,c),
(377,523,o),
(383,490,o),
(390,436,cs),
(397,382,o),
(402,351,o),
(403,342,cs),
(409,299,ls),
(414,274,o),
(384,259,o),
(337,259,cs)
);
}
);
userData = {
assembly = "NPUSHB[ ]	/* 20 values pushed */
130 82 2 9 6 134 1 12 8 107 1 11 3 32 2 2 0 10 4 76 
MPPEM[ ]	/* MeasurePixelPerEm */
PUSHB[ ]	/* 1 value pushed */
21 
LT[ ]	/* LessThan */
IF[ ]	/* If */
NPUSHB[ ]	/* 72 values pushed */
0 7 5 7 133 0 5 6 5 133 0 9 6 8 6 9 8 128 0 8 12 6 8 12 126 0 2 12 3 12 2 3 128 13 1 11 3 10 3 11 10 128 0 12 0 3 11 12 3 105 0 6 6 36 77 0 10 10 0 98 4 1 0 0 40 77 0 1 1 31 1 78 
ELSE[ ]	/* Else */
MPPEM[ ]	/* MeasurePixelPerEm */
PUSHB[ ]	/* 1 value pushed */
44 
LT[ ]	/* LessThan */
IF[ ]	/* If */
NPUSHB[ ]	/* 67 values pushed */
0 7 5 7 133 0 5 6 5 133 0 6 9 6 133 0 9 8 9 133 0 8 12 8 133 0 2 12 3 12 2 3 128 13 1 11 3 10 3 11 10 128 0 12 0 3 11 12 3 105 0 10 10 0 98 4 1 0 0 40 77 0 1 1 31 1 78 
ELSE[ ]	/* Else */
NPUSHB[ ]	/* 65 values pushed */
0 7 5 7 133 0 5 6 5 133 0 6 9 6 133 0 9 8 9 133 0 8 12 8 133 0 2 12 3 12 2 3 128 13 1 11 3 10 3 11 10 128 0 12 0 3 11 12 3 105 0 10 4 1 0 1 10 0 106 0 1 1 31 1 78 
EIF[ ]	/* EndIf */
EIF[ ]	/* EndIf */
NPUSHB[ ]	/* 25 values pushed */
0 0 124 122 0 121 0 118 113 111 93 91 89 87 40 34 45 23 53 19 35 42 14 8 30 
CALL[ ]	/* CallFunction */";
};
width = 1023;
}
);
note = AE;
unicode = 198;
},
{
glyphname = AEacute;
lastChange = "2022-09-29 08:18:29 +0000";
layers = (
{
layerId = "D6A4831D-747C-4592-93C0-305F4CD57904";
shapes = (
{
closed = 1;
nodes = (
(525,-19,o),
(531,-18,o),
(537,-16,cs),
(573,-4,o),
(600,-3,o),
(661,0,cs),
(686,0,o),
(709,1,o),
(729,4,cs),
(742,6,o),
(763,8,o),
(790,11,cs),
(844,18,o),
(885,23,o),
(912,28,cs),
(945,32,o),
(966,41,o),
(973,72,c),
(958,103,o),
(933,113,o),
(897,113,cs),
(871,113,ls),
(862,113,o),
(815,112,o),
(784,107,cs),
(769,105,o),
(745,101,o),
(714,94,cs),
(666,85,o),
(634,78,o),
(601,78,cs),
(582,78,o),
(566,80,o),
(552,83,cs),
(547,84,o),
(536,155,o),
(537,164,cs),
(538,176,o),
(546,191,o),
(554,195,cs),
(558,197,o),
(609,206,o),
(707,221,cs),
(822,239,o),
(885,250,o),
(896,253,cs),
(904,256,o),
(915,275,o),
(912,284,c),
(911,295,o),
(901,307,o),
(889,314,c),
(884,318,o),
(877,320,o),
(866,320,cs),
(859,320,l),
(806,316,ls),
(699,308,o),
(623,304,o),
(580,304,cs),
(551,304,o),
(530,305,o),
(517,308,c),
(498,377,o),
(488,444,o),
(488,511,cs),
(488,523,o),
(489,540,o),
(490,562,c),
(525,577,ls),
(566,594,o),
(598,608,o),
(623,619,cs),
(642,626,o),
(679,637,o),
(734,650,cs),
(771,659,l),
(796,664,ls),
(813,667,o),
(824,670,o),
(831,673,cs),
(840,678,o),
(853,691,o),
(853,702,cs),
(854,713,o),
(844,726,o),
(835,734,cs),
(816,748,o),
(794,755,o),
(769,755,cs),
(760,755,o),
(745,754,o),
(726,751,cs),
(705,748,o),
(687,744,o),
(672,741,cs),
(633,733,ls),
(616,729,o),
(590,724,o),
(555,718,cs),
(544,715,o),
(501,704,o),
(470,704,cs),
(460,704,o),
(448,706,o),
(434,709,c),
(427,712,o),
(418,713,o),
(409,713,cs),
(379,713,o),
(354,695,o),
(334,659,cs),
(250,511,o),
(191,379,o),
(96,160,cs),
(70,100,ls),
(63,84,o),
(60,71,o),
(60,60,cs),
(60,41,o),
(66,24,o),
(78,9,c),
(87,8,o),
(97,7,o),
(108,4,cs),
(119,1,o),
(126,0,o),
(131,0,cs),
(143,0,o),
(156,4,o),
(171,13,c),
(174,18,o),
(178,26,o),
(183,36,cs),
(188,45,o),
(190,53,o),
(191,60,cs),
(206,123,o),
(218,158,o),
(228,163,cs),
(237,168,o),
(250,170,o),
(267,170,cs),
(313,170,ls),
(319,170,o),
(326,171,o),
(334,173,cs),
(341,175,o),
(348,176,o),
(353,177,cs),
(359,178,o),
(367,179,o),
(376,181,cs),
(385,183,o),
(391,184,o),
(396,184,cs),
(413,184,o),
(425,175,o),
(430,148,cs),
(451,37,o),
(481,-19,o),
(520,-19,cs)
);
},
{
closed = 1;
nodes = (
(313,259,o),
(286,263,o),
(257,270,c),
(288,363,o),
(311,427,o),
(328,463,cs),
(345,499,o),
(359,523,o),
(372,536,c),
(377,523,o),
(383,490,o),
(390,436,cs),
(397,382,o),
(402,351,o),
(403,342,cs),
(409,299,ls),
(413,274,o),
(384,259,o),
(337,259,cs)
);
},
{
closed = 1;
nodes = (
(443,763,o),
(461,763,o),
(482,772,c),
(532,789,o),
(587,811,o),
(646,840,cs),
(659,847,o),
(669,857,o),
(676,872,c),
(683,874,o),
(686,884,o),
(683,901,cs),
(680,912,o),
(672,922,o),
(663,926,cs),
(656,929,o),
(650,930,o),
(643,927,cs),
(622,920,o),
(607,912,o),
(597,902,cs),
(560,863,o),
(512,838,o),
(455,827,c),
(424,814,o),
(427,815,o),
(411,783,c),
(416,778,o),
(422,773,o),
(428,770,cs)
);
}
);
width = 1023;
}
);
unicode = 508;
},
{
glyphname = AEmacron;
lastChange = "2022-09-29 08:18:29 +0000";
layers = (
{
layerId = "D6A4831D-747C-4592-93C0-305F4CD57904";
shapes = (
{
closed = 1;
nodes = (
(525,-19,o),
(531,-18,o),
(537,-16,cs),
(573,-4,o),
(600,-3,o),
(661,0,cs),
(686,0,o),
(709,1,o),
(729,4,cs),
(742,6,o),
(763,8,o),
(790,11,cs),
(844,18,o),
(885,23,o),
(912,28,cs),
(945,32,o),
(966,41,o),
(973,72,c),
(958,103,o),
(933,113,o),
(897,113,cs),
(871,113,ls),
(862,113,o),
(815,112,o),
(784,107,cs),
(769,105,o),
(745,101,o),
(714,94,cs),
(666,85,o),
(634,78,o),
(601,78,cs),
(582,78,o),
(566,80,o),
(552,83,cs),
(547,84,o),
(536,155,o),
(537,164,cs),
(538,176,o),
(546,191,o),
(554,195,cs),
(558,197,o),
(609,206,o),
(707,221,cs),
(822,239,o),
(885,250,o),
(896,253,cs),
(904,256,o),
(915,275,o),
(912,284,c),
(911,295,o),
(901,307,o),
(889,314,c),
(884,318,o),
(877,320,o),
(866,320,cs),
(859,320,l),
(806,316,ls),
(699,308,o),
(623,304,o),
(580,304,cs),
(551,304,o),
(530,305,o),
(517,308,c),
(498,377,o),
(488,444,o),
(488,511,cs),
(488,523,o),
(489,540,o),
(490,562,c),
(525,577,ls),
(565,596,o),
(598,610,o),
(623,619,cs),
(642,626,o),
(679,636,o),
(734,650,cs),
(771,659,l),
(796,664,ls),
(813,667,o),
(824,670,o),
(831,673,cs),
(840,678,o),
(853,691,o),
(853,702,cs),
(854,713,o),
(844,726,o),
(835,734,cs),
(816,748,o),
(794,755,o),
(769,755,cs),
(760,755,o),
(745,754,o),
(726,751,cs),
(705,748,o),
(687,744,o),
(672,741,cs),
(633,733,ls),
(616,729,o),
(590,724,o),
(555,718,cs),
(544,715,o),
(501,704,o),
(470,704,cs),
(460,704,o),
(448,706,o),
(434,709,c),
(427,712,o),
(418,713,o),
(409,713,cs),
(379,713,o),
(354,695,o),
(334,659,cs),
(250,511,o),
(191,379,o),
(96,160,cs),
(70,100,ls),
(63,84,o),
(60,71,o),
(60,60,cs),
(60,41,o),
(66,24,o),
(78,9,c),
(87,8,o),
(97,7,o),
(108,4,cs),
(119,1,o),
(126,0,o),
(131,0,cs),
(143,0,o),
(156,4,o),
(171,13,c),
(174,18,o),
(178,26,o),
(183,36,cs),
(188,45,o),
(190,53,o),
(191,60,cs),
(206,123,o),
(218,158,o),
(228,163,cs),
(237,168,o),
(250,170,o),
(267,170,cs),
(313,170,ls),
(319,170,o),
(326,171,o),
(334,173,cs),
(341,175,o),
(348,176,o),
(353,177,cs),
(359,178,o),
(367,179,o),
(376,181,cs),
(385,183,o),
(391,184,o),
(396,184,cs),
(413,184,o),
(425,175,o),
(430,148,cs),
(451,37,o),
(481,-19,o),
(520,-19,cs)
);
},
{
closed = 1;
nodes = (
(313,259,o),
(286,263,o),
(257,270,c),
(288,363,o),
(311,427,o),
(328,463,cs),
(345,499,o),
(359,523,o),
(372,536,c),
(377,523,o),
(383,490,o),
(390,436,cs),
(397,382,o),
(402,351,o),
(403,342,cs),
(409,299,ls),
(414,274,o),
(384,259,o),
(337,259,cs)
);
},
{
closed = 1;
nodes = (
(437,796,o),
(498,797,o),
(581,795,c),
(590,796,o),
(618,796,o),
(663,795,cs),
(708,794,o),
(748,796,o),
(785,799,c),
(798,802,o),
(808,804,o),
(814,805,cs),
(846,813,o),
(855,826,o),
(838,841,c),
(834,843,o),
(829,846,o),
(823,850,c),
(796,859,o),
(782,867,o),
(746,867,cs),
(722,866,o),
(684,867,o),
(631,871,cs),
(577,875,l),
(571,874,o),
(560,875,o),
(545,878,cs),
(529,881,o),
(517,882,o),
(508,882,cs),
(337,877,o),
(267,857,o),
(298,821,c),
(323,800,o),
(356,790,o),
(398,793,cs)
);
}
);
width = 1023;
}
);
unicode = 482;
},
{
glyphname = B;
lastChange = "2022-09-29 08:35:11 +0000";
layers = (
{
anchors = (
{
name = bottom;
pos = (320,0);
},
{
name = center;
pos = (320,351);
},
{
name = top;
pos = (320,702);
}
);
layerId = "D6A4831D-747C-4592-93C0-305F4CD57904";
shapes = (
{
closed = 1;
nodes = (
(320,-55,o),
(342,-49,o),
(365,-38,cs),
(457,8,o),
(524,69,o),
(565,146,cs),
(582,177,o),
(590,209,o),
(590,241,cs),
(590,306,o),
(555,364,o),
(484,391,cs),
(477,394,o),
(466,400,o),
(449,410,c),
(467,440,o),
(478,458,o),
(481,465,cs),
(488,478,o),
(493,489,o),
(498,500,cs),
(508,520,ls),
(515,537,o),
(519,553,o),
(519,570,cs),
(519,610,o),
(499,647,o),
(464,668,cs),
(431,689,o),
(389,700,o),
(340,700,cs),
(329,700,o),
(314,699,o),
(294,698,cs),
(207,690,o),
(142,645,o),
(110,568,cs),
(89,517,o),
(75,462,o),
(68,403,cs),
(63,363,o),
(60,318,o),
(60,267,cs),
(60,214,o),
(62,174,o),
(63,147,cs),
(64,126,o),
(66,94,o),
(66,51,cs),
(66,23,o),
(78,-2,o),
(102,-24,cs),
(111,-33,o),
(120,-37,o),
(131,-37,cs),
(143,-37,o),
(153,-31,o),
(161,-19,cs),
(163,-16,o),
(165,-12,o),
(167,-6,cs),
(168,-1,o),
(170,4,o),
(171,8,c),
(186,-3,o),
(198,-12,o),
(209,-21,cs),
(236,-44,o),
(266,-55,o),
(298,-55,cs)
);
},
{
closed = 1;
nodes = (
(243,46,ls),
(237,53,o),
(231,59,o),
(225,62,cs),
(218,66,o),
(209,69,o),
(196,70,cs),
(187,71,o),
(180,73,o),
(176,74,c),
(172,107,ls),
(165,163,o),
(162,200,o),
(161,218,cs),
(160,241,o),
(158,257,o),
(157,267,cs),
(154,300,o),
(153,326,o),
(153,343,cs),
(153,375,o),
(157,404,o),
(165,430,c),
(198,509,o),
(224,558,o),
(243,577,cs),
(262,596,o),
(285,610,o),
(314,619,cs),
(327,624,o),
(342,626,o),
(357,626,cs),
(375,626,o),
(394,622,o),
(414,613,c),
(411,591,ls),
(408,571,o),
(405,557,o),
(402,548,cs),
(369,470,o),
(321,414,o),
(256,379,cs),
(243,372,o),
(225,359,o),
(201,342,cs),
(178,326,l),
(190,298,o),
(207,283,o),
(232,268,cs),
(243,262,o),
(253,259,o),
(263,259,cs),
(279,259,o),
(295,266,o),
(311,280,cs),
(342,309,o),
(373,328,o),
(403,337,cs),
(412,340,o),
(421,341,o),
(431,341,cs),
(464,341,o),
(485,322,o),
(485,286,cs),
(485,278,o),
(484,269,o),
(482,259,cs),
(477,234,o),
(464,205,o),
(443,173,cs),
(388,94,o),
(337,44,o),
(257,28,c)
);
}
);
userData = {
assembly = "NPUSHB[ ]	/* 16 values pushed */
53 1 2 4 3 98 1 5 4 77 16 2 1 5 3 76 
MPPEM[ ]	/* MeasurePixelPerEm */
PUSHB[ ]	/* 1 value pushed */
21 
LT[ ]	/* LessThan */
IF[ ]	/* If */
NPUSHB[ ]	/* 36 values pushed */
0 4 3 5 3 4 5 128 0 5 1 3 5 1 126 0 0 1 0 134 0 3 3 2 97 0 2 2 36 77 0 1 1 31 1 78 
ELSE[ ]	/* Else */
MPPEM[ ]	/* MeasurePixelPerEm */
PUSHB[ ]	/* 1 value pushed */
26 
LT[ ]	/* LessThan */
IF[ ]	/* If */
NPUSHB[ ]	/* 34 values pushed */
0 4 3 5 3 4 5 128 0 5 1 3 5 1 126 0 0 1 0 134 0 2 0 3 4 2 3 105 0 1 1 31 1 78 
ELSE[ ]	/* Else */
NPUSHB[ ]	/* 42 values pushed */
0 4 3 5 3 4 5 128 0 5 1 3 5 1 126 0 1 0 3 1 0 126 0 0 0 132 0 2 3 3 2 89 0 2 2 3 97 0 3 2 3 81 
EIF[ ]	/* EndIf */
EIF[ ]	/* EndIf */
NPUSHB[ ]	/* 13 values pushed */
94 92 88 86 56 54 41 38 39 43 6 8 24 
CALL[ ]	/* CallFunction */";
};
width = 640;
}
);
metricLeft = "=H";
note = B;
unicode = 66;
},
{
glyphname = C;
kernLeft = C;
kernRight = C;
lastChange = "2022-09-29 08:35:11 +0000";
layers = (
{
anchors = (
{
name = bottom;
pos = (362,0);
},
{
name = top;
pos = (362,702);
}
);
layerId = "D6A4831D-747C-4592-93C0-305F4CD57904";
shapes = (
{
closed = 1;
nodes = (
(362,7,o),
(391,9,o),
(421,12,cs),
(455,16,o),
(505,43,o),
(572,92,c),
(606,128,o),
(629,155,o),
(641,172,cs),
(653,189,o),
(660,199,o),
(663,204,cs),
(670,213,o),
(674,223,o),
(674,234,cs),
(674,249,o),
(667,262,o),
(653,272,cs),
(640,281,o),
(630,285,o),
(621,285,cs),
(610,285,o),
(598,278,o),
(581,261,cs),
(561,240,ls),
(536,214,o),
(519,197,o),
(508,190,c),
(423,122,o),
(400,110,o),
(316,99,cs),
(304,97,o),
(293,96,o),
(283,96,cs),
(226,96,o),
(192,124,o),
(179,185,cs),
(173,212,o),
(170,241,o),
(170,270,cs),
(170,352,o),
(198,423,o),
(255,482,cs),
(288,517,o),
(322,535,o),
(356,535,cs),
(374,535,o),
(393,530,o),
(412,519,cs),
(416,516,o),
(419,515,o),
(421,515,cs),
(425,514,o),
(431,514,o),
(438,514,cs),
(457,514,o),
(469,524,o),
(469,544,cs),
(469,547,o),
(468,552,o),
(467,560,c),
(452,613,o),
(368,648,o),
(288,637,c),
(201,608,o),
(137,557,o),
(96,482,cs),
(59,415,o),
(47,346,o),
(50,324,c),
(49,180,o),
(81,23,o),
(333,7,c)
);
}
);
userData = {
assembly = "PUSHB[ ]	/* 6 values pushed */
61 1 3 4 1 76 
MPPEM[ ]	/* MeasurePixelPerEm */
PUSHB[ ]	/* 1 value pushed */
21 
LT[ ]	/* LessThan */
IF[ ]	/* If */
NPUSHB[ ]	/* 36 values pushed */
0 1 2 4 2 1 4 128 0 4 3 2 4 3 126 0 2 2 0 97 0 0 0 36 77 0 3 3 5 97 0 5 5 40 5 78 
ELSE[ ]	/* Else */
MPPEM[ ]	/* MeasurePixelPerEm */
PUSHB[ ]	/* 1 value pushed */
44 
LT[ ]	/* LessThan */
IF[ ]	/* If */
NPUSHB[ ]	/* 34 values pushed */
0 1 2 4 2 1 4 128 0 4 3 2 4 3 126 0 0 0 2 1 0 2 105 0 3 3 5 97 0 5 5 40 5 78 
ELSE[ ]	/* Else */
NPUSHB[ ]	/* 39 values pushed */
0 1 2 4 2 1 4 128 0 4 3 2 4 3 126 0 0 0 2 1 0 2 105 0 3 5 5 3 89 0 3 3 5 97 0 5 3 5 81 
EIF[ ]	/* EndIf */
EIF[ ]	/* EndIf */
NPUSHB[ ]	/* 9 values pushed */
44 41 39 36 38 39 6 8 28 
CALL[ ]	/* CallFunction */";
};
width = 724;
}
);
metricLeft = "=O";
note = C;
unicode = 67;
},
{
glyphname = Cacute;
lastChange = "2022-09-29 08:18:29 +0000";
layers = (
{
layerId = "D6A4831D-747C-4592-93C0-305F4CD57904";
shapes = (
{
closed = 1;
nodes = (
(357,1,o),
(387,5,o),
(416,12,cs),
(450,20,o),
(500,47,o),
(567,92,c),
(601,128,o),
(624,155,o),
(636,172,cs),
(648,189,o),
(655,199,o),
(658,204,cs),
(665,213,o),
(669,223,o),
(669,234,cs),
(669,249,o),
(662,262,o),
(648,272,cs),
(635,281,o),
(625,285,o),
(616,285,cs),
(605,285,o),
(593,278,o),
(576,261,cs),
(556,240,ls),
(531,214,o),
(514,197,o),
(503,190,c),
(418,122,o),
(395,110,o),
(311,99,cs),
(299,97,o),
(288,96,o),
(278,96,cs),
(221,96,o),
(187,124,o),
(174,185,cs),
(168,212,o),
(165,241,o),
(165,270,cs),
(165,352,o),
(193,423,o),
(250,482,cs),
(283,517,o),
(317,535,o),
(351,535,cs),
(369,535,o),
(388,530,o),
(407,519,cs),
(411,516,o),
(414,515,o),
(416,515,cs),
(420,514,o),
(426,514,o),
(433,514,cs),
(452,514,o),
(464,524,o),
(464,544,cs),
(464,547,o),
(463,552,o),
(462,560,c),
(447,613,o),
(383,663,o),
(326,663,c),
(229,628,o),
(166,596,o),
(138,569,cs),
(110,542,o),
(91,514,o),
(81,487,cs),
(61,428,o),
(50,382,o),
(50,330,cs),
(50,319,o),
(50,312,o),
(51,307,c),
(51,287,l),
(98,150,o),
(143,68,o),
(185,41,cs),
(226,14,o),
(274,0,o),
(328,0,cs)
);
},
{
closed = 1;
nodes = (
(192,690,o),
(211,690,o),
(232,698,cs),
(285,715,o),
(341,739,o),
(401,769,cs),
(414,776,o),
(425,786,o),
(432,801,cs),
(439,818,o),
(441,835,o),
(438,852,cs),
(435,864,o),
(427,874,o),
(419,878,cs),
(412,881,o),
(404,882,o),
(397,879,c),
(376,873,o),
(360,865,o),
(350,854,cs),
(312,813,o),
(264,780,o),
(205,755,cs),
(174,743,o),
(176,743,o),
(159,710,c),
(165,704,o),
(171,700,o),
(177,697,cs)
);
}
);
width = 719;
}
);
metricLeft = "=O";
unicode = 262;
},
{
glyphname = Ccaron;
lastChange = "2022-09-29 08:18:29 +0000";
layers = (
{
layerId = "D6A4831D-747C-4592-93C0-305F4CD57904";
shapes = (
{
closed = 1;
nodes = (
(357,1,o),
(387,5,o),
(416,12,cs),
(450,20,o),
(500,47,o),
(567,92,c),
(601,128,o),
(624,155,o),
(636,172,cs),
(648,189,o),
(655,199,o),
(658,204,cs),
(665,213,o),
(669,223,o),
(669,234,cs),
(669,249,o),
(662,262,o),
(648,272,cs),
(635,281,o),
(625,285,o),
(616,285,cs),
(605,285,o),
(593,278,o),
(576,261,cs),
(556,240,ls),
(531,214,o),
(514,197,o),
(503,190,c),
(418,122,o),
(395,110,o),
(311,99,cs),
(299,97,o),
(288,96,o),
(278,96,cs),
(221,96,o),
(187,124,o),
(174,185,cs),
(168,212,o),
(165,241,o),
(165,270,cs),
(165,352,o),
(193,423,o),
(250,482,cs),
(283,517,o),
(317,535,o),
(351,535,cs),
(369,535,o),
(388,530,o),
(407,519,cs),
(411,516,o),
(414,515,o),
(416,515,cs),
(420,514,o),
(426,514,o),
(433,514,cs),
(452,514,o),
(464,524,o),
(464,544,cs),
(464,547,o),
(463,552,o),
(462,560,c),
(447,613,o),
(383,663,o),
(326,663,c),
(229,628,o),
(166,596,o),
(138,569,cs),
(110,542,o),
(91,514,o),
(81,487,cs),
(61,428,o),
(50,382,o),
(50,330,cs),
(50,319,o),
(50,312,o),
(51,307,c),
(51,287,l),
(98,150,o),
(143,68,o),
(185,41,cs),
(226,14,o),
(274,0,o),
(328,0,cs)
);
},
{
closed = 1;
nodes = (
(286,702,o),
(301,708,o),
(316,721,cs),
(351,750,o),
(390,783,o),
(433,822,cs),
(440,828,o),
(443,835,o),
(443,843,cs),
(443,852,o),
(439,860,o),
(430,865,cs),
(419,871,o),
(408,874,o),
(395,874,cs),
(374,873,o),
(355,864,o),
(340,849,cs),
(329,837,o),
(310,818,o),
(283,792,c),
(273,802,o),
(266,809,o),
(263,813,cs),
(247,831,l),
(236,840,o),
(224,845,o),
(213,845,cs),
(193,845,o),
(179,836,o),
(179,821,cs),
(179,819,o),
(180,816,o),
(181,812,cs),
(188,795,o),
(197,773,o),
(209,746,cs),
(224,718,o),
(246,702,o),
(269,702,cs)
);
}
);
width = 719;
}
);
metricLeft = "=O";
unicode = 268;
},
{
glyphname = Ccedilla;
lastChange = "2022-09-29 08:18:29 +0000";
layers = (
{
layerId = "D6A4831D-747C-4592-93C0-305F4CD57904";
shapes = (
{
closed = 1;
nodes = (
(375,-274,o),
(393,-269,o),
(409,-260,cs),
(461,-229,o),
(500,-179,o),
(500,-118,cs),
(500,-103,o),
(498,-88,o),
(493,-73,cs),
(489,-60,o),
(480,-37,o),
(467,-4,cs),
(462,7,o),
(455,23,o),
(448,40,c),
(487,59,ls),
(515,71,o),
(542,84,o),
(568,98,cs),
(591,109,o),
(604,127,o),
(609,150,cs),
(613,173,o),
(599,191,o),
(580,191,cs),
(578,191,o),
(574,190,o),
(569,189,cs),
(559,186,o),
(547,181,o),
(532,174,cs),
(507,162,l),
(443,137,o),
(393,121,o),
(338,121,cs),
(275,121,o),
(231,145,o),
(207,194,cs),
(173,266,o),
(156,341,o),
(156,419,cs),
(156,454,o),
(160,490,o),
(167,529,cs),
(178,586,o),
(254,617,o),
(337,617,cs),
(361,617,o),
(381,615,o),
(398,610,cs),
(417,604,ls),
(427,600,o),
(436,598,o),
(444,598,cs),
(455,598,o),
(471,609,o),
(479,621,cs),
(481,624,o),
(482,628,o),
(482,631,cs),
(482,636,o),
(481,644,o),
(478,653,cs),
(476,658,o),
(471,664,o),
(462,672,cs),
(433,703,o),
(360,720,o),
(287,720,cs),
(219,720,o),
(160,705,o),
(135,676,cs),
(98,635,o),
(77,596,o),
(71,557,cs),
(64,516,o),
(60,476,o),
(60,439,cs),
(60,347,o),
(80,262,o),
(119,183,cs),
(139,142,o),
(160,116,o),
(183,104,cs),
(211,89,o),
(229,74,o),
(265,39,cs),
(290,16,o),
(311,-2,o),
(329,-13,cs),
(360,-34,o),
(376,-61,o),
(376,-94,cs),
(376,-116,o),
(369,-139,o),
(354,-163,cs),
(349,-171,o),
(343,-179,o),
(336,-186,cs),
(328,-193,o),
(323,-198,o),
(320,-201,cs),
(317,-205,o),
(312,-209,o),
(307,-213,cs),
(302,-218,o),
(298,-222,o),
(296,-225,cs),
(293,-228,o),
(291,-233,o),
(291,-240,cs),
(291,-252,o),
(297,-264,o),
(309,-267,cs),
(324,-272,o),
(339,-274,o),
(356,-274,cs)
);
}
);
userData = {
assembly = "NPUSHB[ ]	/* 59 values pushed */
9 1 1 5 1 76 0 3 4 0 4 3 0 128 0 0 5 4 0 5 126 0 2 0 4 3 2 4 105 0 5 1 1 5 89 0 5 5 1 97 0 1 5 1 81 81 79 72 70 67 65 55 53 22 20 32 6 8 23 
CALL[ ]	/* CallFunction */";
};
width = 660;
}
);
note = Ccedilla;
unicode = 199;
},
{
glyphname = Cdotaccent;
lastChange = "2022-09-29 08:18:29 +0000";
layers = (
{
layerId = "D6A4831D-747C-4592-93C0-305F4CD57904";
shapes = (
{
closed = 1;
nodes = (
(362,7,o),
(391,9,o),
(421,12,cs),
(455,16,o),
(505,43,o),
(572,92,c),
(606,128,o),
(629,155,o),
(641,172,cs),
(653,189,o),
(660,199,o),
(663,204,cs),
(670,213,o),
(674,223,o),
(674,234,cs),
(674,249,o),
(667,262,o),
(653,272,cs),
(640,281,o),
(630,285,o),
(621,285,cs),
(610,285,o),
(598,278,o),
(581,261,cs),
(561,240,ls),
(536,214,o),
(519,197,o),
(508,190,c),
(423,122,o),
(400,110,o),
(316,99,cs),
(304,97,o),
(293,96,o),
(283,96,cs),
(226,96,o),
(192,124,o),
(179,185,cs),
(173,212,o),
(170,241,o),
(170,270,cs),
(170,352,o),
(198,423,o),
(255,482,cs),
(288,517,o),
(322,535,o),
(356,535,cs),
(374,535,o),
(393,530,o),
(412,519,cs),
(416,516,o),
(419,515,o),
(421,515,cs),
(425,514,o),
(431,514,o),
(438,514,cs),
(457,514,o),
(469,524,o),
(469,544,cs),
(469,547,o),
(468,552,o),
(467,560,c),
(452,613,o),
(368,648,o),
(288,637,c),
(201,608,o),
(137,557,o),
(96,482,cs),
(59,415,o),
(47,346,o),
(50,324,c),
(49,180,o),
(81,23,o),
(333,7,c)
);
},
{
closed = 1;
nodes = (
(345,711,l),
(374,722,o),
(392,733,o),
(398,743,cs),
(403,753,o),
(406,764,o),
(406,776,cs),
(406,808,o),
(387,827,o),
(364,827,cs),
(332,827,o),
(302,803,o),
(287,770,c),
(287,763,o),
(289,750,o),
(290,745,c),
(299,726,o),
(315,715,o),
(339,711,c)
);
}
);
width = 684;
}
);
metricLeft = "=O";
unicode = 266;
},
{
glyphname = D;
kernRight = D;
lastChange = "2022-09-29 08:35:11 +0000";
layers = (
{
anchors = (
{
name = bottom;
pos = (380,0);
},
{
name = center;
pos = (380,351);
},
{
name = top;
pos = (380,702);
}
);
layerId = "D6A4831D-747C-4592-93C0-305F4CD57904";
shapes = (
{
closed = 1;
nodes = (
(221,-48,o),
(244,-42,o),
(267,-31,cs),
(328,-2,o),
(384,34,o),
(435,79,cs),
(518,151,o),
(599,249,o),
(678,374,cs),
(699,407,o),
(709,440,o),
(709,471,cs),
(709,508,o),
(695,544,o),
(668,579,cs),
(649,602,o),
(626,621,o),
(599,638,cs),
(520,689,o),
(434,713,o),
(315,734,cs),
(294,738,o),
(274,740,o),
(254,740,cs),
(233,740,o),
(214,738,o),
(196,733,cs),
(161,725,o),
(139,714,o),
(134,678,c),
(140,673,o),
(149,666,o),
(161,655,cs),
(186,633,l),
(182,615,l),
(173,503,o),
(155,415,o),
(115,242,cs),
(110,220,ls),
(103,190,o),
(96,144,o),
(88,83,cs),
(81,31,l),
(80,22,ls),
(80,3,o),
(91,-10,o),
(111,-23,cs),
(138,-40,o),
(167,-48,o),
(196,-48,cs)
);
},
{
closed = 1;
nodes = (
(200,42,o),
(197,43,o),
(191,46,c),
(191,54,o),
(191,75,o),
(195,90,cs),
(207,146,o),
(221,207,o),
(237,272,cs),
(273,416,ls),
(288,473,o),
(299,520,o),
(308,559,cs),
(309,566,o),
(310,570,o),
(310,573,cs),
(310,596,o),
(296,613,o),
(264,640,c),
(286,643,ls),
(299,645,o),
(310,646,o),
(318,645,cs),
(395,634,o),
(466,613,o),
(533,583,cs),
(569,566,o),
(591,530,o),
(591,489,cs),
(591,477,o),
(590,467,o),
(587,458,cs),
(567,386,o),
(527,324,o),
(470,251,cs),
(399,164,o),
(314,96,o),
(214,47,c),
(201,42,l)
);
}
);
userData = {
assembly = "NPUSHB[ ]	/* 24 values pushed */
45 42 39 30 3 5 1 0 1 76 0 0 1 0 133 0 1 1 118 47 39 2 8 24 
CALL[ ]	/* CallFunction */";
};
width = 759;
}
);
metricRight = "=O";
note = D;
unicode = 68;
},
{
glyphname = Eth;
kernLeft = D;
kernRight = D;
lastChange = "2022-09-29 08:18:29 +0000";
layers = (
{
layerId = "D6A4831D-747C-4592-93C0-305F4CD57904";
shapes = (
{
closed = 1;
nodes = (
(384,-27,o),
(393,-25,o),
(403,-21,cs),
(416,-16,o),
(432,-7,o),
(451,6,cs),
(535,63,o),
(616,140,o),
(694,235,cs),
(723,272,o),
(751,320,o),
(776,379,cs),
(785,403,o),
(790,426,o),
(790,448,cs),
(790,497,o),
(767,542,o),
(720,577,cs),
(684,602,o),
(648,620,o),
(613,630,cs),
(512,658,o),
(421,674,o),
(339,679,cs),
(314,680,o),
(296,681,o),
(283,681,cs),
(248,681,o),
(215,679,o),
(182,675,cs),
(145,670,o),
(123,640,o),
(123,608,c),
(134,595,o),
(143,583,o),
(152,573,c),
(167,492,o),
(176,440,o),
(179,417,cs),
(182,393,o),
(183,374,o),
(180,359,c),
(167,356,o),
(154,353,o),
(143,350,cs),
(132,347,o),
(120,344,o),
(100,341,cs),
(73,336,o),
(60,325,o),
(60,308,cs),
(60,292,o),
(68,274,o),
(80,262,cs),
(89,252,o),
(105,243,o),
(128,236,cs),
(165,226,ls),
(178,223,o),
(187,221,o),
(193,219,c),
(199,189,ls),
(201,177,o),
(204,160,o),
(209,137,c),
(210,135,o),
(211,128,o),
(214,116,cs),
(216,104,o),
(220,94,o),
(225,85,cs),
(239,61,o),
(257,49,o),
(280,49,cs),
(309,49,o),
(325,74,o),
(325,115,cs),
(324,159,ls),
(324,171,o),
(323,186,o),
(321,204,cs),
(318,222,o),
(317,234,o),
(318,241,c),
(333,241,o),
(352,243,o),
(373,246,cs),
(394,249,o),
(416,252,o),
(439,254,cs),
(444,254,o),
(453,255,o),
(464,256,cs),
(507,260,o),
(540,279,o),
(565,314,c),
(529,338,o),
(491,341,o),
(435,341,cs),
(383,342,o),
(326,341,o),
(297,356,c),
(292,391,o),
(290,421,o),
(291,447,cs),
(292,472,o),
(292,496,o),
(292,518,cs),
(292,532,o),
(296,542,o),
(304,549,c),
(308,551,o),
(313,554,o),
(318,558,cs),
(323,561,o),
(328,563,o),
(332,563,cs),
(365,564,ls),
(454,564,o),
(531,551,o),
(596,526,cs),
(641,509,o),
(664,474,o),
(664,429,cs),
(664,418,o),
(663,408,o),
(661,398,cs),
(655,372,o),
(647,352,o),
(638,338,cs),
(547,193,o),
(476,102,o),
(364,42,cs),
(355,37,o),
(345,31,o),
(334,23,cs),
(323,15,o),
(315,9,o),
(310,6,c),
(342,-18,o),
(357,-27,o),
(376,-27,cs)
);
}
);
userData = {
assembly = "NPUSHB[ ]	/* 10 values pushed */
45 1 3 2 15 1 0 4 2 76 
MPPEM[ ]	/* MeasurePixelPerEm */
PUSHB[ ]	/* 1 value pushed */
21 
LT[ ]	/* LessThan */
IF[ ]	/* If */
NPUSHB[ ]	/* 32 values pushed */
0 4 3 0 3 4 0 128 0 2 0 3 4 2 3 105 0 1 1 5 97 0 5 5 36 77 0 0 0 31 0 78 
ELSE[ ]	/* Else */
NPUSHB[ ]	/* 30 values pushed */
0 4 3 0 3 4 0 128 0 5 0 1 2 5 1 105 0 2 0 3 4 2 3 105 0 0 0 31 0 78 
EIF[ ]	/* EndIf */
NPUSHB[ ]	/* 14 values pushed */
97 93 60 58 49 48 43 41 31 29 43 6 8 23 
CALL[ ]	/* CallFunction */";
};
width = 840;
}
);
metricLeft = "=H";
metricRight = "=O";
note = Eth;
unicode = 208;
},
{
glyphname = Dcaron;
kernLeft = D;
kernRight = D;
lastChange = "2022-09-29 08:18:29 +0000";
layers = (
{
layerId = "D6A4831D-747C-4592-93C0-305F4CD57904";
shapes = (
{
closed = 1;
nodes = (
(195,-52,o),
(218,-46,o),
(240,-35,cs),
(299,-8,o),
(353,28,o),
(402,71,cs),
(482,140,o),
(560,235,o),
(636,355,cs),
(656,387,o),
(666,418,o),
(666,448,cs),
(666,483,o),
(653,518,o),
(627,552,cs),
(609,574,o),
(587,593,o),
(560,609,cs),
(484,658,o),
(401,681,o),
(286,702,cs),
(267,706,o),
(247,708,o),
(228,708,cs),
(208,708,o),
(189,706,o),
(172,701,cs),
(139,693,o),
(117,683,o),
(112,648,c),
(118,643,o),
(127,636,o),
(138,626,cs),
(155,611,o),
(163,603,o),
(162,604,c),
(158,587,l),
(150,479,o),
(133,395,o),
(94,228,cs),
(89,207,ls),
(82,178,o),
(75,134,o),
(68,75,cs),
(61,24,l),
(60,16,ls),
(60,-3,o),
(70,-15,o),
(90,-28,cs),
(116,-44,o),
(143,-52,o),
(172,-52,cs)
);
},
{
closed = 1;
nodes = (
(176,35,o),
(173,36,o),
(167,39,c),
(167,47,o),
(167,68,o),
(171,81,c),
(182,135,o),
(196,194,o),
(211,257,cs),
(246,395,ls),
(260,450,o),
(271,496,o),
(280,533,cs),
(281,540,o),
(282,544,o),
(282,547,cs),
(282,568,o),
(268,586,o),
(237,611,c),
(258,614,ls),
(271,616,o),
(282,617,o),
(289,616,cs),
(363,605,o),
(432,585,o),
(496,556,cs),
(531,540,o),
(552,506,o),
(552,466,cs),
(552,454,o),
(551,444,o),
(548,436,cs),
(529,367,o),
(491,307,o),
(436,236,cs),
(368,152,o),
(286,87,o),
(189,40,cs),
(177,35,l)
);
},
{
closed = 1;
nodes = (
(364,731,o),
(379,737,o),
(393,749,cs),
(426,776,o),
(463,808,o),
(503,844,cs),
(509,849,o),
(512,856,o),
(512,864,cs),
(512,873,o),
(508,879,o),
(500,884,cs),
(490,890,o),
(479,893,o),
(467,893,cs),
(447,891,o),
(430,883,o),
(416,869,cs),
(405,858,o),
(387,840,o),
(362,816,c),
(353,825,o),
(347,832,o),
(344,835,cs),
(328,852,ls),
(318,861,o),
(307,866,o),
(296,866,cs),
(277,866,o),
(264,856,o),
(264,843,c),
(266,834,l),
(272,818,o),
(281,797,o),
(293,772,cs),
(306,747,o),
(326,731,o),
(349,731,cs)
);
}
);
width = 716;
}
);
metricLeft = "=H";
metricRight = "=O";
unicode = 270;
},
{
glyphname = Dcroat;
kernLeft = D;
kernRight = D;
lastChange = "2022-09-29 08:18:29 +0000";
layers = (
{
layerId = "D6A4831D-747C-4592-93C0-305F4CD57904";
shapes = (
{
closed = 1;
nodes = (
(384,-27,o),
(393,-25,o),
(403,-21,cs),
(416,-16,o),
(432,-7,o),
(451,6,cs),
(535,63,o),
(616,140,o),
(694,235,cs),
(723,272,o),
(751,320,o),
(776,379,cs),
(785,403,o),
(790,426,o),
(790,448,cs),
(790,497,o),
(767,542,o),
(720,577,cs),
(684,602,o),
(648,620,o),
(613,630,cs),
(512,658,o),
(421,674,o),
(339,679,cs),
(314,680,o),
(296,681,o),
(283,681,cs),
(248,681,o),
(215,679,o),
(182,675,cs),
(145,670,o),
(123,640,o),
(123,608,c),
(134,595,o),
(143,583,o),
(152,573,c),
(167,492,o),
(176,440,o),
(179,417,cs),
(182,393,o),
(183,374,o),
(180,359,c),
(167,356,o),
(154,353,o),
(143,350,cs),
(132,347,o),
(120,344,o),
(100,341,cs),
(73,336,o),
(60,325,o),
(60,308,cs),
(60,292,o),
(68,274,o),
(80,262,cs),
(89,252,o),
(105,243,o),
(128,236,cs),
(165,226,ls),
(178,223,o),
(187,221,o),
(193,219,c),
(199,189,ls),
(201,177,o),
(204,160,o),
(209,137,c),
(210,135,o),
(211,128,o),
(214,116,cs),
(216,104,o),
(220,94,o),
(225,85,cs),
(239,61,o),
(257,49,o),
(280,49,cs),
(309,49,o),
(325,74,o),
(325,115,cs),
(324,159,ls),
(324,171,o),
(323,186,o),
(321,204,cs),
(318,222,o),
(317,234,o),
(318,241,c),
(333,241,o),
(352,243,o),
(373,246,cs),
(394,249,o),
(416,252,o),
(439,254,cs),
(444,254,o),
(453,255,o),
(464,256,cs),
(507,260,o),
(540,279,o),
(565,314,c),
(529,338,o),
(491,341,o),
(435,341,cs),
(383,342,o),
(326,341,o),
(297,356,c),
(292,391,o),
(290,421,o),
(291,447,cs),
(292,472,o),
(292,496,o),
(292,518,cs),
(292,532,o),
(296,542,o),
(304,549,c),
(308,551,o),
(313,554,o),
(318,558,cs),
(323,561,o),
(328,563,o),
(332,563,cs),
(365,564,ls),
(454,564,o),
(531,551,o),
(596,526,cs),
(641,509,o),
(664,474,o),
(664,429,cs),
(664,418,o),
(663,408,o),
(661,398,cs),
(655,372,o),
(647,352,o),
(638,338,cs),
(547,193,o),
(476,102,o),
(364,42,cs),
(355,37,o),
(345,31,o),
(334,23,cs),
(323,15,o),
(315,9,o),
(310,6,c),
(342,-18,o),
(357,-27,o),
(376,-27,cs)
);
}
);
width = 840;
}
);
metricLeft = "=H";
metricRight = "=O";
unicode = 272;
},
{
glyphname = Ddotbelow;
lastChange = "2022-09-29 08:18:29 +0000";
layers = (
{
layerId = "D6A4831D-747C-4592-93C0-305F4CD57904";
shapes = (
{
closed = 1;
nodes = (
(221,-48,o),
(244,-42,o),
(267,-31,cs),
(328,-2,o),
(384,34,o),
(435,79,cs),
(518,151,o),
(599,249,o),
(678,374,cs),
(699,407,o),
(709,440,o),
(709,471,cs),
(709,508,o),
(695,544,o),
(668,579,cs),
(649,602,o),
(626,621,o),
(599,638,cs),
(520,689,o),
(434,713,o),
(315,734,cs),
(294,738,o),
(274,740,o),
(254,740,cs),
(233,740,o),
(214,738,o),
(196,733,cs),
(161,725,o),
(139,714,o),
(134,678,c),
(140,673,o),
(149,666,o),
(161,655,cs),
(186,633,l),
(182,615,l),
(173,503,o),
(155,415,o),
(115,242,cs),
(110,220,ls),
(103,190,o),
(96,144,o),
(88,83,cs),
(81,31,l),
(80,22,ls),
(80,3,o),
(91,-10,o),
(111,-23,cs),
(138,-40,o),
(167,-48,o),
(196,-48,cs)
);
},
{
closed = 1;
nodes = (
(200,42,o),
(197,43,o),
(191,46,c),
(191,54,o),
(191,75,o),
(195,90,cs),
(207,146,o),
(221,207,o),
(237,272,cs),
(273,416,ls),
(288,473,o),
(299,520,o),
(308,559,cs),
(309,566,o),
(310,570,o),
(310,573,cs),
(310,596,o),
(296,613,o),
(264,640,c),
(286,643,ls),
(299,645,o),
(310,646,o),
(318,645,cs),
(395,634,o),
(466,613,o),
(533,583,cs),
(569,566,o),
(591,530,o),
(591,489,cs),
(591,477,o),
(590,467,o),
(587,458,cs),
(567,386,o),
(527,324,o),
(470,251,cs),
(399,164,o),
(314,96,o),
(214,47,c),
(201,42,l)
);
},
{
closed = 1;
nodes = (
(257,-196,o),
(270,-188,o),
(283,-179,cs),
(296,-170,o),
(305,-163,o),
(310,-160,cs),
(325,-151,o),
(332,-139,o),
(331,-125,cs),
(330,-111,o),
(324,-99,o),
(311,-90,cs),
(298,-81,o),
(286,-76,o),
(274,-75,cs),
(263,-74,o),
(251,-78,o),
(240,-85,cs),
(157,-141,o),
(220,-213,o),
(245,-201,cs)
);
}
);
width = 759;
}
);
unicode = 7692;
},
{
glyphname = Dmacronbelow;
lastChange = "2022-09-29 08:18:29 +0000";
layers = (
{
layerId = "D6A4831D-747C-4592-93C0-305F4CD57904";
shapes = (
{
closed = 1;
nodes = (
(221,-48,o),
(244,-42,o),
(267,-31,cs),
(328,-2,o),
(384,34,o),
(435,79,cs),
(518,151,o),
(599,249,o),
(678,374,cs),
(699,407,o),
(709,440,o),
(709,471,cs),
(709,508,o),
(695,544,o),
(668,579,cs),
(649,602,o),
(626,621,o),
(599,638,cs),
(520,689,o),
(434,713,o),
(315,734,cs),
(294,738,o),
(274,740,o),
(254,740,cs),
(233,740,o),
(214,738,o),
(196,733,cs),
(161,725,o),
(139,714,o),
(134,678,c),
(140,673,o),
(149,666,o),
(161,655,cs),
(186,633,l),
(182,615,l),
(173,503,o),
(155,415,o),
(115,242,cs),
(110,220,ls),
(103,190,o),
(96,144,o),
(88,83,cs),
(81,31,l),
(80,22,ls),
(80,3,o),
(91,-10,o),
(111,-23,cs),
(138,-40,o),
(167,-48,o),
(196,-48,cs)
);
},
{
closed = 1;
nodes = (
(200,42,o),
(197,43,o),
(191,46,c),
(191,54,o),
(191,75,o),
(195,90,cs),
(207,146,o),
(221,207,o),
(237,272,cs),
(273,416,ls),
(288,473,o),
(299,520,o),
(308,559,cs),
(309,566,o),
(310,570,o),
(310,573,cs),
(310,596,o),
(296,613,o),
(264,640,c),
(286,643,ls),
(299,645,o),
(310,646,o),
(318,645,cs),
(395,634,o),
(466,613,o),
(533,583,cs),
(569,566,o),
(591,530,o),
(591,489,cs),
(591,477,o),
(590,467,o),
(587,458,cs),
(567,386,o),
(527,324,o),
(470,251,cs),
(399,164,o),
(314,96,o),
(214,47,c),
(201,42,l)
);
},
{
closed = 1;
nodes = (
(212,-161,o),
(253,-160,o),
(308,-162,c),
(314,-161,o),
(332,-161,o),
(362,-162,cs),
(392,-163,o),
(419,-161,o),
(444,-158,c),
(463,-152,ls),
(484,-144,o),
(491,-131,o),
(479,-116,c),
(476,-114,o),
(473,-111,o),
(469,-107,c),
(452,-98,o),
(442,-90,o),
(418,-90,cs),
(402,-91,o),
(376,-90,o),
(341,-86,cs),
(305,-82,l),
(301,-83,o),
(294,-82,o),
(284,-79,cs),
(273,-76,o),
(265,-75,o),
(259,-75,cs),
(145,-80,o),
(98,-100,o),
(119,-136,c),
(136,-157,o),
(158,-167,o),
(186,-164,cs)
);
}
);
width = 759;
}
);
unicode = 7694;
},
{
glyphname = E;
lastChange = "2022-09-29 08:35:11 +0000";
layers = (
{
anchors = (
{
name = bottom;
pos = (409,0);
},
{
name = ogonek;
pos = (735,10);
},
{
name = top;
pos = (409,702);
},
{
name = topleft;
pos = (20,702);
}
);
layerId = "D6A4831D-747C-4592-93C0-305F4CD57904";
shapes = (
{
closed = 1;
nodes = (
(505,-25,o),
(530,-24,o),
(552,-21,cs),
(595,-16,o),
(620,-8,o),
(635,24,c),
(615,63,o),
(595,76,o),
(562,76,cs),
(547,75,ls),
(486,71,o),
(435,68,o),
(396,67,cs),
(319,64,o),
(271,116,o),
(271,180,cs),
(271,202,o),
(276,225,o),
(287,248,c),
(357,258,ls),
(410,265,o),
(450,271,o),
(477,275,cs),
(507,280,o),
(535,294,o),
(562,317,cs),
(571,326,o),
(575,334,o),
(575,342,cs),
(575,349,o),
(572,357,o),
(566,366,cs),
(555,383,o),
(539,392,o),
(520,392,cs),
(511,392,o),
(499,389,o),
(485,384,cs),
(435,364,o),
(387,354,o),
(341,354,cs),
(330,354,o),
(322,354,o),
(317,355,c),
(316,360,o),
(314,367,o),
(314,372,c),
(315,376,l),
(366,535,ls),
(373,556,o),
(388,566,o),
(413,566,cs),
(416,566,o),
(421,565,o),
(428,564,cs),
(435,562,o),
(439,561,o),
(442,561,cs),
(479,564,o),
(505,565,o),
(522,566,cs),
(594,569,o),
(648,573,o),
(684,579,cs),
(707,583,o),
(742,590,o),
(787,600,c),
(795,603,o),
(807,612,o),
(807,617,cs),
(807,628,o),
(802,641,o),
(794,645,cs),
(771,656,o),
(753,663,o),
(738,664,cs),
(710,665,o),
(668,666,o),
(611,666,cs),
(484,666,ls),
(433,666,o),
(399,674,o),
(367,706,cs),
(362,711,o),
(352,715,o),
(344,715,cs),
(331,716,o),
(321,717,o),
(314,717,cs),
(294,717,o),
(280,711,o),
(271,688,c),
(270,683,o),
(265,679,o),
(256,676,cs),
(247,672,o),
(242,669,o),
(239,668,cs),
(234,666,o),
(227,664,o),
(216,661,cs),
(194,654,l),
(197,649,o),
(200,642,o),
(203,633,cs),
(206,624,o),
(209,617,o),
(214,614,cs),
(227,604,o),
(233,592,o),
(233,579,cs),
(233,570,o),
(230,559,o),
(224,546,cs),
(222,542,o),
(220,537,o),
(219,530,cs),
(217,523,o),
(215,517,o),
(214,512,c),
(163,365,l),
(50,358,l),
(55,321,o),
(74,307,o),
(110,287,cs),
(132,276,o),
(143,260,o),
(143,237,cs),
(143,214,ls),
(143,201,o),
(145,188,o),
(148,177,cs),
(172,95,o),
(227,37,o),
(313,4,cs),
(362,-15,o),
(416,-25,o),
(477,-25,cs)
);
}
);
userData = {
assembly = "NPUSHB[ ]	/* 14 values pushed */
59 1 8 7 94 1 1 8 30 1 4 2 3 76 
MPPEM[ ]	/* MeasurePixelPerEm */
PUSHB[ ]	/* 1 value pushed */
21 
LT[ ]	/* LessThan */
IF[ ]	/* If */
NPUSHB[ ]	/* 42 values pushed */
5 1 0 1 2 1 0 2 128 0 6 6 36 77 9 1 8 8 7 95 0 7 7 30 77 0 1 1 33 77 3 1 2 2 4 98 0 4 4 31 4 78 
ELSE[ ]	/* Else */
MPPEM[ ]	/* MeasurePixelPerEm */
PUSHB[ ]	/* 1 value pushed */
29 
LT[ ]	/* LessThan */
IF[ ]	/* If */
NPUSHB[ ]	/* 40 values pushed */
0 6 7 6 133 5 1 0 1 2 1 0 2 128 0 7 9 1 8 1 7 8 105 0 1 1 33 77 3 1 2 2 4 98 0 4 4 31 4 78 
ELSE[ ]	/* Else */
MPPEM[ ]	/* MeasurePixelPerEm */
PUSHB[ ]	/* 1 value pushed */
34 
LT[ ]	/* LessThan */
IF[ ]	/* If */
NPUSHB[ ]	/* 46 values pushed */
0 6 7 6 133 5 1 0 1 3 1 0 3 128 0 3 2 1 3 2 126 0 7 9 1 8 1 7 8 105 0 1 1 33 77 0 2 2 4 98 0 4 4 31 4 78 
ELSE[ ]	/* Else */
NPUSHB[ ]	/* 52 values pushed */
0 6 7 6 133 0 5 1 0 1 5 0 128 0 0 3 1 0 3 126 0 3 2 1 3 2 126 0 7 9 1 8 1 7 8 105 0 1 1 33 77 0 2 2 4 98 0 4 4 31 4 78 
EIF[ ]	/* EndIf */
EIF[ ]	/* EndIf */
EIF[ ]	/* EndIf */
NPUSHB[ ]	/* 17 values pushed */
98 96 93 92 81 75 69 67 27 38 33 46 34 35 10 8 28 
CALL[ ]	/* CallFunction */";
};
width = 817;
}
);
metricLeft = O;
note = E;
unicode = 69;
},
{
glyphname = Eacute;
kernLeft = E;
lastChange = "2022-09-29 08:18:29 +0000";
layers = (
{
layerId = "D6A4831D-747C-4592-93C0-305F4CD57904";
shapes = (
{
closed = 1;
nodes = (
(316,-27,o),
(325,-27,o),
(331,-26,cs),
(428,-17,o),
(511,7,o),
(579,45,cs),
(616,66,o),
(635,86,o),
(635,105,cs),
(635,120,o),
(624,133,o),
(603,145,c),
(490,116,ls),
(402,93,o),
(333,77,o),
(283,66,cs),
(278,65,o),
(271,64,o),
(262,64,cs),
(221,64,o),
(193,89,o),
(185,134,c),
(176,169,o),
(172,198,o),
(172,219,cs),
(172,228,o),
(185,246,o),
(196,250,cs),
(318,289,ls),
(368,305,o),
(416,320,o),
(463,334,c),
(470,337,o),
(479,352,o),
(491,380,c),
(486,397,o),
(454,412,o),
(421,412,cs),
(417,412,o),
(411,412,o),
(404,411,cs),
(177,385,l),
(182,391,o),
(184,406,o),
(183,431,cs),
(182,455,o),
(189,469,o),
(204,474,cs),
(272,495,o),
(342,511,o),
(449,504,cs),
(468,503,o),
(496,505,o),
(531,512,c),
(564,515,o),
(588,517,o),
(604,520,cs),
(610,521,o),
(617,526,o),
(625,533,cs),
(632,540,o),
(638,546,o),
(643,549,c),
(628,566,ls),
(615,582,o),
(606,591,o),
(595,591,cs),
(536,594,o),
(469,596,o),
(394,595,cs),
(256,594,ls),
(245,594,o),
(228,592,o),
(205,588,cs),
(194,587,o),
(166,584,o),
(149,584,cs),
(140,584,o),
(133,584,o),
(128,585,c),
(109,585,ls),
(97,585,o),
(61,560,o),
(61,515,cs),
(61,509,o),
(61,504,o),
(62,500,c),
(63,486,o),
(64,476,o),
(64,470,cs),
(63,433,ls),
(62,415,o),
(61,402,o),
(61,394,cs),
(60,300,ls),
(60,270,o),
(61,243,o),
(64,218,c),
(102,96,o),
(140,25,o),
(179,4,cs),
(218,-17,o),
(259,-27,o),
(304,-27,cs)
);
},
{
closed = 1;
nodes = (
(413,707,o),
(443,748,o),
(460,779,cs),
(477,810,o),
(485,834,o),
(484,851,c),
(477,858,o),
(471,863,o),
(466,867,cs),
(441,890,o),
(428,905,o),
(425,913,c),
(417,916,o),
(412,917,o),
(409,917,cs),
(386,917,o),
(375,896,o),
(362,864,cs),
(334,793,ls),
(323,766,o),
(315,747,o),
(309,734,cs),
(306,728,o),
(305,721,o),
(305,714,cs),
(305,697,o),
(327,677,o),
(371,655,c)
);
}
);
userData = {
assembly = "MPPEM[ ]	/* MeasurePixelPerEm */
PUSHB[ ]	/* 1 value pushed */
29 
LT[ ]	/* LessThan */
IF[ ]	/* If */
NPUSHB[ ]	/* 18 values pushed */
16 1 2 0 61 40 37 3 5 2 102 92 77 3 6 5 3 76 
ELSE[ ]	/* Else */
NPUSHB[ ]	/* 18 values pushed */
16 1 4 0 61 40 37 3 5 2 102 92 77 3 6 5 3 76 
EIF[ ]	/* EndIf */
MPPEM[ ]	/* MeasurePixelPerEm */
PUSHB[ ]	/* 1 value pushed */
29 
LT[ ]	/* LessThan */
IF[ ]	/* If */
NPUSHB[ ]	/* 31 values pushed */
0 0 2 0 133 0 5 2 6 2 5 6 128 4 3 2 2 2 32 77 0 6 6 1 97 0 1 1 31 1 78 
ELSE[ ]	/* Else */
NPUSHB[ ]	/* 37 values pushed */
0 0 4 0 133 3 1 2 4 5 4 2 5 128 0 5 6 4 5 6 126 0 4 4 32 77 0 6 6 1 97 0 1 1 31 1 78 
EIF[ ]	/* EndIf */
NPUSHB[ ]	/* 16 values pushed */
98 96 81 79 57 53 50 48 46 44 29 27 25 7 8 23 
CALL[ ]	/* CallFunction */";
};
width = 653;
}
);
metricLeft = "=H";
metricRight = "=E";
note = Eacute;
unicode = 201;
},
{
glyphname = Ebreve;
lastChange = "2022-09-29 08:18:29 +0000";
layers = (
{
layerId = "D6A4831D-747C-4592-93C0-305F4CD57904";
shapes = (
{
closed = 1;
nodes = (
(376,674,o),
(407,689,o),
(442,730,cs),
(457,747,o),
(465,766,o),
(465,787,cs),
(465,820,o),
(453,837,o),
(418,837,cs),
(405,837,o),
(399,832,o),
(390,813,c),
(375,788,o),
(357,768,o),
(312,749,c),
(308,748,o),
(302,748,o),
(293,748,cs),
(271,748,o),
(253,755,o),
(239,769,cs),
(224,783,o),
(209,797,o),
(192,812,cs),
(171,831,o),
(144,778,o),
(159,770,c),
(219,710,l),
(251,689,o),
(288,664,o),
(341,671,cs)
);
},
{
closed = 1;
nodes = (
(306,-27,o),
(315,-27,o),
(321,-26,cs),
(418,-17,o),
(501,7,o),
(569,45,cs),
(606,66,o),
(625,86,o),
(625,105,cs),
(625,120,o),
(614,133,o),
(593,145,c),
(480,116,ls),
(392,93,o),
(323,77,o),
(273,66,cs),
(268,65,o),
(261,64,o),
(252,64,cs),
(211,64,o),
(183,89,o),
(175,134,c),
(166,169,o),
(162,198,o),
(162,219,cs),
(162,228,o),
(175,246,o),
(186,250,cs),
(308,289,ls),
(358,305,o),
(406,320,o),
(453,334,c),
(460,337,o),
(469,352,o),
(481,380,c),
(476,397,o),
(444,412,o),
(411,412,cs),
(407,412,o),
(401,412,o),
(394,411,cs),
(167,385,l),
(172,391,o),
(174,406,o),
(173,431,cs),
(172,455,o),
(179,469,o),
(194,474,cs),
(262,495,o),
(332,511,o),
(439,504,cs),
(458,503,o),
(486,505,o),
(521,512,c),
(554,515,o),
(578,517,o),
(594,520,cs),
(600,521,o),
(607,526,o),
(615,533,cs),
(622,540,o),
(628,546,o),
(633,549,c),
(618,566,ls),
(605,582,o),
(596,591,o),
(585,591,cs),
(526,594,o),
(459,596,o),
(384,595,cs),
(246,594,ls),
(235,594,o),
(218,592,o),
(195,588,cs),
(184,587,o),
(156,584,o),
(139,584,cs),
(130,584,o),
(123,584,o),
(118,585,c),
(99,585,ls),
(87,585,o),
(51,560,o),
(51,515,cs),
(51,509,o),
(51,504,o),
(52,500,c),
(53,486,o),
(54,476,o),
(54,470,cs),
(53,433,ls),
(52,415,o),
(51,402,o),
(51,394,cs),
(50,300,ls),
(50,270,o),
(51,243,o),
(54,218,c),
(92,96,o),
(130,25,o),
(169,4,cs),
(208,-17,o),
(249,-27,o),
(294,-27,cs)
);
}
);
width = 643;
}
);
metricLeft = E;
metricRight = E;
unicode = 276;
},
{
glyphname = Ecaron;
kernLeft = E;
kernRight = E;
lastChange = "2022-09-29 08:18:29 +0000";
layers = (
{
layerId = "D6A4831D-747C-4592-93C0-305F4CD57904";
shapes = (
{
closed = 1;
nodes = (
(316,-15,o),
(325,-15,o),
(331,-14,cs),
(406,-5,o),
(478,19,o),
(546,57,cs),
(583,78,o),
(602,98,o),
(602,117,cs),
(602,132,o),
(591,145,o),
(570,157,c),
(490,128,ls),
(402,96,o),
(333,79,o),
(283,78,c),
(278,77,o),
(271,76,o),
(262,76,cs),
(221,76,o),
(193,101,o),
(185,146,c),
(176,181,o),
(172,210,o),
(172,231,cs),
(172,240,o),
(185,258,o),
(196,262,cs),
(318,301,ls),
(368,317,o),
(416,332,o),
(463,346,c),
(470,349,o),
(479,364,o),
(491,392,c),
(486,409,o),
(454,424,o),
(421,424,cs),
(417,424,o),
(411,424,o),
(404,423,cs),
(177,397,l),
(182,403,o),
(184,418,o),
(183,443,cs),
(182,467,o),
(189,481,o),
(204,486,c),
(314,509,o),
(399,522,o),
(458,525,cs),
(517,527,o),
(555,529,o),
(571,532,cs),
(577,533,o),
(584,538,o),
(592,545,cs),
(599,552,o),
(605,558,o),
(610,561,c),
(595,587,ls),
(584,606,o),
(573,603,o),
(562,603,cs),
(503,606,o),
(447,608,o),
(394,607,cs),
(256,606,ls),
(245,606,o),
(228,604,o),
(205,600,cs),
(194,599,o),
(166,596,o),
(149,596,cs),
(140,596,o),
(133,596,o),
(128,597,c),
(109,597,ls),
(97,597,o),
(61,572,o),
(61,527,cs),
(61,521,o),
(61,516,o),
(62,512,c),
(63,498,o),
(64,488,o),
(64,482,cs),
(63,445,ls),
(62,427,o),
(61,414,o),
(61,406,cs),
(60,312,ls),
(60,282,o),
(61,255,o),
(64,230,c),
(102,108,o),
(140,37,o),
(179,16,cs),
(218,-5,o),
(259,-15,o),
(304,-15,cs)
);
},
{
closed = 1;
nodes = (
(318,659,o),
(337,666,o),
(354,681,cs),
(396,716,o),
(442,756,o),
(493,801,cs),
(501,808,o),
(505,817,o),
(505,826,cs),
(505,837,o),
(500,846,o),
(489,852,cs),
(476,859,o),
(463,863,o),
(448,863,c),
(423,836,o),
(401,814,o),
(383,796,cs),
(370,782,o),
(347,760,o),
(315,729,c),
(303,741,o),
(295,749,o),
(292,753,c),
(272,812,l),
(259,823,o),
(246,829,o),
(232,829,cs),
(208,829,o),
(192,817,o),
(192,800,cs),
(192,798,o),
(193,794,o),
(194,789,c),
(202,768,o),
(213,742,o),
(228,711,cs),
(245,678,o),
(271,659,o),
(299,659,cs)
);
}
);
width = 620;
}
);
metricLeft = "=H";
metricRight = "=E";
unicode = 282;
},
{
glyphname = Ecircumflex;
kernLeft = E;
lastChange = "2022-09-29 08:18:29 +0000";
layers = (
{
layerId = "D6A4831D-747C-4592-93C0-305F4CD57904";
shapes = (
{
closed = 1;
nodes = (
(332,-27,o),
(341,-27,o),
(347,-26,cs),
(450,-16,o),
(537,9,o),
(609,49,cs),
(648,71,o),
(668,92,o),
(668,112,cs),
(668,127,o),
(657,141,o),
(634,154,c),
(515,124,ls),
(422,101,o),
(359,87,o),
(326,82,cs),
(293,77,o),
(271,75,o),
(261,75,cs),
(230,75,o),
(186,95,o),
(177,143,c),
(178,208,o),
(179,244,o),
(180,251,cs),
(180,258,o),
(183,263,o),
(189,265,cs),
(334,306,ls),
(387,321,o),
(438,337,o),
(486,354,cs),
(501,359,o),
(519,387,o),
(516,402,cs),
(511,433,o),
(477,431,o),
(442,431,cs),
(438,431,o),
(432,430,o),
(424,429,c),
(259,389,o),
(178,373,o),
(181,381,cs),
(186,394,o),
(191,414,o),
(195,441,cs),
(198,467,o),
(203,481,o),
(208,482,cs),
(280,502,o),
(359,516,o),
(472,533,cs),
(525,541,o),
(562,550,o),
(582,560,cs),
(601,569,o),
(608,582,o),
(602,597,c),
(595,606,o),
(584,615,o),
(568,624,c),
(506,627,o),
(455,629,o),
(414,629,cs),
(268,628,ls),
(256,628,o),
(238,626,o),
(214,622,cs),
(203,621,o),
(174,617,o),
(155,617,cs),
(145,617,o),
(138,617,o),
(133,618,cs),
(128,619,o),
(122,619,o),
(113,619,cs),
(98,619,o),
(61,592,o),
(61,545,cs),
(61,538,o),
(61,533,o),
(62,529,c),
(63,514,o),
(64,504,o),
(64,497,cs),
(63,458,ls),
(62,439,o),
(61,426,o),
(61,417,cs),
(60,318,ls),
(60,286,o),
(61,257,o),
(64,231,c),
(105,102,o),
(146,27,o),
(187,6,cs),
(228,-16,o),
(272,-27,o),
(319,-27,cs)
);
},
{
closed = 1;
nodes = (
(418,667,o),
(428,670,o),
(441,676,cs),
(450,681,o),
(454,688,o),
(454,697,cs),
(454,704,o),
(451,711,o),
(444,717,cs),
(407,749,ls),
(390,763,o),
(366,784,o),
(333,813,cs),
(320,824,o),
(305,830,o),
(289,830,cs),
(266,830,o),
(245,816,o),
(232,789,cs),
(222,769,o),
(213,748,o),
(205,726,cs),
(204,722,o),
(203,719,o),
(203,717,cs),
(203,706,o),
(213,696,o),
(226,695,cs),
(243,693,o),
(256,697,o),
(267,708,cs),
(283,726,l),
(301,755,l),
(328,730,o),
(346,708,o),
(356,691,c),
(371,676,o),
(389,669,o),
(409,668,cs)
);
}
);
userData = {
assembly = "NPUSHB[ ]	/* 18 values pushed */
24 1 1 0 70 49 46 3 6 3 111 101 86 3 7 6 3 76 
MPPEM[ ]	/* MeasurePixelPerEm */
PUSHB[ ]	/* 1 value pushed */
29 
LT[ ]	/* LessThan */
IF[ ]	/* If */
NPUSHB[ ]	/* 36 values pushed */
0 0 1 0 133 0 1 3 1 133 0 6 3 7 3 6 7 128 5 4 2 3 3 32 77 0 7 7 2 97 0 2 2 31 2 78 
ELSE[ ]	/* Else */
NPUSHB[ ]	/* 42 values pushed */
0 0 1 0 133 0 1 5 1 133 4 1 3 5 6 5 3 6 128 0 6 7 5 6 7 126 0 5 5 32 77 0 7 7 2 97 0 2 2 31 2 78 
EIF[ ]	/* EndIf */
NPUSHB[ ]	/* 13 values pushed */
107 105 90 88 67 34 47 47 26 40 8 8 28 
CALL[ ]	/* CallFunction */";
};
width = 678;
}
);
metricLeft = "=H";
metricRight = "=E";
note = Ecircumflex;
unicode = 202;
},
{
glyphname = Ecircumflexacute;
lastChange = "2022-09-29 08:18:29 +0000";
layers = (
{
layerId = "D6A4831D-747C-4592-93C0-305F4CD57904";
shapes = (
{
closed = 1;
nodes = (
(505,-25,o),
(530,-24,o),
(552,-21,cs),
(595,-16,o),
(620,-8,o),
(635,24,c),
(615,63,o),
(595,76,o),
(562,76,cs),
(547,75,ls),
(486,71,o),
(435,68,o),
(396,67,cs),
(319,64,o),
(271,116,o),
(271,180,cs),
(271,202,o),
(276,225,o),
(287,248,c),
(357,258,ls),
(410,265,o),
(450,271,o),
(477,275,cs),
(507,280,o),
(535,294,o),
(562,317,cs),
(571,326,o),
(575,334,o),
(575,342,cs),
(575,349,o),
(572,357,o),
(566,366,cs),
(555,383,o),
(539,392,o),
(520,392,cs),
(511,392,o),
(499,389,o),
(485,384,cs),
(435,364,o),
(387,354,o),
(341,354,cs),
(330,354,o),
(322,354,o),
(317,355,c),
(316,360,o),
(314,367,o),
(314,372,c),
(315,376,l),
(366,535,ls),
(373,556,o),
(388,566,o),
(413,566,cs),
(416,566,o),
(421,565,o),
(428,564,cs),
(435,562,o),
(439,561,o),
(442,561,cs),
(479,564,o),
(505,565,o),
(522,566,cs),
(594,569,o),
(648,573,o),
(684,579,cs),
(707,583,o),
(742,590,o),
(787,600,c),
(795,603,o),
(807,612,o),
(807,617,cs),
(807,628,o),
(802,641,o),
(794,645,cs),
(771,656,o),
(753,663,o),
(738,664,cs),
(710,665,o),
(668,666,o),
(611,666,cs),
(484,666,ls),
(433,666,o),
(399,674,o),
(367,706,cs),
(362,711,o),
(352,715,o),
(344,715,cs),
(331,716,o),
(321,717,o),
(314,717,cs),
(294,717,o),
(280,711,o),
(271,688,c),
(270,683,o),
(265,679,o),
(256,676,cs),
(247,672,o),
(242,669,o),
(239,668,cs),
(234,666,o),
(227,664,o),
(216,661,cs),
(194,654,l),
(197,649,o),
(200,642,o),
(203,633,cs),
(206,624,o),
(209,617,o),
(214,614,cs),
(227,604,o),
(233,592,o),
(233,579,cs),
(233,570,o),
(230,559,o),
(224,546,cs),
(222,542,o),
(220,537,o),
(219,530,cs),
(217,523,o),
(215,517,o),
(214,512,c),
(163,365,l),
(50,358,l),
(55,321,o),
(74,307,o),
(110,287,cs),
(132,276,o),
(143,260,o),
(143,237,cs),
(143,214,ls),
(143,201,o),
(145,188,o),
(148,177,cs),
(172,95,o),
(227,37,o),
(313,4,cs),
(362,-15,o),
(416,-25,o),
(477,-25,cs)
);
},
{
closed = 1;
nodes = (
(463,688,o),
(472,697,o),
(477,716,c),
(477,719,o),
(475,722,o),
(472,725,cs),
(468,728,o),
(465,730,o),
(464,732,c),
(446,751,o),
(430,768,o),
(416,785,cs),
(409,793,o),
(400,805,o),
(388,820,cs),
(373,839,o),
(363,851,o),
(359,854,cs),
(352,861,o),
(344,865,o),
(334,865,cs),
(323,865,o),
(314,862,o),
(307,854,cs),
(303,849,o),
(296,842,o),
(286,833,cs),
(275,823,o),
(266,813,o),
(259,803,cs),
(242,783,o),
(226,762,o),
(211,741,c),
(208,738,o),
(207,734,o),
(207,730,cs),
(207,718,o),
(209,698,o),
(228,698,c),
(237,704,o),
(246,711,o),
(255,718,cs),
(308,764,o),
(335,786,o),
(337,785,cs),
(338,784,o),
(342,780,o),
(347,773,cs),
(361,757,o),
(388,731,o),
(429,696,cs),
(433,692,o),
(442,688,o),
(450,688,cs)
);
},
{
closed = 1;
nodes = (
(224,851,o),
(238,852,o),
(253,859,cs),
(291,874,o),
(331,892,o),
(374,915,cs),
(383,920,o),
(390,927,o),
(395,938,cs),
(400,950,o),
(400,962,o),
(397,973,cs),
(394,980,o),
(388,987,o),
(381,988,cs),
(375,990,o),
(369,990,o),
(364,988,cs),
(349,983,o),
(337,976,o),
(330,968,cs),
(305,939,o),
(271,914,o),
(228,894,cs),
(207,885,o),
(208,886,o),
(199,862,c),
(202,859,o),
(207,856,o),
(212,854,cs)
);
}
);
width = 817;
}
);
unicode = 7870;
},
{
glyphname = Ecircumflexdotbelow;
lastChange = "2022-09-29 08:18:29 +0000";
layers = (
{
layerId = "D6A4831D-747C-4592-93C0-305F4CD57904";
shapes = (
{
closed = 1;
nodes = (
(515,-28,o),
(540,-27,o),
(562,-24,cs),
(605,-19,o),
(630,-11,o),
(645,21,c),
(625,60,o),
(605,73,o),
(572,73,cs),
(557,72,ls),
(496,68,o),
(445,65,o),
(406,64,cs),
(329,61,o),
(281,113,o),
(281,177,cs),
(281,199,o),
(286,222,o),
(297,245,c),
(367,255,ls),
(420,262,o),
(460,268,o),
(487,272,cs),
(517,277,o),
(545,291,o),
(572,314,cs),
(581,323,o),
(585,331,o),
(585,339,cs),
(585,346,o),
(582,354,o),
(576,363,cs),
(565,380,o),
(549,389,o),
(530,389,cs),
(521,389,o),
(509,386,o),
(495,381,cs),
(445,361,o),
(397,351,o),
(351,351,cs),
(340,351,o),
(332,351,o),
(327,352,c),
(326,357,o),
(324,364,o),
(324,369,c),
(325,373,l),
(376,532,ls),
(383,553,o),
(398,563,o),
(423,563,cs),
(426,563,o),
(431,562,o),
(438,561,cs),
(445,559,o),
(449,558,o),
(452,558,cs),
(489,561,o),
(515,562,o),
(532,563,cs),
(604,566,o),
(658,570,o),
(694,576,cs),
(717,580,o),
(752,587,o),
(797,597,c),
(805,600,o),
(817,609,o),
(817,614,cs),
(817,625,o),
(812,638,o),
(804,642,cs),
(781,653,o),
(763,660,o),
(748,661,cs),
(720,662,o),
(678,663,o),
(621,663,cs),
(494,663,ls),
(416,663,o),
(316,694,o),
(266,673,cs),
(257,669,o),
(252,666,o),
(249,665,cs),
(244,663,o),
(237,661,o),
(226,658,cs),
(204,651,l),
(207,646,o),
(210,639,o),
(213,630,cs),
(216,621,o),
(219,614,o),
(224,611,cs),
(237,601,o),
(243,589,o),
(243,576,cs),
(243,567,o),
(240,556,o),
(234,543,cs),
(232,539,o),
(230,534,o),
(229,527,cs),
(227,520,o),
(225,514,o),
(224,509,c),
(173,362,l),
(60,355,l),
(65,318,o),
(84,304,o),
(120,284,cs),
(142,273,o),
(153,257,o),
(153,234,cs),
(153,211,ls),
(153,198,o),
(155,185,o),
(158,174,cs),
(182,92,o),
(237,34,o),
(323,1,cs),
(372,-18,o),
(426,-28,o),
(487,-28,cs)
);
},
{
closed = 1;
nodes = (
(350,-168,o),
(363,-160,o),
(376,-151,cs),
(389,-142,o),
(398,-135,o),
(403,-132,cs),
(418,-123,o),
(425,-111,o),
(424,-97,cs),
(423,-83,o),
(417,-71,o),
(404,-62,cs),
(391,-53,o),
(379,-48,o),
(367,-47,cs),
(356,-46,o),
(344,-50,o),
(333,-57,cs),
(250,-113,o),
(313,-185,o),
(338,-173,cs)
);
},
{
closed = 1;
nodes = (
(579,688,o),
(589,699,o),
(594,720,c),
(594,723,o),
(592,727,o),
(589,731,c),
(585,734,o),
(582,737,o),
(581,739,c),
(562,761,o),
(541,787,o),
(518,818,cs),
(511,827,o),
(502,841,o),
(489,859,cs),
(473,882,o),
(463,895,o),
(459,900,cs),
(452,908,o),
(444,912,o),
(433,912,cs),
(422,912,o),
(412,908,o),
(405,900,cs),
(401,894,o),
(394,886,o),
(383,875,cs),
(372,863,o),
(363,851,o),
(355,840,cs),
(331,807,o),
(311,778,o),
(295,753,cs),
(292,749,o),
(291,745,o),
(291,740,cs),
(291,727,o),
(293,703,o),
(313,703,c),
(322,709,o),
(332,717,o),
(341,726,cs),
(404,789,o),
(436,820,o),
(437,819,cs),
(438,817,o),
(441,812,o),
(447,804,cs),
(470,775,o),
(502,739,o),
(544,697,c),
(548,692,o),
(558,688,o),
(566,688,cs)
);
}
);
width = 837;
}
);
unicode = 7878;
},
{
glyphname = Ecircumflexgrave;
lastChange = "2022-09-29 08:18:29 +0000";
layers = (
{
layerId = "D6A4831D-747C-4592-93C0-305F4CD57904";
shapes = (
{
closed = 1;
nodes = (
(505,-25,o),
(530,-24,o),
(552,-21,cs),
(595,-16,o),
(620,-8,o),
(635,24,c),
(615,63,o),
(595,76,o),
(562,76,cs),
(547,75,ls),
(486,71,o),
(435,68,o),
(396,67,cs),
(319,64,o),
(271,116,o),
(271,180,cs),
(271,202,o),
(276,225,o),
(287,248,c),
(357,258,ls),
(410,265,o),
(450,271,o),
(477,275,cs),
(507,280,o),
(535,294,o),
(562,317,cs),
(571,326,o),
(575,334,o),
(575,342,cs),
(575,349,o),
(572,357,o),
(566,366,cs),
(555,383,o),
(539,392,o),
(520,392,cs),
(511,392,o),
(499,389,o),
(485,384,cs),
(435,364,o),
(387,354,o),
(341,354,cs),
(330,354,o),
(322,354,o),
(317,355,c),
(316,360,o),
(314,367,o),
(314,372,c),
(315,376,l),
(366,535,ls),
(373,556,o),
(388,566,o),
(413,566,cs),
(416,566,o),
(421,565,o),
(428,564,cs),
(435,562,o),
(439,561,o),
(442,561,cs),
(479,564,o),
(505,565,o),
(522,566,cs),
(594,569,o),
(648,573,o),
(684,579,cs),
(707,583,o),
(742,590,o),
(787,600,c),
(795,603,o),
(807,612,o),
(807,617,cs),
(807,628,o),
(802,641,o),
(794,645,cs),
(771,656,o),
(753,663,o),
(738,664,cs),
(710,665,o),
(668,666,o),
(611,666,cs),
(484,666,ls),
(433,666,o),
(399,674,o),
(367,706,cs),
(362,711,o),
(352,715,o),
(344,715,cs),
(331,716,o),
(321,717,o),
(314,717,cs),
(294,717,o),
(280,711,o),
(271,688,c),
(270,683,o),
(265,679,o),
(256,676,cs),
(247,672,o),
(242,669,o),
(239,668,cs),
(234,666,o),
(227,664,o),
(216,661,cs),
(194,654,l),
(197,649,o),
(200,642,o),
(203,633,cs),
(206,624,o),
(209,617,o),
(214,614,cs),
(227,604,o),
(233,592,o),
(233,579,cs),
(233,570,o),
(230,559,o),
(224,546,cs),
(222,542,o),
(220,537,o),
(219,530,cs),
(217,523,o),
(215,517,o),
(214,512,c),
(163,365,l),
(50,358,l),
(55,321,o),
(74,307,o),
(110,287,cs),
(132,276,o),
(143,260,o),
(143,237,cs),
(143,214,ls),
(143,201,o),
(145,188,o),
(148,177,cs),
(172,95,o),
(227,37,o),
(313,4,cs),
(362,-15,o),
(416,-25,o),
(477,-25,cs)
);
},
{
closed = 1;
nodes = (
(492,693,o),
(501,703,o),
(506,722,c),
(506,725,o),
(504,728,o),
(501,731,cs),
(497,734,o),
(494,736,o),
(493,738,c),
(475,758,o),
(455,781,o),
(433,808,cs),
(423,821,o),
(366,874,o),
(366,874,c),
(351,874,ls),
(340,874,o),
(331,871,o),
(324,863,cs),
(320,858,o),
(305,844,o),
(280,820,cs),
(254,796,o),
(233,773,o),
(218,751,c),
(215,748,o),
(214,744,o),
(214,739,cs),
(214,727,o),
(216,706,o),
(235,706,c),
(244,711,o),
(253,718,o),
(262,727,cs),
(323,783,o),
(354,810,o),
(355,809,cs),
(356,807,o),
(359,803,o),
(364,796,cs),
(386,770,o),
(417,738,o),
(458,701,cs),
(462,697,o),
(471,693,o),
(479,693,cs)
);
},
{
closed = 1;
nodes = (
(498,857,o),
(503,860,o),
(506,863,c),
(497,888,o),
(498,887,o),
(477,896,cs),
(434,917,o),
(400,943,o),
(375,974,cs),
(368,982,o),
(356,989,o),
(341,994,c),
(336,997,o),
(330,997,o),
(324,994,c),
(317,993,o),
(311,986,o),
(308,978,cs),
(305,967,o),
(305,955,o),
(310,942,cs),
(315,931,o),
(322,924,o),
(331,919,cs),
(374,895,o),
(414,875,o),
(452,860,cs),
(467,853,o),
(481,852,o),
(493,855,cs)
);
}
);
width = 817;
}
);
unicode = 7872;
},
{
glyphname = Ecircumflexhookabove;
lastChange = "2022-09-29 08:18:29 +0000";
layers = (
{
layerId = "D6A4831D-747C-4592-93C0-305F4CD57904";
shapes = (
{
closed = 1;
nodes = (
(487,-63,o),
(512,-62,o),
(534,-59,cs),
(577,-54,o),
(602,-46,o),
(617,-14,c),
(597,25,o),
(577,38,o),
(544,38,cs),
(529,37,ls),
(468,33,o),
(417,30,o),
(378,29,cs),
(301,26,o),
(253,78,o),
(253,142,cs),
(253,164,o),
(258,187,o),
(269,210,c),
(339,220,ls),
(392,227,o),
(432,233,o),
(459,237,cs),
(489,242,o),
(517,256,o),
(544,279,cs),
(553,288,o),
(557,296,o),
(557,304,cs),
(557,311,o),
(554,319,o),
(548,328,cs),
(537,345,o),
(521,354,o),
(502,354,cs),
(493,354,o),
(481,351,o),
(467,346,cs),
(417,326,o),
(369,316,o),
(323,316,cs),
(312,316,o),
(304,316,o),
(299,317,c),
(298,322,o),
(296,329,o),
(296,334,c),
(297,338,l),
(348,497,ls),
(355,518,o),
(370,528,o),
(395,528,cs),
(398,528,o),
(403,527,o),
(410,526,cs),
(417,524,o),
(421,523,o),
(424,523,cs),
(461,526,o),
(487,527,o),
(504,528,cs),
(576,531,o),
(630,535,o),
(666,541,cs),
(689,545,o),
(724,552,o),
(769,562,c),
(777,565,o),
(789,574,o),
(789,579,cs),
(789,590,o),
(784,603,o),
(776,607,cs),
(753,618,o),
(735,625,o),
(720,626,cs),
(692,627,o),
(650,628,o),
(593,628,cs),
(466,628,ls),
(415,628,o),
(381,636,o),
(349,668,cs),
(344,673,o),
(334,677,o),
(326,677,cs),
(313,678,o),
(303,679,o),
(296,679,cs),
(276,679,o),
(262,673,o),
(253,650,c),
(252,645,o),
(247,641,o),
(238,638,cs),
(229,634,o),
(224,631,o),
(221,630,cs),
(216,628,o),
(209,626,o),
(198,623,cs),
(176,616,l),
(179,611,o),
(182,604,o),
(185,595,cs),
(188,586,o),
(191,579,o),
(196,576,cs),
(209,566,o),
(215,554,o),
(215,541,cs),
(215,532,o),
(212,521,o),
(206,508,cs),
(204,504,o),
(202,499,o),
(201,492,cs),
(199,485,o),
(197,479,o),
(196,474,c),
(145,327,l),
(32,320,l),
(37,283,o),
(56,269,o),
(92,249,cs),
(114,238,o),
(125,222,o),
(125,199,cs),
(125,176,ls),
(125,163,o),
(127,150,o),
(130,139,cs),
(154,57,o),
(209,-1,o),
(295,-34,cs),
(344,-53,o),
(398,-63,o),
(459,-63,cs)
);
},
{
closed = 1;
nodes = (
(605,668,o),
(613,677,o),
(618,696,c),
(618,703,o),
(609,711,o),
(600,727,cs),
(593,738,o),
(580,757,o),
(559,785,cs),
(553,793,o),
(544,805,o),
(533,822,cs),
(518,842,o),
(507,855,o),
(500,861,cs),
(492,867,o),
(483,870,o),
(473,870,cs),
(464,870,o),
(453,866,o),
(448,859,cs),
(445,854,o),
(438,846,o),
(429,836,cs),
(419,825,o),
(410,815,o),
(403,805,cs),
(381,775,o),
(366,754,o),
(358,741,cs),
(349,728,o),
(345,719,o),
(345,714,cs),
(345,702,o),
(346,681,o),
(365,681,c),
(374,686,o),
(382,693,o),
(390,702,cs),
(447,759,o),
(476,787,o),
(477,786,cs),
(478,784,o),
(481,779,o),
(486,772,cs),
(507,745,o),
(536,713,o),
(573,676,cs),
(577,671,o),
(586,668,o),
(593,668,cs)
);
},
{
closed = 1;
nodes = (
(444,862,o),
(480,903,o),
(485,942,c),
(489,954,o),
(488,973,o),
(483,1000,c),
(470,1024,o),
(461,1038,o),
(456,1041,cs),
(451,1044,o),
(445,1048,o),
(437,1051,cs),
(400,1066,o),
(358,1063,o),
(342,1054,cs),
(317,1037,o),
(334,994,o),
(335,994,cs),
(386,998,l),
(403,1002,o),
(423,993,o),
(431,978,c),
(440,967,o),
(441,957,o),
(434,947,c),
(389,926,o),
(366,908,o),
(366,892,cs),
(366,883,o),
(374,870,o),
(391,853,c)
);
}
);
width = 817;
}
);
unicode = 7874;
},
{
glyphname = Ecircumflextilde;
lastChange = "2022-09-29 08:18:29 +0000";
layers = (
{
layerId = "D6A4831D-747C-4592-93C0-305F4CD57904";
shapes = (
{
closed = 1;
nodes = (
(585,888,o),
(559,897,o),
(530,916,cs),
(510,929,ls),
(489,942,o),
(474,951,o),
(463,956,cs),
(457,959,o),
(451,961,o),
(446,961,cs),
(431,961,o),
(424,950,o),
(420,934,cs),
(417,923,o),
(411,918,o),
(404,918,cs),
(400,918,o),
(396,919,o),
(392,921,c),
(391,921,o),
(349,927,o),
(348,955,cs),
(347,972,o),
(354,980,o),
(383,1003,cs),
(395,1012,o),
(404,1016,o),
(416,1016,cs),
(421,1016,o),
(431,1015,o),
(444,1014,c),
(459,1007,o),
(471,999,o),
(488,984,cs),
(515,963,o),
(533,952,o),
(568,952,cs),
(583,952,l),
(619,967,o),
(633,982,o),
(644,1003,cs),
(652,1018,o),
(657,1021,o),
(666,1021,cs),
(695,1021,o),
(703,1008,o),
(703,983,cs),
(703,966,o),
(697,951,o),
(685,937,cs),
(658,905,o),
(633,893,o),
(606,890,cs)
);
},
{
closed = 1;
nodes = (
(662,648,o),
(672,659,o),
(677,680,c),
(677,686,o),
(666,697,o),
(656,714,cs),
(649,726,o),
(634,747,o),
(611,778,cs),
(604,787,o),
(595,801,o),
(582,819,cs),
(566,842,o),
(554,856,o),
(545,863,cs),
(536,869,o),
(527,872,o),
(516,872,cs),
(505,872,o),
(495,868,o),
(488,860,cs),
(484,854,o),
(477,845,o),
(466,834,cs),
(455,823,o),
(446,811,o),
(438,800,cs),
(414,767,o),
(397,744,o),
(388,729,cs),
(379,714,o),
(374,705,o),
(374,700,cs),
(374,687,o),
(376,663,o),
(396,663,c),
(405,669,o),
(415,677,o),
(424,686,cs),
(487,749,o),
(519,780,o),
(520,779,cs),
(521,777,o),
(524,772,o),
(530,764,cs),
(553,735,o),
(585,699,o),
(627,657,c),
(631,652,o),
(641,648,o),
(649,648,cs)
);
},
{
closed = 1;
nodes = (
(487,-63,o),
(512,-62,o),
(534,-59,cs),
(577,-54,o),
(602,-46,o),
(617,-14,c),
(597,25,o),
(577,38,o),
(544,38,cs),
(529,37,ls),
(468,33,o),
(417,30,o),
(378,29,cs),
(301,26,o),
(253,78,o),
(253,142,cs),
(253,164,o),
(258,187,o),
(269,210,c),
(339,220,ls),
(392,227,o),
(432,233,o),
(459,237,cs),
(489,242,o),
(517,256,o),
(544,279,cs),
(553,288,o),
(557,296,o),
(557,304,cs),
(557,311,o),
(554,319,o),
(548,328,cs),
(537,345,o),
(521,354,o),
(502,354,cs),
(493,354,o),
(481,351,o),
(467,346,cs),
(417,326,o),
(369,316,o),
(323,316,cs),
(312,316,o),
(304,316,o),
(299,317,c),
(298,322,o),
(296,329,o),
(296,334,c),
(297,338,l),
(348,497,ls),
(355,518,o),
(370,528,o),
(395,528,cs),
(398,528,o),
(403,527,o),
(410,526,cs),
(417,524,o),
(421,523,o),
(424,523,cs),
(461,526,o),
(487,527,o),
(504,528,cs),
(576,531,o),
(630,535,o),
(666,541,cs),
(689,545,o),
(724,552,o),
(769,562,c),
(777,565,o),
(789,574,o),
(789,579,cs),
(789,590,o),
(784,603,o),
(776,607,cs),
(753,618,o),
(735,625,o),
(720,626,cs),
(692,627,o),
(650,628,o),
(593,628,cs),
(466,628,ls),
(415,628,o),
(381,636,o),
(349,668,cs),
(344,673,o),
(334,677,o),
(326,677,cs),
(313,678,o),
(303,679,o),
(296,679,cs),
(276,679,o),
(262,673,o),
(253,650,c),
(252,645,o),
(247,641,o),
(238,638,cs),
(229,634,o),
(224,631,o),
(221,630,cs),
(216,628,o),
(209,626,o),
(198,623,cs),
(176,616,l),
(179,611,o),
(182,604,o),
(185,595,cs),
(188,586,o),
(191,579,o),
(196,576,cs),
(209,566,o),
(215,554,o),
(215,541,cs),
(215,532,o),
(212,521,o),
(206,508,cs),
(204,504,o),
(202,499,o),
(201,492,cs),
(199,485,o),
(197,479,o),
(196,474,c),
(145,327,l),
(32,320,l),
(37,283,o),
(56,269,o),
(92,249,cs),
(114,238,o),
(125,222,o),
(125,199,cs),
(125,176,ls),
(125,163,o),
(127,150,o),
(130,139,cs),
(154,57,o),
(209,-1,o),
(295,-34,cs),
(344,-53,o),
(398,-63,o),
(459,-63,cs)
);
}
);
width = 817;
}
);
unicode = 7876;
},
{
glyphname = Edieresis;
kernLeft = E;
kernRight = E;
lastChange = "2022-09-29 08:18:29 +0000";
layers = (
{
layerId = "D6A4831D-747C-4592-93C0-305F4CD57904";
shapes = (
{
closed = 1;
nodes = (
(245,-24,o),
(257,-19,o),
(267,-9,cs),
(306,28,o),
(345,40,o),
(408,47,cs),
(463,52,o),
(517,61,o),
(572,72,cs),
(596,77,o),
(618,88,o),
(618,105,cs),
(618,109,o),
(616,114,o),
(613,121,c),
(598,145,o),
(565,171,o),
(538,172,cs),
(517,173,o),
(494,171,o),
(471,164,cs),
(448,157,o),
(434,153,o),
(429,152,cs),
(404,149,o),
(384,146,o),
(369,144,cs),
(342,140,ls),
(311,135,o),
(290,134,o),
(281,136,c),
(266,136,o),
(255,138,o),
(249,143,cs),
(233,155,o),
(229,186,o),
(225,229,cs),
(225,232,o),
(225,237,o),
(224,244,cs),
(223,251,o),
(223,256,o),
(223,261,cs),
(222,272,o),
(221,279,o),
(221,284,cs),
(221,291,o),
(222,297,o),
(223,300,cs),
(226,311,o),
(237,325,o),
(246,326,cs),
(268,329,o),
(304,333,o),
(355,338,cs),
(429,346,l),
(467,351,ls),
(472,352,o),
(487,353,o),
(512,356,cs),
(537,359,o),
(559,363,o),
(578,368,cs),
(586,370,o),
(595,380,o),
(604,397,c),
(580,452,o),
(578,449,o),
(510,452,cs),
(475,453,o),
(449,451,o),
(432,445,c),
(415,444,o),
(399,444,o),
(386,445,cs),
(353,445,l),
(300,445,l),
(241,445,ls),
(213,444,o),
(199,452,o),
(199,477,cs),
(199,481,o),
(199,488,o),
(200,498,cs),
(200,507,o),
(199,516,o),
(197,523,c),
(197,534,ls),
(197,557,o),
(211,562,o),
(236,565,c),
(301,568,ls),
(321,569,o),
(336,570,o),
(347,570,cs),
(396,573,l),
(397,572,o),
(397,571,o),
(397,570,c),
(424,572,o),
(465,576,o),
(520,581,cs),
(555,584,o),
(573,599,o),
(573,626,cs),
(573,660,o),
(553,678,o),
(513,680,cs),
(501,681,o),
(482,681,o),
(457,682,cs),
(450,682,o),
(436,682,o),
(417,683,cs),
(398,684,o),
(380,684,o),
(365,684,cs),
(304,683,ls),
(230,682,o),
(172,679,o),
(129,674,cs),
(102,671,o),
(83,667,o),
(74,662,cs),
(65,657,o),
(60,648,o),
(60,636,cs),
(60,628,o),
(64,610,o),
(72,581,cs),
(73,577,o),
(75,567,o),
(76,552,cs),
(84,462,ls),
(91,381,o),
(97,320,o),
(102,281,cs),
(115,192,o),
(128,115,o),
(143,50,cs),
(152,7,o),
(192,-24,o),
(231,-24,cs)
);
},
{
closed = 1;
nodes = (
(231,763,o),
(249,771,o),
(266,788,c),
(259,812,o),
(249,826,o),
(230,833,cs),
(211,841,o),
(195,845,o),
(181,845,cs),
(174,845,o),
(167,844,o),
(159,842,cs),
(153,840,o),
(149,836,o),
(146,829,cs),
(144,824,o),
(143,819,o),
(143,813,cs),
(143,796,o),
(154,777,o),
(166,772,cs),
(183,766,o),
(198,763,o),
(210,763,cs)
);
},
{
closed = 1;
nodes = (
(501,735,o),
(513,739,o),
(528,755,c),
(520,796,o),
(496,806,o),
(452,814,c),
(450,815,o),
(447,815,o),
(442,815,cs),
(431,815,o),
(422,811,o),
(415,802,cs),
(411,796,o),
(409,789,o),
(409,780,cs),
(409,771,o),
(412,763,o),
(417,756,cs),
(432,738,o),
(447,730,o),
(462,731,cs)
);
}
);
userData = {
assembly = "MPPEM[ ]	/* MeasurePixelPerEm */
PUSHB[ ]	/* 1 value pushed */
34 
LT[ ]	/* LessThan */
IF[ ]	/* If */
NPUSHB[ ]	/* 19 values pushed */
13 1 1 2 30 1 4 1 84 1 7 5 122 107 2 9 7 4 76 
ELSE[ ]	/* Else */
NPUSHB[ ]	/* 19 values pushed */
13 1 1 2 30 1 4 1 84 1 7 6 122 107 2 9 7 4 76 
EIF[ ]	/* EndIf */
MPPEM[ ]	/* MeasurePixelPerEm */
PUSHB[ ]	/* 1 value pushed */
11 
LT[ ]	/* LessThan */
IF[ ]	/* If */
NPUSHB[ ]	/* 52 values pushed */
0 2 0 1 4 2 114 0 7 5 9 5 7 9 128 0 9 8 5 9 8 126 0 8 3 5 8 3 126 0 0 0 1 4 0 1 105 0 4 6 1 5 7 4 5 106 0 3 3 31 3 78 
ELSE[ ]	/* Else */
MPPEM[ ]	/* MeasurePixelPerEm */
PUSHB[ ]	/* 1 value pushed */
34 
LT[ ]	/* LessThan */
IF[ ]	/* If */
NPUSHB[ ]	/* 53 values pushed */
0 2 0 1 0 2 1 128 0 7 5 9 5 7 9 128 0 9 8 5 9 8 126 0 8 3 5 8 3 126 0 0 0 1 4 0 1 105 0 4 6 1 5 7 4 5 106 0 3 3 31 3 78 
ELSE[ ]	/* Else */
NPUSHB[ ]	/* 58 values pushed */
0 2 0 1 0 2 1 128 0 6 5 7 5 6 114 0 7 9 5 7 9 126 0 9 8 5 9 8 126 0 8 3 5 8 3 126 0 0 0 1 4 0 1 105 0 4 0 5 6 4 5 106 0 3 3 31 3 78 
EIF[ ]	/* EndIf */
EIF[ ]	/* EndIf */
NPUSHB[ ]	/* 20 values pushed */
141 139 133 131 100 91 81 80 79 74 70 62 47 45 24 37 39 10 8 25 
CALL[ ]	/* CallFunction */";
};
width = 628;
}
);
metricLeft = "=H";
metricRight = "=E";
note = Edieresis;
unicode = 203;
},
{
glyphname = Edotaccent;
lastChange = "2022-09-29 08:18:29 +0000";
layers = (
{
layerId = "D6A4831D-747C-4592-93C0-305F4CD57904";
shapes = (
{
closed = 1;
nodes = (
(316,-27,o),
(325,-27,o),
(331,-26,cs),
(428,-17,o),
(511,7,o),
(579,45,cs),
(616,66,o),
(635,86,o),
(635,105,cs),
(635,120,o),
(624,133,o),
(603,145,c),
(490,116,ls),
(402,93,o),
(333,77,o),
(283,66,cs),
(278,65,o),
(271,64,o),
(262,64,cs),
(221,64,o),
(193,89,o),
(185,134,c),
(176,169,o),
(172,198,o),
(172,219,cs),
(172,228,o),
(185,246,o),
(196,250,cs),
(318,289,ls),
(368,305,o),
(416,320,o),
(463,334,c),
(470,337,o),
(479,352,o),
(491,380,c),
(486,397,o),
(454,412,o),
(421,412,cs),
(417,412,o),
(411,412,o),
(404,411,cs),
(177,385,l),
(182,391,o),
(184,406,o),
(183,431,cs),
(182,455,o),
(189,469,o),
(204,474,cs),
(272,495,o),
(342,511,o),
(449,504,cs),
(468,503,o),
(496,505,o),
(531,512,c),
(564,515,o),
(588,517,o),
(604,520,cs),
(610,521,o),
(617,526,o),
(625,533,cs),
(632,540,o),
(638,546,o),
(643,549,c),
(628,566,ls),
(615,582,o),
(606,591,o),
(595,591,cs),
(536,594,o),
(469,596,o),
(394,595,cs),
(256,594,ls),
(245,594,o),
(228,592,o),
(205,588,cs),
(194,587,o),
(166,584,o),
(149,584,cs),
(140,584,o),
(133,584,o),
(128,585,c),
(109,585,ls),
(97,585,o),
(61,560,o),
(61,515,cs),
(61,509,o),
(61,504,o),
(62,500,c),
(63,486,o),
(64,476,o),
(64,470,cs),
(63,433,ls),
(62,415,o),
(61,402,o),
(61,394,cs),
(60,300,ls),
(60,270,o),
(61,243,o),
(64,218,c),
(102,96,o),
(140,25,o),
(179,4,cs),
(218,-17,o),
(259,-27,o),
(304,-27,cs)
);
},
{
closed = 1;
nodes = (
(381,668,o),
(399,771,o),
(398,806,c),
(391,813,o),
(385,818,o),
(380,822,c),
(317,836,o),
(283,835,o),
(276,819,cs),
(248,748,l)
);
}
);
width = 653;
}
);
metricLeft = "=H";
metricRight = "=E";
unicode = 278;
},
{
glyphname = Edotbelow;
lastChange = "2022-09-29 08:18:29 +0000";
layers = (
{
layerId = "D6A4831D-747C-4592-93C0-305F4CD57904";
shapes = (
{
closed = 1;
nodes = (
(515,-25,o),
(540,-24,o),
(562,-21,cs),
(605,-16,o),
(630,-8,o),
(645,24,c),
(625,63,o),
(605,76,o),
(572,76,cs),
(557,75,ls),
(496,71,o),
(445,68,o),
(406,67,cs),
(329,64,o),
(281,116,o),
(281,180,cs),
(281,202,o),
(286,225,o),
(297,248,c),
(367,258,ls),
(420,265,o),
(460,271,o),
(487,275,cs),
(517,280,o),
(545,294,o),
(572,317,cs),
(581,326,o),
(585,334,o),
(585,342,cs),
(585,349,o),
(582,357,o),
(576,366,cs),
(565,383,o),
(549,392,o),
(530,392,cs),
(521,392,o),
(509,389,o),
(495,384,cs),
(445,364,o),
(397,354,o),
(351,354,cs),
(340,354,o),
(332,354,o),
(327,355,c),
(326,360,o),
(324,367,o),
(324,372,c),
(325,376,l),
(376,535,ls),
(383,556,o),
(398,566,o),
(423,566,cs),
(426,566,o),
(431,565,o),
(438,564,cs),
(445,562,o),
(449,561,o),
(452,561,cs),
(489,564,o),
(515,565,o),
(532,566,cs),
(604,569,o),
(658,573,o),
(694,579,cs),
(717,583,o),
(752,590,o),
(797,600,c),
(805,603,o),
(817,612,o),
(817,617,cs),
(817,628,o),
(812,641,o),
(804,645,cs),
(781,656,o),
(763,663,o),
(748,664,cs),
(720,665,o),
(678,666,o),
(621,666,cs),
(494,666,ls),
(443,666,o),
(409,674,o),
(377,706,cs),
(372,711,o),
(362,715,o),
(354,715,cs),
(341,716,o),
(331,717,o),
(324,717,cs),
(304,717,o),
(290,711,o),
(281,688,c),
(280,683,o),
(275,679,o),
(266,676,cs),
(257,672,o),
(252,669,o),
(249,668,cs),
(244,666,o),
(237,664,o),
(226,661,cs),
(204,654,l),
(207,649,o),
(210,642,o),
(213,633,cs),
(216,624,o),
(219,617,o),
(224,614,cs),
(237,604,o),
(243,592,o),
(243,579,cs),
(243,570,o),
(240,559,o),
(234,546,cs),
(232,542,o),
(230,537,o),
(229,530,cs),
(227,523,o),
(225,517,o),
(224,512,c),
(173,365,l),
(60,358,l),
(65,321,o),
(84,307,o),
(120,287,cs),
(142,276,o),
(153,260,o),
(153,237,cs),
(153,214,ls),
(153,201,o),
(155,188,o),
(158,177,cs),
(182,95,o),
(237,37,o),
(323,4,cs),
(372,-15,o),
(426,-25,o),
(487,-25,cs)
);
},
{
closed = 1;
nodes = (
(350,-193,o),
(363,-185,o),
(376,-176,cs),
(389,-167,o),
(398,-160,o),
(403,-157,cs),
(418,-148,o),
(425,-136,o),
(424,-122,cs),
(423,-108,o),
(417,-96,o),
(404,-87,cs),
(391,-78,o),
(379,-73,o),
(367,-72,cs),
(356,-71,o),
(344,-75,o),
(333,-82,cs),
(250,-138,o),
(313,-210,o),
(338,-198,cs)
);
}
);
width = 837;
}
);
unicode = 7864;
},
{
glyphname = Egrave;
kernLeft = E;
lastChange = "2022-09-29 08:18:29 +0000";
layers = (
{
layerId = "D6A4831D-747C-4592-93C0-305F4CD57904";
shapes = (
{
closed = 1;
nodes = (
(443,-23,o),
(502,5,o),
(606,58,cs),
(637,75,o),
(664,88,o),
(686,98,cs),
(724,115,o),
(726,191,o),
(672,191,cs),
(665,191,o),
(658,189,o),
(651,186,cs),
(637,180,l),
(556,151,ls),
(462,118,o),
(392,97,o),
(347,88,cs),
(312,81,o),
(287,80,o),
(274,87,cs),
(260,94,o),
(250,100,o),
(245,105,c),
(216,168,o),
(199,214,o),
(194,245,cs),
(189,275,o),
(186,293,o),
(186,300,cs),
(186,332,o),
(207,349,o),
(248,351,cs),
(335,356,o),
(413,364,o),
(480,375,cs),
(504,379,o),
(556,411,o),
(541,422,cs),
(526,433,o),
(512,445,o),
(499,456,cs),
(486,467,o),
(451,470,o),
(396,467,cs),
(345,464,o),
(294,459,o),
(244,453,c),
(166,453,o),
(185,535,o),
(86,542,cs),
(81,542,o),
(73,513,o),
(62,455,cs),
(61,451,o),
(61,447,o),
(61,443,cs),
(61,439,o),
(61,408,o),
(60,349,c),
(65,302,o),
(69,265,o),
(74,237,c),
(133,106,o),
(185,28,o),
(229,5,cs),
(272,-19,o),
(317,-30,o),
(363,-27,cs)
);
},
{
closed = 1;
nodes = (
(204,554,o),
(221,558,o),
(237,566,cs),
(290,593,o),
(339,607,o),
(386,607,cs),
(520,610,l),
(579,604,l),
(586,628,l),
(577,650,o),
(544,669,o),
(510,676,cs),
(428,693,o),
(353,701,o),
(286,701,cs),
(218,701,o),
(163,686,o),
(127,638,cs),
(120,629,o),
(116,618,o),
(116,607,cs),
(116,595,o),
(117,587,o),
(120,584,cs),
(139,559,o),
(155,554,o),
(187,554,cs)
);
},
{
closed = 1;
nodes = (
(458,763,o),
(476,772,o),
(490,789,cs),
(503,807,o),
(526,815,o),
(526,828,cs),
(526,848,o),
(451,879,o),
(334,900,cs),
(255,914,o),
(213,918,o),
(208,911,cs),
(198,898,o),
(187,873,o),
(187,862,cs),
(187,838,o),
(211,818,o),
(252,810,cs),
(299,800,o),
(339,790,o),
(372,779,cs),
(404,768,o),
(425,763,o),
(435,763,cs)
);
}
);
userData = {
assembly = "NPUSHB[ ]	/* 19 values pushed */
2 1 1 0 74 71 2 10 8 70 1 12 10 3 76 9 1 0 74 
MPPEM[ ]	/* MeasurePixelPerEm */
PUSHB[ ]	/* 1 value pushed */
21 
LT[ ]	/* LessThan */
IF[ ]	/* If */
NPUSHB[ ]	/* 69 values pushed */
0 0 1 0 133 0 1 3 1 133 0 2 4 7 4 2 7 128 0 7 9 4 7 9 126 0 9 8 8 9 112 0 12 10 11 10 12 11 128 0 8 0 10 12 8 10 106 5 1 4 4 3 97 0 3 3 36 77 0 11 11 6 97 0 6 6 31 6 78 
ELSE[ ]	/* Else */
MPPEM[ ]	/* MeasurePixelPerEm */
PUSHB[ ]	/* 1 value pushed */
49 
LT[ ]	/* LessThan */
IF[ ]	/* If */
NPUSHB[ ]	/* 67 values pushed */
0 0 1 0 133 0 1 3 1 133 0 2 4 7 4 2 7 128 0 7 9 4 7 9 126 0 9 8 8 9 112 0 12 10 11 10 12 11 128 0 3 5 1 4 2 3 4 105 0 8 0 10 12 8 10 106 0 11 11 6 97 0 6 6 31 6 78 
ELSE[ ]	/* Else */
NPUSHB[ ]	/* 72 values pushed */
0 0 1 0 133 0 1 3 1 133 0 2 4 7 4 2 7 128 0 7 9 4 7 9 126 0 9 8 8 9 112 0 12 10 11 10 12 11 128 0 3 5 1 4 2 3 4 105 0 8 0 10 12 8 10 106 0 11 6 6 11 89 0 11 11 6 97 0 6 11 6 81 
EIF[ ]	/* EndIf */
EIF[ ]	/* EndIf */
NPUSHB[ ]	/* 20 values pushed */
115 113 107 105 98 96 90 87 36 44 42 34 41 40 36 44 23 13 8 31 
CALL[ ]	/* CallFunction */";
};
width = 724;
}
);
metricLeft = "=H";
metricRight = "=E";
note = Egrave;
unicode = 200;
},
{
glyphname = Ehookabove;
lastChange = "2022-09-29 08:18:29 +0000";
layers = (
{
layerId = "D6A4831D-747C-4592-93C0-305F4CD57904";
shapes = (
{
closed = 1;
nodes = (
(515,-25,o),
(540,-24,o),
(562,-21,cs),
(605,-16,o),
(630,-8,o),
(645,24,c),
(625,63,o),
(605,76,o),
(572,76,cs),
(557,75,ls),
(496,71,o),
(445,68,o),
(406,67,cs),
(329,64,o),
(281,116,o),
(281,180,cs),
(281,202,o),
(286,225,o),
(297,248,c),
(367,258,ls),
(420,265,o),
(460,271,o),
(487,275,cs),
(517,280,o),
(545,294,o),
(572,317,cs),
(581,326,o),
(585,334,o),
(585,342,cs),
(585,349,o),
(582,357,o),
(576,366,cs),
(565,383,o),
(549,392,o),
(530,392,cs),
(521,392,o),
(509,389,o),
(495,384,cs),
(445,364,o),
(397,354,o),
(351,354,cs),
(340,354,o),
(332,354,o),
(327,355,c),
(326,360,o),
(324,367,o),
(324,372,c),
(325,376,l),
(376,535,ls),
(383,556,o),
(398,566,o),
(423,566,cs),
(426,566,o),
(431,565,o),
(438,564,cs),
(445,562,o),
(449,561,o),
(452,561,cs),
(489,564,o),
(515,565,o),
(532,566,cs),
(604,569,o),
(658,573,o),
(694,579,cs),
(717,583,o),
(752,590,o),
(797,600,c),
(805,603,o),
(817,612,o),
(817,617,cs),
(817,628,o),
(812,641,o),
(804,645,cs),
(781,656,o),
(763,663,o),
(748,664,cs),
(720,665,o),
(678,666,o),
(621,666,cs),
(494,666,ls),
(443,666,o),
(409,674,o),
(377,706,cs),
(372,711,o),
(362,715,o),
(354,715,cs),
(341,716,o),
(331,717,o),
(324,717,cs),
(304,717,o),
(290,711,o),
(281,688,c),
(280,683,o),
(275,679,o),
(266,676,cs),
(257,672,o),
(252,669,o),
(249,668,cs),
(244,666,o),
(237,664,o),
(226,661,cs),
(204,654,l),
(207,649,o),
(210,642,o),
(213,633,cs),
(216,624,o),
(219,617,o),
(224,614,cs),
(237,604,o),
(243,592,o),
(243,579,cs),
(243,570,o),
(240,559,o),
(234,546,cs),
(232,542,o),
(230,537,o),
(229,530,cs),
(227,523,o),
(225,517,o),
(224,512,c),
(173,365,l),
(60,358,l),
(65,321,o),
(84,307,o),
(120,287,cs),
(142,276,o),
(153,260,o),
(153,237,cs),
(153,214,ls),
(153,201,o),
(155,188,o),
(158,177,cs),
(182,95,o),
(237,37,o),
(323,4,cs),
(372,-15,o),
(426,-25,o),
(487,-25,cs)
);
},
{
closed = 1;
nodes = (
(578,692,o),
(614,733,o),
(619,772,c),
(623,784,o),
(622,803,o),
(617,830,c),
(604,854,o),
(595,868,o),
(590,871,cs),
(585,874,o),
(579,878,o),
(571,881,cs),
(534,896,o),
(492,893,o),
(476,884,cs),
(451,867,o),
(468,824,o),
(469,824,cs),
(520,828,l),
(537,832,o),
(557,823,o),
(565,808,c),
(574,797,o),
(575,787,o),
(568,777,c),
(523,756,o),
(500,738,o),
(500,722,cs),
(500,713,o),
(508,700,o),
(525,683,c)
);
}
);
width = 837;
}
);
unicode = 7866;
},
{
glyphname = Emacron;
lastChange = "2022-09-29 08:18:29 +0000";
layers = (
{
layerId = "D6A4831D-747C-4592-93C0-305F4CD57904";
shapes = (
{
closed = 1;
nodes = (
(491,-25,o),
(514,-24,o),
(535,-21,cs),
(575,-16,o),
(599,-8,o),
(614,21,c),
(594,58,o),
(576,71,o),
(545,71,cs),
(530,70,ls),
(472,66,o),
(424,63,o),
(387,62,cs),
(315,59,o),
(269,109,o),
(269,169,cs),
(269,190,o),
(274,211,o),
(284,233,c),
(351,243,ls),
(401,250,o),
(439,255,o),
(464,259,cs),
(493,264,o),
(520,277,o),
(545,299,cs),
(553,307,o),
(557,315,o),
(557,322,cs),
(557,329,o),
(554,336,o),
(548,345,cs),
(537,362,o),
(523,370,o),
(505,370,cs),
(496,370,o),
(485,367,o),
(472,362,cs),
(425,343,o),
(379,334,o),
(335,334,cs),
(325,334,o),
(318,334,o),
(313,335,c),
(312,339,o),
(310,346,o),
(310,351,c),
(311,354,ls),
(326,404,o),
(342,454,o),
(359,505,cs),
(366,524,o),
(381,534,o),
(404,534,cs),
(407,534,o),
(411,533,o),
(418,532,cs),
(424,531,o),
(428,530,o),
(431,530,cs),
(507,534,ls),
(555,537,o),
(624,547,o),
(714,565,c),
(722,568,o),
(734,577,o),
(734,582,cs),
(734,593,o),
(729,606,o),
(721,610,cs),
(698,621,o),
(685,627,o),
(681,627,cs),
(656,628,o),
(626,629,o),
(591,629,cs),
(471,629,l),
(364,646,o),
(304,657,o),
(293,661,cs),
(282,664,o),
(274,661,o),
(269,650,c),
(268,645,o),
(263,641,o),
(255,638,cs),
(247,635,o),
(242,632,o),
(239,631,cs),
(234,629,o),
(227,627,o),
(217,624,cs),
(196,618,l),
(199,613,o),
(202,606,o),
(205,597,cs),
(208,588,o),
(211,583,o),
(215,580,cs),
(227,571,o),
(233,560,o),
(233,547,cs),
(233,538,o),
(230,528,o),
(225,515,c),
(223,512,o),
(221,507,o),
(220,500,cs),
(218,493,o),
(216,488,o),
(215,483,c),
(167,344,l),
(60,337,l),
(65,302,o),
(82,289,o),
(117,270,cs),
(138,260,o),
(148,244,o),
(148,223,cs),
(148,201,ls),
(148,188,o),
(150,177,o),
(153,166,cs),
(176,89,o),
(228,34,o),
(309,2,cs),
(355,-16,o),
(407,-25,o),
(464,-25,cs)
);
},
{
closed = 1;
nodes = (
(433,722,o),
(533,734,o),
(588,741,cs),
(646,747,l),
(650,748,o),
(653,752,o),
(654,760,cs),
(655,767,o),
(658,773,o),
(663,778,c),
(650,783,o),
(620,793,o),
(604,793,cs),
(547,794,o),
(466,798,o),
(361,805,cs),
(320,808,o),
(296,808,o),
(288,807,cs),
(277,806,o),
(270,805,o),
(266,805,cs),
(259,804,o),
(253,799,o),
(246,791,cs),
(241,784,o),
(230,771,o),
(223,766,c),
(242,745,o),
(251,734,o),
(251,734,c),
(258,729,o),
(266,726,o),
(276,725,cs)
);
}
);
width = 744;
}
);
metricLeft = "=H";
metricRight = "=E";
unicode = 274;
},
{
glyphname = Eogonek;
lastChange = "2022-09-29 08:18:29 +0000";
layers = (
{
layerId = "D6A4831D-747C-4592-93C0-305F4CD57904";
shapes = (
{
closed = 1;
nodes = (
(515,-25,o),
(540,-24,o),
(562,-21,cs),
(605,-16,o),
(630,-8,o),
(645,24,c),
(625,63,o),
(605,76,o),
(572,76,cs),
(557,75,ls),
(496,71,o),
(445,68,o),
(406,67,cs),
(329,64,o),
(281,116,o),
(281,180,cs),
(281,202,o),
(286,225,o),
(297,248,c),
(367,258,ls),
(420,265,o),
(460,271,o),
(487,275,cs),
(517,280,o),
(545,294,o),
(572,317,cs),
(581,326,o),
(585,334,o),
(585,342,cs),
(585,349,o),
(582,357,o),
(576,366,cs),
(565,383,o),
(549,392,o),
(530,392,cs),
(521,392,o),
(509,389,o),
(495,384,cs),
(445,364,o),
(397,354,o),
(351,354,cs),
(340,354,o),
(332,354,o),
(327,355,c),
(326,360,o),
(324,367,o),
(324,372,c),
(325,376,l),
(376,535,ls),
(383,556,o),
(398,566,o),
(423,566,cs),
(426,566,o),
(431,565,o),
(438,564,cs),
(445,562,o),
(449,561,o),
(452,561,cs),
(489,564,o),
(515,565,o),
(532,566,cs),
(604,569,o),
(658,573,o),
(694,579,cs),
(717,583,o),
(752,590,o),
(797,600,c),
(805,603,o),
(817,612,o),
(817,617,cs),
(817,628,o),
(812,641,o),
(804,645,cs),
(781,656,o),
(763,663,o),
(748,664,cs),
(720,665,o),
(678,666,o),
(621,666,cs),
(494,666,ls),
(443,666,o),
(409,674,o),
(377,706,cs),
(372,711,o),
(362,715,o),
(354,715,cs),
(341,716,o),
(331,717,o),
(324,717,cs),
(304,717,o),
(290,711,o),
(281,688,c),
(280,683,o),
(275,679,o),
(266,676,cs),
(257,672,o),
(252,669,o),
(249,668,cs),
(244,666,o),
(237,664,o),
(226,661,cs),
(204,654,l),
(207,649,o),
(210,642,o),
(213,633,cs),
(216,624,o),
(219,617,o),
(224,614,cs),
(237,604,o),
(243,592,o),
(243,579,cs),
(243,570,o),
(240,559,o),
(234,546,cs),
(232,542,o),
(230,537,o),
(229,530,cs),
(227,523,o),
(225,517,o),
(224,512,c),
(173,365,l),
(60,358,l),
(65,321,o),
(84,307,o),
(120,287,cs),
(142,276,o),
(153,260,o),
(153,237,cs),
(153,214,ls),
(153,201,o),
(155,188,o),
(158,177,cs),
(182,95,o),
(237,37,o),
(323,4,cs),
(372,-15,o),
(426,-25,o),
(487,-25,cs)
);
},
{
closed = 1;
nodes = (
(568,-245,o),
(590,-242,o),
(622,-237,cs),
(627,-236,o),
(631,-234,o),
(635,-230,cs),
(643,-224,ls),
(648,-219,o),
(651,-214,o),
(651,-207,cs),
(651,-197,o),
(646,-189,o),
(636,-184,cs),
(627,-181,o),
(619,-179,o),
(612,-179,c),
(609,-178,o),
(604,-178,o),
(598,-178,cs),
(591,-178,o),
(586,-178,o),
(582,-177,cs),
(550,-172,o),
(531,-155,o),
(531,-128,cs),
(531,-116,o),
(533,-106,o),
(537,-98,cs),
(546,-79,o),
(556,-62,o),
(568,-45,cs),
(572,-40,o),
(579,-35,o),
(588,-29,cs),
(604,-20,o),
(614,-12,o),
(618,7,cs),
(622,22,o),
(613,29,o),
(590,29,cs),
(570,29,o),
(545,22,o),
(532,15,cs),
(517,6,o),
(496,-20,o),
(471,-64,c),
(463,-85,o),
(459,-104,o),
(458,-123,cs),
(457,-138,ls),
(457,-197,o),
(494,-237,o),
(557,-244,cs)
);
}
);
width = 827;
}
);
metricLeft = "=H";
metricRight = "=E";
unicode = 280;
},
{
glyphname = Etilde;
lastChange = "2022-09-29 08:18:29 +0000";
layers = (
{
layerId = "D6A4831D-747C-4592-93C0-305F4CD57904";
shapes = (
{
closed = 1;
nodes = (
(515,-25,o),
(540,-24,o),
(562,-21,cs),
(605,-16,o),
(630,-8,o),
(645,24,c),
(625,63,o),
(605,76,o),
(572,76,cs),
(557,75,ls),
(496,71,o),
(445,68,o),
(406,67,cs),
(329,64,o),
(281,116,o),
(281,180,cs),
(281,202,o),
(286,225,o),
(297,248,c),
(367,258,ls),
(420,265,o),
(460,271,o),
(487,275,cs),
(517,280,o),
(545,294,o),
(572,317,cs),
(581,326,o),
(585,334,o),
(585,342,cs),
(585,349,o),
(582,357,o),
(576,366,cs),
(565,383,o),
(549,392,o),
(530,392,cs),
(521,392,o),
(509,389,o),
(495,384,cs),
(445,364,o),
(397,354,o),
(351,354,cs),
(340,354,o),
(332,354,o),
(327,355,c),
(326,360,o),
(324,367,o),
(324,372,c),
(325,376,l),
(376,535,ls),
(383,556,o),
(398,566,o),
(423,566,cs),
(426,566,o),
(431,565,o),
(438,564,cs),
(445,562,o),
(449,561,o),
(452,561,cs),
(489,564,o),
(515,565,o),
(532,566,cs),
(604,569,o),
(658,573,o),
(694,579,cs),
(717,583,o),
(752,590,o),
(797,600,c),
(805,603,o),
(817,612,o),
(817,617,cs),
(817,628,o),
(812,641,o),
(804,645,cs),
(781,656,o),
(763,663,o),
(748,664,cs),
(720,665,o),
(678,666,o),
(621,666,cs),
(494,666,ls),
(443,666,o),
(409,674,o),
(377,706,cs),
(372,711,o),
(362,715,o),
(354,715,cs),
(341,716,o),
(331,717,o),
(324,717,cs),
(304,717,o),
(290,711,o),
(281,688,c),
(280,683,o),
(275,679,o),
(266,676,cs),
(257,672,o),
(252,669,o),
(249,668,cs),
(244,666,o),
(237,664,o),
(226,661,cs),
(204,654,l),
(207,649,o),
(210,642,o),
(213,633,cs),
(216,624,o),
(219,617,o),
(224,614,cs),
(237,604,o),
(243,592,o),
(243,579,cs),
(243,570,o),
(240,559,o),
(234,546,cs),
(232,542,o),
(230,537,o),
(229,530,cs),
(227,523,o),
(225,517,o),
(224,512,c),
(173,365,l),
(60,358,l),
(65,321,o),
(84,307,o),
(120,287,cs),
(142,276,o),
(153,260,o),
(153,237,cs),
(153,214,ls),
(153,201,o),
(155,188,o),
(158,177,cs),
(182,95,o),
(237,37,o),
(323,4,cs),
(372,-15,o),
(426,-25,o),
(487,-25,cs)
);
},
{
closed = 1;
nodes = (
(564,714,o),
(593,727,o),
(622,762,cs),
(635,777,o),
(642,794,o),
(642,812,cs),
(642,840,o),
(633,854,o),
(601,854,cs),
(590,854,o),
(585,850,o),
(577,835,cs),
(565,811,o),
(549,795,o),
(510,779,cs),
(507,778,o),
(501,778,o),
(493,778,cs),
(456,778,o),
(435,790,o),
(406,814,cs),
(387,830,o),
(374,839,o),
(357,846,c),
(343,848,o),
(333,849,o),
(327,849,cs),
(314,849,o),
(304,845,o),
(291,834,cs),
(259,810,o),
(251,801,o),
(252,782,cs),
(253,751,o),
(299,745,o),
(300,745,c),
(305,742,o),
(309,741,o),
(314,741,cs),
(322,741,o),
(328,747,o),
(331,759,cs),
(335,776,o),
(344,788,o),
(360,788,cs),
(365,788,o),
(371,786,o),
(378,783,cs),
(390,778,o),
(407,768,o),
(430,753,cs),
(443,744,o),
(451,740,o),
(452,739,cs),
(484,718,o),
(512,708,o),
(535,711,cs)
);
}
);
width = 837;
}
);
unicode = 7868;
},
{
glyphname = Schwa;
lastChange = "2022-09-29 08:18:29 +0000";
layers = (
{
layerId = "D6A4831D-747C-4592-93C0-305F4CD57904";
shapes = (
{
closed = 1;
nodes = (
(497,267,o),
(492,257,o),
(486,268,c),
(229,268,l),
(191,255,o),
(220,242,o),
(215,229,c),
(259,184,o),
(306,136,o),
(345,140,cs),
(441,145,o),
(446,176,o),
(504,257,c)
);
},
{
closed = 1;
nodes = (
(616,186,o),
(612,173,o),
(485,56,cs),
(446,21,o),
(382,9,o),
(327,24,cs),
(211,54,o),
(134,138,o),
(72,254,c),
(56,323,o),
(46,336,o),
(109,350,cs),
(170,362,o),
(369,352,o),
(397,363,c),
(512,395,o),
(481,424,o),
(463,494,cs),
(449,551,o),
(375,596,o),
(321,590,c),
(310,590,o),
(198,545,o),
(189,543,cs),
(150,532,o),
(112,538,o),
(109,581,c),
(106,598,o),
(206,674,o),
(270,680,cs),
(479,708,o),
(576,601,o),
(617,418,cs),
(622,393,o),
(621,365,o),
(623,339,c)
);
}
);
width = 673;
}
);
metricLeft = a;
metricRight = o;
unicode = 399;
},
{
glyphname = Ezh;
lastChange = "2022-09-29 08:18:29 +0000";
layers = (
{
layerId = "D6A4831D-747C-4592-93C0-305F4CD57904";
shapes = (
{
closed = 1;
nodes = (
(197,-63,o),
(259,-59,o),
(316,-24,c),
(355,-6,o),
(394,19,o),
(427,34,c),
(506,103,o),
(566,264,o),
(427,356,cs),
(398,375,o),
(354,373,o),
(321,392,c),
(408,473,o),
(494,567,o),
(577,647,c),
(490,730,o),
(13,702,o),
(50,674,c),
(75,578,o),
(316,615,o),
(388,604,c),
(320,519,o),
(186,428,o),
(119,351,c),
(104,336,o),
(96,317,o),
(81,303,c),
(104,288,o),
(129,292,o),
(149,292,cs),
(186,292,o),
(230,312,o),
(268,317,cs),
(306,321,o),
(364,298,o),
(383,279,c),
(413,244,o),
(359,159,o),
(331,125,c),
(268,59,o),
(202,1,o),
(90,5,c),
(85,1,o),
(85,-5,o),
(85,-9,c),
(100,-24,o),
(114,-24,o),
(134,-34,cs)
);
}
);
width = 600;
}
);
unicode = 439;
},
{
glyphname = Ezhcaron;
lastChange = "2022-09-29 08:18:29 +0000";
layers = (
{
layerId = "D6A4831D-747C-4592-93C0-305F4CD57904";
shapes = (
{
closed = 1;
nodes = (
(197,-63,o),
(259,-59,o),
(316,-24,c),
(355,-6,o),
(394,19,o),
(427,34,c),
(506,103,o),
(566,264,o),
(427,356,cs),
(398,375,o),
(354,373,o),
(321,392,c),
(408,473,o),
(494,567,o),
(577,647,c),
(490,730,o),
(13,702,o),
(50,674,c),
(75,578,o),
(316,615,o),
(388,604,c),
(320,519,o),
(186,428,o),
(119,351,c),
(104,336,o),
(96,317,o),
(81,303,c),
(104,288,o),
(129,292,o),
(149,292,cs),
(186,292,o),
(230,312,o),
(268,317,cs),
(306,321,o),
(364,298,o),
(383,279,c),
(413,244,o),
(359,159,o),
(331,125,c),
(268,59,o),
(202,1,o),
(90,5,c),
(85,1,o),
(85,-5,o),
(85,-9,c),
(100,-24,o),
(114,-24,o),
(134,-34,cs)
);
},
{
closed = 1;
nodes = (
(312,730,o),
(329,737,o),
(344,750,cs),
(381,781,o),
(423,817,o),
(468,858,cs),
(475,864,o),
(479,871,o),
(479,880,cs),
(479,890,o),
(474,898,o),
(465,903,cs),
(454,910,o),
(441,913,o),
(428,913,c),
(405,889,o),
(386,869,o),
(370,853,cs),
(358,840,o),
(338,820,o),
(309,793,c),
(298,804,o),
(291,811,o),
(288,815,c),
(271,867,l),
(260,878,o),
(248,883,o),
(235,883,cs),
(214,883,o),
(199,872,o),
(199,857,cs),
(199,855,o),
(200,852,o),
(201,847,c),
(208,828,o),
(218,805,o),
(231,777,cs),
(247,748,o),
(270,730,o),
(295,730,cs)
);
}
);
width = 600;
}
);
unicode = 494;
},
{
glyphname = F;
lastChange = "2022-09-29 08:35:11 +0000";
layers = (
{
anchors = (
{
name = bottom;
pos = (324,0);
},
{
name = top;
pos = (324,702);
}
);
layerId = "D6A4831D-747C-4592-93C0-305F4CD57904";
shapes = (
{
closed = 1;
nodes = (
(170,-33,o),
(182,-16,o),
(186,17,cs),
(187,26,o),
(188,40,o),
(188,58,cs),
(188,98,l),
(195,170,o),
(203,159,o),
(246,168,cs),
(249,169,o),
(253,170,o),
(256,172,c),
(265,175,l),
(459,228,l),
(552,248,l),
(577,256,o),
(589,260,o),
(589,276,cs),
(589,288,o),
(579,302,o),
(560,319,cs),
(555,323,o),
(547,325,o),
(536,325,cs),
(528,324,o),
(516,324,o),
(500,324,cs),
(491,324,o),
(455,323,o),
(430,319,cs),
(373,310,o),
(362,307,o),
(334,300,cs),
(277,288,l),
(268,287,o),
(227,286,o),
(214,286,c),
(222,343,o),
(227,373,o),
(266,445,cs),
(290,490,l),
(307,511,o),
(326,530,o),
(349,547,cs),
(392,580,o),
(425,604,o),
(450,617,cs),
(475,630,o),
(497,634,o),
(517,628,c),
(532,628,o),
(545,624,o),
(556,616,c),
(559,615,o),
(563,613,o),
(568,612,cs),
(573,611,o),
(577,609,o),
(580,608,cs),
(586,606,o),
(592,605,o),
(597,605,cs),
(612,605,o),
(624,612,o),
(633,626,c),
(636,633,o),
(638,638,o),
(638,642,cs),
(638,651,o),
(632,662,o),
(619,675,cs),
(588,708,o),
(550,725,o),
(506,725,cs),
(491,725,o),
(478,724,o),
(467,721,cs),
(410,710,o),
(354,685,o),
(297,646,cs),
(182,567,o),
(110,476,o),
(93,352,cs),
(82,273,o),
(76,214,o),
(72,175,cs),
(70,152,o),
(66,118,o),
(61,71,c),
(60,68,o),
(60,63,o),
(60,57,cs),
(60,24,o),
(77,0,o),
(110,-20,cs),
(125,-29,o),
(138,-33,o),
(149,-33,cs)
);
}
);
userData = {
assembly = "PUSHB[ ]	/* 6 values pushed */
58 1 6 4 1 76 
MPPEM[ ]	/* MeasurePixelPerEm */
PUSHB[ ]	/* 1 value pushed */
21 
LT[ ]	/* LessThan */
IF[ ]	/* If */
NPUSHB[ ]	/* 39 values pushed */
0 5 6 1 6 5 1 128 2 1 1 0 6 1 0 126 0 0 3 6 0 3 126 0 6 6 4 97 0 4 4 36 77 0 3 3 31 3 78 
ELSE[ ]	/* Else */
MPPEM[ ]	/* MeasurePixelPerEm */
PUSHB[ ]	/* 1 value pushed */
34 
LT[ ]	/* LessThan */
IF[ ]	/* If */
NPUSHB[ ]	/* 37 values pushed */
0 5 6 1 6 5 1 128 2 1 1 0 6 1 0 126 0 0 3 6 0 3 126 0 4 0 6 5 4 6 105 0 3 3 31 3 78 
ELSE[ ]	/* Else */
NPUSHB[ ]	/* 43 values pushed */
0 5 6 1 6 5 1 128 2 1 1 0 6 1 0 126 0 0 3 6 0 3 126 0 3 3 132 0 4 6 6 4 89 0 4 4 6 97 0 6 4 6 81 
EIF[ ]	/* EndIf */
EIF[ ]	/* EndIf */
NPUSHB[ ]	/* 14 values pushed */
70 68 62 61 55 53 36 34 17 54 34 7 8 25 
CALL[ ]	/* CallFunction */";
};
width = 648;
}
);
metricLeft = "=H";
metricRight = "=E";
note = F;
unicode = 70;
},
{
glyphname = G;
lastChange = "2022-09-29 08:35:11 +0000";
layers = (
{
anchors = (
{
name = bottom;
pos = (350,0);
},
{
name = top;
pos = (350,702);
}
);
layerId = "D6A4831D-747C-4592-93C0-305F4CD57904";
shapes = (
{
closed = 1;
nodes = (
(298,17,o),
(307,17,o),
(313,18,cs),
(364,22,o),
(415,36,o),
(475,72,cs),
(551,116,o),
(593,167,o),
(624,232,cs),
(631,245,o),
(637,257,o),
(640,267,cs),
(647,285,o),
(650,302,o),
(650,319,cs),
(650,364,o),
(620,392,o),
(560,402,cs),
(517,409,o),
(479,412,o),
(446,410,cs),
(406,407,o),
(348,402,o),
(271,393,cs),
(236,389,ls),
(234,389,o),
(232,388,o),
(229,385,cs),
(226,382,o),
(224,380,o),
(222,379,c),
(239,319,o),
(268,295,o),
(323,295,c),
(409,301,ls),
(453,304,o),
(486,307,o),
(509,308,c),
(510,301,o),
(511,296,o),
(511,293,cs),
(511,284,o),
(506,263,o),
(497,228,cs),
(477,158,o),
(369,102,o),
(265,118,c),
(223,118,o),
(188,143,o),
(161,194,c),
(155,233,o),
(152,266,o),
(152,291,cs),
(152,522,o),
(311,600,o),
(535,576,c),
(563,577,o),
(581,588,o),
(598,613,c),
(573,646,o),
(543,665,o),
(506,670,cs),
(481,674,o),
(454,676,o),
(427,676,cs),
(298,676,o),
(147,628,o),
(95,515,c),
(43,375,o),
(50,337,o),
(50,261,cs),
(50,253,o),
(51,239,o),
(52,219,cs),
(56,160,o),
(80,116,o),
(127,76,cs),
(174,37,o),
(227,17,o),
(285,17,cs)
);
}
);
userData = {
assembly = "MPPEM[ ]	/* MeasurePixelPerEm */
PUSHB[ ]	/* 1 value pushed */
39 
LT[ ]	/* LessThan */
IF[ ]	/* If */
NPUSHB[ ]	/* 15 values pushed */
1 1 0 6 35 27 2 2 4 25 1 1 2 3 76 
ELSE[ ]	/* Else */
NPUSHB[ ]	/* 15 values pushed */
1 1 0 6 35 27 2 2 4 25 1 1 3 3 76 
EIF[ ]	/* EndIf */
MPPEM[ ]	/* MeasurePixelPerEm */
PUSHB[ ]	/* 1 value pushed */
21 
LT[ ]	/* LessThan */
IF[ ]	/* If */
NPUSHB[ ]	/* 32 values pushed */
0 0 0 6 97 0 6 6 30 77 3 1 2 2 4 97 0 4 4 33 77 0 1 1 5 97 0 5 5 34 5 78 
ELSE[ ]	/* Else */
MPPEM[ ]	/* MeasurePixelPerEm */
PUSHB[ ]	/* 1 value pushed */
39 
LT[ ]	/* LessThan */
IF[ ]	/* If */
NPUSHB[ ]	/* 30 values pushed */
0 6 0 0 4 6 0 105 3 1 2 2 4 97 0 4 4 33 77 0 1 1 5 97 0 5 5 34 5 78 
ELSE[ ]	/* Else */
MPPEM[ ]	/* MeasurePixelPerEm */
PUSHB[ ]	/* 1 value pushed */
49 
LT[ ]	/* LessThan */
IF[ ]	/* If */
NPUSHB[ ]	/* 37 values pushed */
0 3 2 1 2 3 1 128 0 6 0 0 4 6 0 105 0 2 2 4 97 0 4 4 33 77 0 1 1 5 97 0 5 5 34 5 78 
ELSE[ ]	/* Else */
NPUSHB[ ]	/* 35 values pushed */
0 3 2 1 2 3 1 128 0 6 0 0 4 6 0 105 0 4 0 2 3 4 2 105 0 1 1 5 97 0 5 5 34 5 78 
EIF[ ]	/* EndIf */
EIF[ ]	/* EndIf */
EIF[ ]	/* EndIf */
NPUSHB[ ]	/* 10 values pushed */
43 46 39 33 45 40 35 7 8 29 
CALL[ ]	/* CallFunction */";
};
width = 700;
}
);
metricLeft = "=O";
note = G;
unicode = 71;
},
{
glyphname = Gbreve;
lastChange = "2022-09-29 08:18:29 +0000";
layers = (
{
layerId = "D6A4831D-747C-4592-93C0-305F4CD57904";
shapes = (
{
closed = 1;
nodes = (
(298,17,o),
(307,17,o),
(313,18,cs),
(364,22,o),
(415,36,o),
(475,72,cs),
(551,116,o),
(593,167,o),
(624,232,cs),
(631,245,o),
(637,257,o),
(640,267,cs),
(647,285,o),
(650,302,o),
(650,319,cs),
(650,364,o),
(620,392,o),
(560,402,cs),
(517,409,o),
(479,412,o),
(446,410,cs),
(406,407,o),
(348,402,o),
(271,393,cs),
(236,389,ls),
(234,389,o),
(232,388,o),
(229,385,cs),
(226,382,o),
(224,380,o),
(222,379,c),
(239,319,o),
(268,295,o),
(323,295,c),
(409,301,ls),
(453,304,o),
(486,307,o),
(509,308,c),
(510,301,o),
(511,296,o),
(511,293,cs),
(511,284,o),
(506,263,o),
(497,228,cs),
(477,158,o),
(369,102,o),
(265,118,c),
(223,118,o),
(188,143,o),
(161,194,c),
(155,233,o),
(152,266,o),
(152,291,cs),
(152,522,o),
(311,600,o),
(535,576,c),
(563,577,o),
(581,588,o),
(598,613,c),
(573,646,o),
(543,665,o),
(506,670,cs),
(481,674,o),
(454,676,o),
(427,676,cs),
(298,676,o),
(147,628,o),
(95,515,c),
(43,375,o),
(50,337,o),
(50,261,cs),
(50,253,o),
(51,239,o),
(52,219,cs),
(56,160,o),
(80,116,o),
(127,76,cs),
(174,37,o),
(227,17,o),
(285,17,cs)
);
},
{
closed = 1;
nodes = (
(376,701,o),
(387,707,o),
(392,720,cs),
(396,732,o),
(405,749,o),
(420,772,c),
(421,775,o),
(426,782,o),
(434,795,cs),
(441,807,o),
(447,819,o),
(451,830,cs),
(452,835,o),
(452,838,o),
(452,840,cs),
(452,852,o),
(443,861,o),
(431,861,cs),
(429,861,o),
(426,861,o),
(422,860,cs),
(417,858,o),
(413,856,o),
(409,855,cs),
(404,854,o),
(401,851,o),
(398,846,cs),
(394,839,o),
(387,828,o),
(376,815,cs),
(365,802,l),
(364,800,o),
(362,797,o),
(358,794,cs),
(353,791,o),
(350,788,o),
(349,786,c),
(336,800,l),
(319,823,o),
(307,834,o),
(301,833,c),
(277,856,o),
(269,855,o),
(252,855,cs),
(241,855,o),
(224,852,o),
(220,845,cs),
(217,840,o),
(226,825,o),
(227,822,cs),
(228,819,o),
(229,816,o),
(232,813,cs),
(235,810,o),
(237,807,o),
(238,804,c),
(276,766,o),
(304,740,o),
(323,725,cs),
(341,710,o),
(352,703,o),
(357,702,c)
);
}
);
width = 700;
}
);
metricLeft = "=O";
unicode = 286;
},
{
glyphname = Gcaron;
lastChange = "2022-09-29 08:18:29 +0000";
layers = (
{
layerId = "D6A4831D-747C-4592-93C0-305F4CD57904";
shapes = (
{
closed = 1;
nodes = (
(298,17,o),
(307,17,o),
(313,18,cs),
(364,22,o),
(415,36,o),
(475,72,cs),
(551,116,o),
(593,167,o),
(624,232,cs),
(631,245,o),
(637,257,o),
(640,267,cs),
(647,285,o),
(650,302,o),
(650,319,cs),
(650,364,o),
(620,392,o),
(560,402,cs),
(517,409,o),
(479,412,o),
(446,410,cs),
(406,407,o),
(348,402,o),
(271,393,cs),
(236,389,ls),
(234,389,o),
(232,388,o),
(229,385,cs),
(226,382,o),
(224,380,o),
(222,379,c),
(239,319,o),
(268,295,o),
(323,295,c),
(409,301,ls),
(453,304,o),
(486,307,o),
(509,308,c),
(510,301,o),
(511,296,o),
(511,293,cs),
(511,284,o),
(506,263,o),
(497,228,cs),
(477,158,o),
(369,102,o),
(265,118,c),
(223,118,o),
(188,143,o),
(161,194,c),
(155,233,o),
(152,266,o),
(152,291,cs),
(152,522,o),
(311,600,o),
(535,576,c),
(563,577,o),
(581,588,o),
(598,613,c),
(573,646,o),
(543,665,o),
(506,670,cs),
(481,674,o),
(454,676,o),
(427,676,cs),
(298,676,o),
(147,628,o),
(95,515,c),
(43,375,o),
(50,337,o),
(50,261,cs),
(50,253,o),
(51,239,o),
(52,219,cs),
(56,160,o),
(80,116,o),
(127,76,cs),
(174,37,o),
(227,17,o),
(285,17,cs)
);
},
{
closed = 1;
nodes = (
(367,689,o),
(386,696,o),
(403,711,cs),
(445,746,o),
(491,786,o),
(542,831,cs),
(550,838,o),
(554,847,o),
(554,856,cs),
(554,867,o),
(549,876,o),
(538,882,cs),
(525,889,o),
(512,893,o),
(497,893,c),
(472,866,o),
(450,844,o),
(432,826,cs),
(419,812,o),
(396,790,o),
(364,759,c),
(352,771,o),
(344,779,o),
(341,783,c),
(321,842,l),
(308,853,o),
(295,859,o),
(281,859,cs),
(257,859,o),
(241,847,o),
(241,830,cs),
(241,828,o),
(242,824,o),
(243,819,c),
(251,798,o),
(262,772,o),
(277,741,cs),
(294,708,o),
(320,689,o),
(348,689,cs)
);
}
);
width = 700;
}
);
unicode = 486;
},
{
glyphname = Gcircumflex;
lastChange = "2022-09-29 08:18:29 +0000";
layers = (
{
layerId = "D6A4831D-747C-4592-93C0-305F4CD57904";
shapes = (
{
closed = 1;
nodes = (
(298,17,o),
(307,17,o),
(313,18,cs),
(364,22,o),
(415,36,o),
(475,72,cs),
(551,116,o),
(593,167,o),
(624,232,cs),
(631,245,o),
(637,257,o),
(640,267,cs),
(647,285,o),
(650,302,o),
(650,319,cs),
(650,364,o),
(620,392,o),
(560,402,cs),
(517,409,o),
(479,412,o),
(446,410,cs),
(406,407,o),
(348,402,o),
(271,393,cs),
(236,389,ls),
(234,389,o),
(232,388,o),
(229,385,cs),
(226,382,o),
(224,380,o),
(222,379,c),
(239,319,o),
(268,295,o),
(323,295,c),
(409,301,ls),
(453,304,o),
(486,307,o),
(509,308,c),
(510,301,o),
(511,296,o),
(511,293,cs),
(511,284,o),
(506,263,o),
(497,228,cs),
(477,158,o),
(369,102,o),
(265,118,c),
(223,118,o),
(188,143,o),
(161,194,c),
(155,233,o),
(152,266,o),
(152,291,cs),
(152,522,o),
(311,600,o),
(535,576,c),
(563,577,o),
(581,588,o),
(598,613,c),
(573,646,o),
(543,665,o),
(506,670,cs),
(481,674,o),
(454,676,o),
(427,676,cs),
(298,676,o),
(147,628,o),
(95,515,c),
(43,375,o),
(50,337,o),
(50,261,cs),
(50,253,o),
(51,239,o),
(52,219,cs),
(56,160,o),
(80,116,o),
(127,76,cs),
(174,37,o),
(227,17,o),
(285,17,cs)
);
},
{
closed = 1;
nodes = (
(525,701,o),
(533,710,o),
(538,729,c),
(538,734,o),
(528,744,o),
(520,759,cs),
(514,770,o),
(501,788,o),
(480,815,cs),
(474,823,o),
(465,835,o),
(454,851,cs),
(440,871,o),
(429,884,o),
(422,890,cs),
(415,895,o),
(406,898,o),
(396,898,cs),
(387,898,o),
(377,894,o),
(372,887,cs),
(369,882,o),
(362,874,o),
(353,864,cs),
(343,854,o),
(335,844,o),
(328,834,cs),
(307,805,o),
(292,785,o),
(284,772,cs),
(276,759,o),
(272,751,o),
(272,747,cs),
(272,735,o),
(274,714,o),
(291,714,c),
(299,719,o),
(307,726,o),
(316,734,cs),
(371,790,o),
(399,817,o),
(400,816,cs),
(401,814,o),
(404,810,o),
(409,803,cs),
(429,777,o),
(457,746,o),
(494,709,cs),
(498,704,o),
(506,701,o),
(513,701,cs)
);
}
);
width = 700;
}
);
unicode = 284;
},
{
glyphname = Gcommaaccent;
lastChange = "2022-09-29 08:18:29 +0000";
layers = (
{
layerId = "D6A4831D-747C-4592-93C0-305F4CD57904";
shapes = (
{
closed = 1;
nodes = (
(330,7,o),
(344,8,o),
(359,10,cs),
(384,14,o),
(402,21,o),
(437,36,cs),
(456,44,ls),
(535,77,o),
(593,123,o),
(633,188,cs),
(636,194,o),
(642,201,o),
(649,208,cs),
(656,215,o),
(661,220,o),
(665,225,c),
(669,257,o),
(655,275,o),
(624,306,cs),
(615,315,o),
(608,323,o),
(604,328,c),
(235,284,l),
(226,275,o),
(222,265,o),
(222,254,cs),
(222,243,o),
(227,232,o),
(236,221,cs),
(256,196,o),
(278,184,o),
(302,184,cs),
(312,185,ls),
(329,187,o),
(355,191,o),
(392,198,cs),
(404,201,o),
(423,204,o),
(448,208,cs),
(452,209,o),
(457,209,o),
(462,208,cs),
(467,207,o),
(472,207,o),
(475,207,c),
(478,194,l),
(411,147,o),
(366,120,o),
(343,111,cs),
(320,102,o),
(295,97,o),
(270,97,cs),
(254,98,ls),
(194,102,o),
(152,156,o),
(152,216,cs),
(152,223,o),
(152,228,o),
(153,231,c),
(168,358,o),
(239,459,o),
(367,533,cs),
(412,559,o),
(451,572,o),
(485,572,cs),
(505,572,o),
(525,568,o),
(545,559,cs),
(548,558,o),
(552,559,o),
(557,560,cs),
(562,561,o),
(565,561,o),
(568,561,c),
(573,570,o),
(575,579,o),
(575,586,cs),
(575,597,o),
(569,609,o),
(558,620,cs),
(527,651,o),
(488,667,o),
(442,667,cs),
(427,667,o),
(411,665,o),
(393,662,c),
(224,563,o),
(125,484,o),
(95,425,cs),
(65,366,o),
(50,305,o),
(50,244,cs),
(50,180,o),
(70,128,o),
(119,87,cs),
(182,34,o),
(247,7,o),
(316,7,cs)
);
},
{
closed = 1;
nodes = (
(310,-221,o),
(325,-214,o),
(331,-198,cs),
(336,-183,o),
(348,-161,o),
(367,-132,c),
(368,-129,o),
(374,-119,o),
(384,-103,cs),
(393,-88,o),
(400,-73,o),
(405,-58,c),
(406,-52,o),
(406,-48,o),
(406,-46,cs),
(406,-30,o),
(396,-19,o),
(379,-19,cs),
(377,-19,o),
(374,-19,o),
(369,-20,cs),
(356,-24,o),
(346,-26,o),
(339,-38,cs),
(335,-47,o),
(326,-60,o),
(311,-77,cs),
(297,-94,l),
(296,-97,o),
(293,-100,o),
(288,-104,cs),
(282,-108,o),
(278,-111,o),
(277,-114,cs),
(246,-177,o),
(249,-213,o),
(287,-220,c)
);
}
);
width = 716;
}
);
metricLeft = "=O";
unicode = 290;
},
{
glyphname = Gdotaccent;
lastChange = "2022-09-29 08:18:29 +0000";
layers = (
{
layerId = "D6A4831D-747C-4592-93C0-305F4CD57904";
shapes = (
{
closed = 1;
nodes = (
(298,17,o),
(307,17,o),
(313,18,cs),
(364,22,o),
(415,36,o),
(475,72,cs),
(551,116,o),
(593,167,o),
(624,232,cs),
(631,245,o),
(637,257,o),
(640,267,cs),
(647,285,o),
(650,302,o),
(650,319,cs),
(650,364,o),
(620,392,o),
(560,402,cs),
(517,409,o),
(479,412,o),
(446,410,cs),
(406,407,o),
(348,402,o),
(271,393,cs),
(236,389,ls),
(234,389,o),
(232,388,o),
(229,385,cs),
(226,382,o),
(224,380,o),
(222,379,c),
(239,319,o),
(268,295,o),
(323,295,c),
(409,301,ls),
(453,304,o),
(486,307,o),
(509,308,c),
(510,301,o),
(511,296,o),
(511,293,cs),
(511,284,o),
(506,263,o),
(497,228,cs),
(477,158,o),
(369,102,o),
(265,118,c),
(223,118,o),
(188,143,o),
(161,194,c),
(155,233,o),
(152,266,o),
(152,291,cs),
(152,522,o),
(311,600,o),
(535,576,c),
(563,577,o),
(581,588,o),
(598,613,c),
(573,646,o),
(543,665,o),
(506,670,cs),
(481,674,o),
(454,676,o),
(427,676,cs),
(298,676,o),
(147,628,o),
(95,515,c),
(43,375,o),
(50,337,o),
(50,261,cs),
(50,253,o),
(51,239,o),
(52,219,cs),
(56,160,o),
(80,116,o),
(127,76,cs),
(174,37,o),
(227,17,o),
(285,17,cs)
);
},
{
closed = 1;
nodes = (
(299,720,l),
(328,731,o),
(346,742,o),
(352,752,cs),
(357,762,o),
(360,773,o),
(360,785,cs),
(360,817,o),
(341,836,o),
(318,836,cs),
(286,836,o),
(256,812,o),
(241,779,c),
(241,772,o),
(243,759,o),
(244,754,c),
(253,735,o),
(269,724,o),
(293,720,c)
);
}
);
width = 700;
}
);
metricLeft = "=O";
unicode = 288;
},
{
glyphname = Gmacron;
lastChange = "2022-09-29 08:18:29 +0000";
layers = (
{
layerId = "D6A4831D-747C-4592-93C0-305F4CD57904";
shapes = (
{
closed = 1;
nodes = (
(298,17,o),
(307,17,o),
(313,18,cs),
(364,22,o),
(415,36,o),
(475,72,cs),
(551,116,o),
(593,167,o),
(624,232,cs),
(631,245,o),
(637,257,o),
(640,267,cs),
(647,285,o),
(650,302,o),
(650,319,cs),
(650,364,o),
(620,392,o),
(560,402,cs),
(517,409,o),
(479,412,o),
(446,410,cs),
(406,407,o),
(348,402,o),
(271,393,cs),
(236,389,ls),
(234,389,o),
(232,388,o),
(229,385,cs),
(226,382,o),
(224,380,o),
(222,379,c),
(239,319,o),
(268,295,o),
(323,295,c),
(409,301,ls),
(453,304,o),
(486,307,o),
(509,308,c),
(510,301,o),
(511,296,o),
(511,293,cs),
(511,284,o),
(506,263,o),
(497,228,cs),
(477,158,o),
(369,102,o),
(265,118,c),
(223,118,o),
(188,143,o),
(161,194,c),
(155,233,o),
(152,266,o),
(152,291,cs),
(152,522,o),
(311,600,o),
(535,576,c),
(563,577,o),
(581,588,o),
(598,613,c),
(573,646,o),
(543,665,o),
(506,670,cs),
(481,674,o),
(454,676,o),
(427,676,cs),
(298,676,o),
(147,628,o),
(95,515,c),
(43,375,o),
(50,337,o),
(50,261,cs),
(50,253,o),
(51,239,o),
(52,219,cs),
(56,160,o),
(80,116,o),
(127,76,cs),
(174,37,o),
(227,17,o),
(285,17,cs)
);
},
{
closed = 1;
nodes = (
(233,750,o),
(287,751,o),
(360,749,c),
(368,750,o),
(392,750,o),
(432,749,cs),
(472,748,o),
(508,750,o),
(541,753,c),
(567,759,ls),
(595,767,o),
(604,780,o),
(588,795,c),
(585,797,o),
(580,800,o),
(575,804,c),
(551,813,o),
(539,821,o),
(507,821,cs),
(486,820,o),
(451,821,o),
(404,825,cs),
(356,829,l),
(351,828,o),
(341,829,o),
(328,832,cs),
(314,835,o),
(303,836,o),
(295,836,cs),
(144,831,o),
(82,811,o),
(109,775,c),
(131,754,o),
(161,744,o),
(198,747,cs)
);
}
);
width = 700;
}
);
unicode = 7712;
},
{
glyphname = Gstroke;
lastChange = "2022-09-29 08:18:29 +0000";
layers = (
{
layerId = "D6A4831D-747C-4592-93C0-305F4CD57904";
shapes = (
{
closed = 1;
nodes = (
(298,17,o),
(307,17,o),
(313,18,cs),
(364,22,o),
(415,36,o),
(475,72,cs),
(551,116,o),
(593,167,o),
(624,232,cs),
(631,245,o),
(637,257,o),
(640,267,c),
(648,285,o),
(651,302,o),
(650,319,cs),
(645,394,o),
(611,436,o),
(550,443,cs),
(517,447,o),
(514,447,o),
(501,422,cs),
(482,388,o),
(511,326,o),
(511,289,cs),
(511,283,o),
(506,263,o),
(497,228,cs),
(477,158,o),
(369,102,o),
(265,118,c),
(223,118,o),
(188,143,o),
(161,194,c),
(155,233,o),
(152,266,o),
(152,291,cs),
(152,522,o),
(311,600,o),
(535,576,c),
(563,577,o),
(581,588,o),
(598,613,c),
(573,646,o),
(543,665,o),
(506,670,cs),
(481,674,o),
(454,676,o),
(427,676,cs),
(298,676,o),
(147,628,o),
(95,515,c),
(43,375,o),
(50,337,o),
(50,261,cs),
(50,253,o),
(51,239,o),
(52,219,cs),
(56,160,o),
(80,116,o),
(127,76,cs),
(174,37,o),
(227,17,o),
(285,17,cs)
);
},
{
closed = 1;
nodes = (
(485,228,o),
(539,231,o),
(611,236,cs),
(676,239,o),
(725,242,o),
(759,243,c),
(758,294,o),
(735,323,o),
(702,323,cs),
(669,323,o),
(644,323,o),
(628,322,cs),
(545,319,o),
(482,318,o),
(441,319,cs),
(393,320,o),
(372,315,o),
(345,290,c),
(349,281,o),
(357,263,o),
(365,255,cs),
(388,233,o),
(416,223,o),
(449,226,cs)
);
}
);
width = 769;
}
);
metricLeft = G;
metricRight = F;
unicode = 484;
},
{
glyphname = H;
kernLeft = H;
kernRight = H;
lastChange = "2022-09-29 08:35:11 +0000";
layers = (
{
anchors = (
{
name = bottom;
pos = (378,0);
},
{
name = center;
pos = (378,351);
},
{
name = top;
pos = (378,702);
},
{
name = topleft;
pos = (20,702);
}
);
layerId = "D6A4831D-747C-4592-93C0-305F4CD57904";
shapes = (
{
closed = 1;
nodes = (
(484,12,o),
(492,21,o),
(493,30,cs),
(493,46,ls),
(496,80,o),
(502,111,o),
(511,138,cs),
(520,165,o),
(531,205,o),
(542,258,cs),
(565,366,l),
(576,366,o),
(592,366,o),
(614,365,cs),
(632,363,o),
(648,361,o),
(661,359,cs),
(674,357,o),
(685,362,o),
(693,375,c),
(688,416,o),
(665,427,o),
(624,439,cs),
(619,440,o),
(601,445,o),
(590,452,c),
(601,482,o),
(607,507,o),
(607,526,cs),
(607,566,o),
(595,597,o),
(567,622,cs),
(552,635,o),
(535,629,o),
(516,604,c),
(508,570,l),
(474,465,l),
(335,476,l),
(270,459,l),
(298,555,l),
(307,595,o),
(310,607,o),
(309,592,c),
(309,673,o),
(283,703,o),
(240,702,c),
(234,689,o),
(230,681,o),
(229,676,cs),
(218,640,l),
(176,498,ls),
(167,465,o),
(157,447,o),
(129,440,cs),
(125,439,o),
(121,437,o),
(116,434,cs),
(111,431,o),
(107,428,o),
(104,427,c),
(75,411,o),
(60,394,o),
(60,375,cs),
(60,360,o),
(70,351,o),
(89,348,cs),
(108,345,o),
(117,336,o),
(117,321,cs),
(117,316,o),
(116,310,o),
(114,304,c),
(109,256,o),
(105,224,o),
(102,208,cs),
(94,176,o),
(90,107,o),
(106,84,cs),
(126,56,o),
(160,83,o),
(174,99,cs),
(181,108,o),
(186,118,o),
(189,130,cs),
(200,166,l),
(207,227,o),
(214,272,o),
(223,301,cs),
(231,330,o),
(242,346,o),
(257,349,cs),
(284,353,o),
(333,358,o),
(405,364,cs),
(417,364,o),
(431,365,o),
(447,366,c),
(427,285,l),
(418,219,o),
(413,177,o),
(410,160,cs),
(409,153,o),
(408,142,o),
(408,128,cs),
(408,103,o),
(414,72,o),
(427,37,c),
(432,12,o),
(445,0,o),
(467,2,c)
);
}
);
userData = {
assembly = "NPUSHB[ ]	/* 19 values pushed */
96 71 65 54 52 47 6 0 3 22 1 1 4 83 1 5 1 3 76 
MPPEM[ ]	/* MeasurePixelPerEm */
PUSHB[ ]	/* 1 value pushed */
21 
LT[ ]	/* LessThan */
IF[ ]	/* If */
NPUSHB[ ]	/* 38 values pushed */
0 0 3 4 3 0 4 128 0 4 1 3 4 1 126 0 1 5 3 1 5 126 0 2 2 36 77 0 3 3 32 77 0 5 5 31 5 78 
ELSE[ ]	/* Else */
NPUSHB[ ]	/* 38 values pushed */
0 2 3 2 133 0 0 3 4 3 0 4 128 0 4 1 3 4 1 126 0 1 5 3 1 5 126 0 3 3 32 77 0 5 5 31 5 78 
EIF[ ]	/* EndIf */
NPUSHB[ ]	/* 13 values pushed */
87 86 77 75 59 57 45 44 42 32 6 8 24 
CALL[ ]	/* CallFunction */";
};
width = 755;
}
);
note = H;
unicode = 72;
},
{
glyphname = Hbar;
kernLeft = H;
kernRight = H;
lastChange = "2022-09-29 08:18:29 +0000";
layers = (
{
layerId = "D6A4831D-747C-4592-93C0-305F4CD57904";
shapes = (
{
closed = 1;
nodes = (
(179,-10,o),
(196,3,o),
(203,17,cs),
(216,42,o),
(203,70,o),
(211,98,cs),
(225,152,o),
(238,206,o),
(253,260,cs),
(257,273,o),
(264,290,o),
(274,295,cs),
(315,312,o),
(383,318,o),
(437,305,c),
(435,282,o),
(435,264,o),
(432,246,cs),
(415,124,o),
(406,86,o),
(400,47,cs),
(398,34,o),
(400,13,o),
(408,8,cs),
(419,1,o),
(415,0,o),
(428,5,cs),
(442,10,o),
(456,22,o),
(464,35,cs),
(480,61,o),
(494,89,o),
(505,117,cs),
(517,149,o),
(535,265,o),
(546,298,cs),
(550,308,o),
(558,319,o),
(567,326,cs),
(600,349,o),
(607,368,o),
(581,398,cs),
(570,411,o),
(571,488,o),
(571,507,cs),
(571,513,l),
(589,511,o),
(604,509,o),
(615,506,cs),
(619,505,o),
(624,507,o),
(628,507,c),
(638,525,o),
(630,535,o),
(616,546,cs),
(603,555,o),
(588,562,o),
(571,567,c),
(570,578,o),
(569,588,o),
(567,598,cs),
(556,668,o),
(548,693,o),
(469,693,c),
(461,668,o),
(459,626,o),
(458,581,c),
(303,580,l),
(304,592,o),
(306,602,o),
(306,608,cs),
(309,654,o),
(291,681,o),
(248,699,cs),
(231,706,o),
(174,657,o),
(183,611,cs),
(185,602,o),
(186,591,o),
(187,579,c),
(156,579,ls),
(104,579,o),
(91,575,o),
(80,570,cs),
(56,559,o),
(53,541,o),
(74,525,cs),
(95,510,o),
(150,500,o),
(183,502,c),
(175,449,o),
(157,395,o),
(126,368,cs),
(120,362,o),
(113,356,o),
(107,349,cs),
(79,319,o),
(82,298,o),
(115,274,cs),
(123,268,o),
(133,263,o),
(142,258,c),
(139,228,ls),
(132,160,o),
(122,93,o),
(114,25,cs),
(109,-15,o),
(126,-30,o),
(164,-15,cs)
);
},
{
closed = 1;
nodes = (
(393,394,o),
(322,404,o),
(275,404,c),
(277,423,o),
(285,468,o),
(292,511,c),
(316,512,ls),
(344,513,o),
(399,517,o),
(456,517,c),
(453,468,o),
(450,421,o),
(439,394,c)
);
}
);
width = 694;
}
);
metricLeft = "=H";
metricRight = "=H";
unicode = 294;
},
{
glyphname = Hbrevebelow;
lastChange = "2022-09-29 08:18:29 +0000";
layers = (
{
layerId = "D6A4831D-747C-4592-93C0-305F4CD57904";
shapes = (
{
closed = 1;
nodes = (
(484,12,o),
(492,21,o),
(493,30,cs),
(493,46,ls),
(496,80,o),
(502,111,o),
(511,138,cs),
(520,165,o),
(531,205,o),
(542,258,cs),
(565,366,l),
(576,366,o),
(592,366,o),
(614,365,cs),
(632,363,o),
(648,361,o),
(661,359,cs),
(674,357,o),
(685,362,o),
(693,375,c),
(688,416,o),
(665,427,o),
(624,439,cs),
(619,440,o),
(601,445,o),
(590,452,c),
(601,482,o),
(607,507,o),
(607,526,cs),
(607,566,o),
(595,597,o),
(567,622,cs),
(552,635,o),
(535,629,o),
(516,604,c),
(508,570,l),
(474,465,l),
(335,476,l),
(270,459,l),
(298,555,l),
(307,595,o),
(310,607,o),
(309,592,c),
(309,673,o),
(283,703,o),
(240,702,c),
(234,689,o),
(230,681,o),
(229,676,cs),
(218,640,l),
(176,498,ls),
(167,465,o),
(157,447,o),
(129,440,cs),
(125,439,o),
(121,437,o),
(116,434,cs),
(111,431,o),
(107,428,o),
(104,427,c),
(75,411,o),
(60,394,o),
(60,375,cs),
(60,360,o),
(70,351,o),
(89,348,cs),
(108,345,o),
(117,336,o),
(117,321,cs),
(117,316,o),
(116,310,o),
(114,304,c),
(109,256,o),
(105,224,o),
(102,208,cs),
(94,176,o),
(90,107,o),
(106,84,cs),
(126,56,o),
(160,83,o),
(174,99,cs),
(181,108,o),
(186,118,o),
(189,130,cs),
(200,166,l),
(207,227,o),
(214,272,o),
(223,301,cs),
(231,330,o),
(242,346,o),
(257,349,cs),
(284,353,o),
(333,358,o),
(405,364,cs),
(417,364,o),
(431,365,o),
(447,366,c),
(427,285,l),
(418,219,o),
(413,177,o),
(410,160,cs),
(409,153,o),
(408,142,o),
(408,128,cs),
(408,103,o),
(414,72,o),
(427,37,c),
(432,12,o),
(445,0,o),
(467,2,c)
);
},
{
closed = 1;
nodes = (
(322,-185,o),
(352,-176,o),
(391,-145,cs),
(407,-132,o),
(417,-115,o),
(420,-96,cs),
(425,-67,o),
(418,-50,o),
(386,-45,cs),
(374,-42,o),
(368,-46,o),
(357,-61,cs),
(340,-82,o),
(321,-96,o),
(277,-107,c),
(273,-106,o),
(267,-105,o),
(259,-104,cs),
(239,-101,o),
(224,-91,o),
(214,-76,cs),
(203,-61,o),
(192,-46,o),
(179,-31,cs),
(162,-11,o),
(130,-54,o),
(143,-63,c),
(187,-127,l),
(212,-150,o),
(241,-178,o),
(290,-182,cs)
);
}
);
width = 755;
}
);
unicode = 7722;
},
{
glyphname = Hcircumflex;
lastChange = "2022-09-29 08:18:29 +0000";
layers = (
{
layerId = "D6A4831D-747C-4592-93C0-305F4CD57904";
shapes = (
{
closed = 1;
nodes = (
(484,12,o),
(492,21,o),
(493,30,cs),
(493,46,ls),
(496,80,o),
(502,111,o),
(511,138,cs),
(520,165,o),
(531,205,o),
(542,258,cs),
(565,366,l),
(576,366,o),
(592,366,o),
(614,365,cs),
(632,363,o),
(648,361,o),
(661,359,cs),
(674,357,o),
(685,362,o),
(693,375,c),
(688,416,o),
(665,427,o),
(624,439,cs),
(619,440,o),
(601,445,o),
(590,452,c),
(601,482,o),
(607,507,o),
(607,526,cs),
(607,566,o),
(595,597,o),
(567,622,cs),
(552,635,o),
(535,629,o),
(516,604,c),
(508,570,l),
(474,465,l),
(335,476,l),
(270,459,l),
(298,555,l),
(307,595,o),
(310,607,o),
(309,592,c),
(309,673,o),
(283,703,o),
(240,702,c),
(234,689,o),
(230,681,o),
(229,676,cs),
(218,640,l),
(176,498,ls),
(167,465,o),
(157,447,o),
(129,440,cs),
(125,439,o),
(121,437,o),
(116,434,cs),
(111,431,o),
(107,428,o),
(104,427,c),
(75,411,o),
(60,394,o),
(60,375,cs),
(60,360,o),
(70,351,o),
(89,348,cs),
(108,345,o),
(117,336,o),
(117,321,cs),
(117,316,o),
(116,310,o),
(114,304,c),
(109,256,o),
(105,224,o),
(102,208,cs),
(94,176,o),
(90,107,o),
(106,84,cs),
(126,56,o),
(160,83,o),
(174,99,cs),
(181,108,o),
(186,118,o),
(189,130,cs),
(200,166,l),
(207,227,o),
(214,272,o),
(223,301,cs),
(231,330,o),
(242,346,o),
(257,349,cs),
(284,353,o),
(333,358,o),
(405,364,cs),
(417,364,o),
(431,365,o),
(447,366,c),
(427,285,l),
(418,219,o),
(413,177,o),
(410,160,cs),
(409,153,o),
(408,142,o),
(408,128,cs),
(408,103,o),
(414,72,o),
(427,37,c),
(432,12,o),
(445,0,o),
(467,2,c)
);
},
{
closed = 1;
nodes = (
(587,687,o),
(595,696,o),
(600,715,c),
(600,720,o),
(590,730,o),
(582,745,cs),
(576,756,o),
(563,774,o),
(542,801,cs),
(536,809,o),
(527,821,o),
(516,837,cs),
(502,857,o),
(491,870,o),
(484,876,cs),
(477,881,o),
(468,884,o),
(458,884,cs),
(449,884,o),
(439,880,o),
(434,873,cs),
(431,868,o),
(424,860,o),
(415,850,cs),
(405,840,o),
(397,830,o),
(390,820,cs),
(369,791,o),
(354,771,o),
(346,758,cs),
(338,745,o),
(334,737,o),
(334,733,cs),
(334,721,o),
(336,700,o),
(353,700,c),
(361,705,o),
(369,712,o),
(378,720,cs),
(433,776,o),
(461,803,o),
(462,802,cs),
(463,800,o),
(466,796,o),
(471,789,cs),
(491,763,o),
(519,732,o),
(556,695,cs),
(560,690,o),
(568,687,o),
(575,687,cs)
);
}
);
width = 755;
}
);
unicode = 292;
},
{
glyphname = Hdotbelow;
lastChange = "2022-09-29 08:18:29 +0000";
layers = (
{
layerId = "D6A4831D-747C-4592-93C0-305F4CD57904";
shapes = (
{
closed = 1;
nodes = (
(484,12,o),
(492,21,o),
(493,30,cs),
(493,46,ls),
(496,80,o),
(502,111,o),
(511,138,cs),
(520,165,o),
(531,205,o),
(542,258,cs),
(565,366,l),
(576,366,o),
(592,366,o),
(614,365,cs),
(632,363,o),
(648,361,o),
(661,359,cs),
(674,357,o),
(685,362,o),
(693,375,c),
(688,416,o),
(665,427,o),
(624,439,cs),
(619,440,o),
(601,445,o),
(590,452,c),
(601,482,o),
(607,507,o),
(607,526,cs),
(607,566,o),
(595,597,o),
(567,622,cs),
(552,635,o),
(535,629,o),
(516,604,c),
(508,570,l),
(474,465,l),
(335,476,l),
(270,459,l),
(298,555,l),
(307,595,o),
(310,607,o),
(309,592,c),
(309,673,o),
(283,703,o),
(240,702,c),
(234,689,o),
(230,681,o),
(229,676,cs),
(218,640,l),
(176,498,ls),
(167,465,o),
(157,447,o),
(129,440,cs),
(125,439,o),
(121,437,o),
(116,434,cs),
(111,431,o),
(107,428,o),
(104,427,c),
(75,411,o),
(60,394,o),
(60,375,cs),
(60,360,o),
(70,351,o),
(89,348,cs),
(108,345,o),
(117,336,o),
(117,321,cs),
(117,316,o),
(116,310,o),
(114,304,c),
(109,256,o),
(105,224,o),
(102,208,cs),
(94,176,o),
(90,107,o),
(106,84,cs),
(126,56,o),
(160,83,o),
(174,99,cs),
(181,108,o),
(186,118,o),
(189,130,cs),
(200,166,l),
(207,227,o),
(214,272,o),
(223,301,cs),
(231,330,o),
(242,346,o),
(257,349,cs),
(284,353,o),
(333,358,o),
(405,364,cs),
(417,364,o),
(431,365,o),
(447,366,c),
(427,285,l),
(418,219,o),
(413,177,o),
(410,160,cs),
(409,153,o),
(408,142,o),
(408,128,cs),
(408,103,o),
(414,72,o),
(427,37,c),
(432,12,o),
(445,0,o),
(467,2,c)
);
},
{
closed = 1;
nodes = (
(350,-168,o),
(363,-160,o),
(376,-151,cs),
(389,-142,o),
(398,-135,o),
(403,-132,cs),
(418,-123,o),
(425,-111,o),
(424,-97,cs),
(423,-83,o),
(417,-71,o),
(404,-62,cs),
(391,-53,o),
(379,-48,o),
(367,-47,cs),
(356,-46,o),
(344,-50,o),
(333,-57,cs),
(250,-113,o),
(313,-185,o),
(338,-173,cs)
);
}
);
width = 755;
}
);
unicode = 7716;
},
{
glyphname = I;
kernLeft = I;
kernRight = I;
lastChange = "2022-09-29 08:35:11 +0000";
layers = (
{
anchors = (
{
name = bottom;
pos = (356,0);
},
{
name = ogonek;
pos = (640,10);
},
{
name = top;
pos = (356,702);
},
{
name = topleft;
pos = (20,702);
}
);
layerId = "D6A4831D-747C-4592-93C0-305F4CD57904";
shapes = (
{
closed = 1;
nodes = (
(164,16,o),
(177,18,o),
(191,22,cs),
(224,31,o),
(254,41,o),
(283,52,cs),
(370,84,o),
(422,99,o),
(485,107,cs),
(500,108,o),
(527,115,o),
(567,128,cs),
(586,134,ls),
(623,143,o),
(636,149,o),
(649,166,c),
(637,203,o),
(607,212,o),
(563,212,cs),
(545,213,o),
(518,211,o),
(482,206,cs),
(390,194,l),
(402,253,ls),
(413,307,o),
(421,350,o),
(428,382,cs),
(435,419,o),
(442,468,o),
(451,531,cs),
(456,567,l),
(527,559,l),
(549,558,ls),
(566,557,o),
(579,557,o),
(588,556,cs),
(611,555,o),
(642,581,o),
(627,596,cs),
(616,607,o),
(605,609,o),
(601,609,c),
(486,642,ls),
(465,647,o),
(440,654,o),
(412,663,cs),
(382,672,o),
(352,677,o),
(321,676,cs),
(254,675,o),
(190,653,o),
(131,609,cs),
(116,598,o),
(104,587,o),
(97,576,cs),
(92,569,o),
(89,561,o),
(89,553,cs),
(89,541,o),
(97,529,o),
(109,524,cs),
(111,523,o),
(118,521,o),
(129,516,cs),
(140,511,o),
(150,508,o),
(160,508,cs),
(169,508,o),
(178,510,o),
(187,515,cs),
(212,528,o),
(234,539,o),
(253,547,c),
(306,556,o),
(345,555,o),
(328,508,c),
(328,504,o),
(328,501,o),
(327,499,c),
(323,468,ls),
(306,333,o),
(295,268,o),
(271,187,cs),
(267,171,o),
(257,160,o),
(240,155,cs),
(201,143,o),
(164,130,o),
(127,115,cs),
(83,96,o),
(68,87,o),
(60,58,c),
(89,30,o),
(120,16,o),
(152,16,cs)
);
}
);
userData = {
assembly = "NPUSHB[ ]	/* 18 values pushed */
51 22 2 3 2 73 66 3 3 0 5 2 76 17 1 1 1 75 
MPPEM[ ]	/* MeasurePixelPerEm */
PUSHB[ ]	/* 1 value pushed */
21 
LT[ ]	/* LessThan */
IF[ ]	/* If */
NPUSHB[ ]	/* 34 values pushed */
4 1 3 2 1 2 3 1 128 0 1 5 2 1 5 126 0 5 0 2 5 0 126 0 2 2 30 77 0 0 0 34 0 78 
ELSE[ ]	/* Else */
NPUSHB[ ]	/* 27 values pushed */
0 2 3 2 133 4 1 3 1 3 133 0 1 5 1 133 0 5 0 5 133 0 0 0 34 0 78 
EIF[ ]	/* EndIf */
NPUSHB[ ]	/* 14 values pushed */
71 69 59 58 57 53 40 38 28 26 32 6 8 23 
CALL[ ]	/* CallFunction */";
};
width = 711;
}
);
metricLeft = "=H";
metricRight = "=H";
note = I;
unicode = 73;
},
{
glyphname = IJ;
lastChange = "2022-09-29 08:18:29 +0000";
layers = (
{
layerId = "D6A4831D-747C-4592-93C0-305F4CD57904";
shapes = (
{
closed = 1;
nodes = (
(383,35,o),
(356,46,o),
(318,75,cs),
(313,78,o),
(286,111,o),
(269,137,cs),
(247,172,o),
(259,190,o),
(301,210,c),
(378,120,l),
(401,103,o),
(427,91,o),
(457,94,c),
(479,94,o),
(502,102,o),
(515,117,cs),
(574,179,o),
(609,255,o),
(613,340,cs),
(619,399,o),
(623,500,o),
(613,558,c),
(613,572,o),
(613,585,o),
(605,594,c),
(592,617,o),
(600,640,o),
(613,653,cs),
(636,676,o),
(672,679,o),
(691,666,cs),
(712,653,o),
(727,630,o),
(731,598,cs),
(735,532,o),
(740,412,o),
(731,344,cs),
(721,246,o),
(699,153,o),
(627,81,c),
(609,58,o),
(587,40,o),
(560,26,cs),
(528,9,o),
(492,13,o),
(457,19,cs)
);
},
{
closed = 1;
nodes = (
(109,-6,o),
(121,-4,o),
(132,2,cs),
(147,10,o),
(159,32,o),
(163,49,c),
(168,102,o),
(173,141,o),
(176,167,cs),
(200,399,ls),
(203,432,o),
(204,480,o),
(201,545,cs),
(201,561,o),
(197,578,o),
(189,595,cs),
(176,630,o),
(146,646,o),
(117,649,cs),
(108,650,o),
(100,650,o),
(92,649,cs),
(75,646,o),
(65,636,o),
(64,619,cs),
(63,614,o),
(63,605,o),
(65,594,cs),
(66,583,o),
(67,574,o),
(67,567,cs),
(66,554,o),
(66,537,o),
(67,516,cs),
(67,317,o),
(65,161,o),
(60,48,cs),
(59,27,o),
(64,5,o),
(73,1,cs),
(80,-2,o),
(88,-3,o),
(95,-4,cs)
);
}
);
width = 786;
}
);
metricLeft = I;
metricRight = J;
unicode = 306;
},
{
glyphname = Iacute;
kernLeft = I;
kernRight = I;
lastChange = "2022-09-29 08:18:29 +0000";
layers = (
{
layerId = "D6A4831D-747C-4592-93C0-305F4CD57904";
shapes = (
{
closed = 1;
nodes = (
(287,-22,o),
(309,-3,o),
(313,32,cs),
(317,65,o),
(319,92,o),
(319,114,cs),
(323,189,o),
(320,301,o),
(309,450,cs),
(307,478,o),
(303,505,o),
(297,531,cs),
(292,550,o),
(284,570,o),
(272,591,cs),
(263,606,o),
(249,613,o),
(230,613,cs),
(201,613,o),
(187,598,o),
(186,567,cs),
(187,518,l),
(187,313,l),
(188,313,l),
(188,83,ls),
(189,56,o),
(193,35,o),
(198,20,cs),
(208,-8,o),
(226,-22,o),
(251,-22,cs)
);
},
{
closed = 1;
nodes = (
(277,647,o),
(299,655,o),
(314,670,cs),
(347,701,o),
(377,734,o),
(404,769,cs),
(415,782,o),
(422,794,o),
(426,804,cs),
(428,809,o),
(429,815,o),
(429,820,cs),
(429,827,o),
(428,833,o),
(425,838,cs),
(421,847,o),
(413,851,o),
(402,851,cs),
(398,851,o),
(393,850,o),
(388,849,cs),
(317,828,o),
(261,785,o),
(201,717,cs),
(196,712,o),
(194,704,o),
(194,695,cs),
(194,682,o),
(198,672,o),
(207,666,cs),
(215,661,o),
(229,654,o),
(248,645,c)
);
}
);
userData = {
assembly = "NPUSHB[ ]	/* 32 values pushed */
1 1 0 1 1 76 0 1 0 1 133 0 0 3 0 133 0 3 2 3 133 0 2 2 118 41 39 42 24 4 8 26 
CALL[ ]	/* CallFunction */";
};
width = 441;
}
);
note = Iacute;
unicode = 205;
},
{
glyphname = Ibreve;
lastChange = "2022-09-29 08:18:29 +0000";
layers = (
{
layerId = "D6A4831D-747C-4592-93C0-305F4CD57904";
shapes = (
{
closed = 1;
nodes = (
(186,-6,o),
(198,-4,o),
(209,2,cs),
(224,10,o),
(236,32,o),
(240,49,c),
(253,167,l),
(277,399,ls),
(280,432,o),
(281,480,o),
(278,545,cs),
(278,561,o),
(274,578,o),
(266,595,cs),
(253,630,o),
(223,646,o),
(194,649,cs),
(185,650,o),
(177,650,o),
(169,649,cs),
(152,646,o),
(142,636,o),
(141,619,cs),
(140,614,o),
(140,605,o),
(142,594,cs),
(143,583,o),
(144,574,o),
(144,567,cs),
(143,554,o),
(143,537,o),
(144,516,cs),
(144,317,o),
(142,161,o),
(137,48,cs),
(136,27,o),
(141,5,o),
(150,1,cs),
(157,-2,o),
(165,-3,o),
(172,-4,cs)
);
},
{
closed = 1;
nodes = (
(266,703,o),
(296,717,o),
(328,756,cs),
(343,772,o),
(350,790,o),
(350,810,cs),
(350,839,o),
(339,855,o),
(306,855,cs),
(294,855,o),
(290,850,o),
(279,834,c),
(267,809,o),
(248,792,o),
(207,773,c),
(203,772,o),
(197,772,o),
(189,772,cs),
(168,772,o),
(152,779,o),
(139,792,cs),
(126,805,o),
(111,819,o),
(95,832,cs),
(74,849,o),
(51,801,o),
(64,794,c),
(120,737,l),
(149,718,o),
(185,695,o),
(234,700,cs)
);
}
);
userData = {
assembly = "NPUSHB[ ]	/* 47 values pushed */
2 1 1 0 38 1 3 1 51 1 2 3 3 76 0 0 1 0 133 0 1 3 1 133 0 3 2 2 3 89 0 3 3 2 97 0 2 3 2 81 36 45 109 45 4 6 26 
CALL[ ]	/* CallFunction */";
};
width = 412;
}
);
metricLeft = I;
metricRight = I;
note = I.alt1;
unicode = 300;
},
{
glyphname = Icaron;
lastChange = "2022-09-29 08:18:29 +0000";
layers = (
{
layerId = "D6A4831D-747C-4592-93C0-305F4CD57904";
shapes = (
{
closed = 1;
nodes = (
(164,16,o),
(177,18,o),
(191,22,cs),
(224,31,o),
(254,41,o),
(283,52,cs),
(370,84,o),
(422,99,o),
(485,107,cs),
(500,108,o),
(527,115,o),
(567,128,cs),
(586,134,ls),
(623,143,o),
(636,149,o),
(649,166,c),
(637,203,o),
(607,212,o),
(563,212,cs),
(545,213,o),
(518,211,o),
(482,206,cs),
(390,194,l),
(402,253,ls),
(413,307,o),
(421,350,o),
(428,382,cs),
(435,419,o),
(442,468,o),
(451,531,cs),
(456,567,l),
(527,559,l),
(549,558,ls),
(566,557,o),
(579,557,o),
(588,556,cs),
(599,555,o),
(608,556,o),
(613,557,cs),
(618,557,o),
(623,560,o),
(629,565,cs),
(642,577,l),
(639,580,o),
(636,585,o),
(632,591,c),
(627,596,o),
(623,601,o),
(619,604,cs),
(615,608,o),
(604,609,o),
(601,609,c),
(486,642,ls),
(465,647,o),
(440,654,o),
(412,663,cs),
(382,672,o),
(352,677,o),
(321,676,cs),
(254,675,o),
(190,653,o),
(131,609,cs),
(116,598,o),
(104,587,o),
(97,576,cs),
(92,569,o),
(89,561,o),
(89,553,cs),
(89,541,o),
(97,529,o),
(109,524,cs),
(111,523,o),
(118,521,o),
(129,516,cs),
(140,511,o),
(150,508,o),
(160,508,cs),
(169,508,o),
(178,510,o),
(187,515,cs),
(212,528,o),
(234,539,o),
(253,547,c),
(305,555,l),
(312,550,o),
(328,536,o),
(328,508,cs),
(328,504,o),
(328,501,o),
(327,499,c),
(323,468,ls),
(306,333,o),
(295,268,o),
(271,187,cs),
(267,171,o),
(257,160,o),
(240,155,cs),
(201,143,o),
(164,130,o),
(127,115,cs),
(83,96,o),
(68,87,o),
(60,58,c),
(89,30,o),
(120,16,o),
(152,16,cs)
);
},
{
closed = 1;
nodes = (
(309,703,o),
(328,710,o),
(345,725,cs),
(387,760,o),
(433,800,o),
(484,845,cs),
(492,852,o),
(496,861,o),
(496,870,cs),
(496,881,o),
(491,890,o),
(480,896,cs),
(467,903,o),
(454,907,o),
(439,907,c),
(414,880,o),
(392,858,o),
(374,840,cs),
(361,826,o),
(338,804,o),
(306,773,c),
(294,785,o),
(286,793,o),
(283,797,c),
(263,856,l),
(250,867,o),
(237,873,o),
(223,873,cs),
(199,873,o),
(183,861,o),
(183,844,cs),
(183,842,o),
(184,838,o),
(185,833,c),
(193,812,o),
(204,786,o),
(219,755,cs),
(236,722,o),
(262,703,o),
(290,703,cs)
);
}
);
width = 711;
}
);
metricLeft = "=H";
metricRight = "=H";
unicode = 463;
},
{
glyphname = Icircumflex;
kernLeft = I;
kernRight = I;
lastChange = "2022-09-29 08:18:29 +0000";
layers = (
{
layerId = "D6A4831D-747C-4592-93C0-305F4CD57904";
shapes = (
{
closed = 1;
nodes = (
(441,588,o),
(451,599,o),
(451,614,cs),
(451,618,o),
(450,622,o),
(448,626,cs),
(435,646,l),
(412,681,ls),
(399,702,o),
(386,721,o),
(374,740,cs),
(354,773,l),
(341,796,ls),
(324,824,o),
(299,839,o),
(272,839,cs),
(257,839,o),
(243,835,o),
(228,827,cs),
(193,808,o),
(170,782,o),
(127,741,cs),
(73,688,ls),
(64,679,o),
(60,669,o),
(60,658,cs),
(60,643,o),
(68,630,o),
(83,625,cs),
(92,622,o),
(106,619,o),
(123,616,cs),
(143,613,l),
(183,658,l),
(199,679,l),
(233,711,o),
(253,731,o),
(260,738,cs),
(267,745,o),
(272,749,o),
(276,751,c),
(283,736,o),
(288,722,o),
(291,710,c),
(312,679,ls),
(332,649,o),
(346,628,o),
(354,617,cs),
(369,596,o),
(393,587,o),
(426,588,cs)
);
},
{
closed = 1;
nodes = (
(245,-43,o),
(253,-40,o),
(261,-34,cs),
(276,-23,o),
(286,-12,o),
(289,-2,cs),
(307,45,o),
(317,86,o),
(320,119,cs),
(331,256,o),
(336,382,o),
(333,498,cs),
(332,555,o),
(309,583,o),
(254,590,c),
(251,591,o),
(247,591,o),
(241,591,cs),
(206,591,o),
(183,569,o),
(183,533,cs),
(183,530,o),
(184,523,o),
(185,514,c),
(195,469,o),
(200,411,o),
(200,338,cs),
(200,75,ls),
(200,38,o),
(201,10,o),
(203,-8,cs),
(206,-29,o),
(220,-43,o),
(236,-43,cs)
);
}
);
userData = {
assembly = "NPUSHB[ ]	/* 40 values pushed */
19 11 2 3 1 48 1 2 0 2 76 0 1 3 1 133 0 3 0 3 133 0 0 2 0 133 0 2 2 118 71 69 55 53 34 32 35 4 8 23 
CALL[ ]	/* CallFunction */";
};
width = 513;
}
);
metricLeft = "=H";
metricRight = "=H";
note = Icircumflex;
unicode = 206;
},
{
glyphname = Idieresis;
kernLeft = I;
kernRight = I;
lastChange = "2022-09-29 08:18:29 +0000";
layers = (
{
layerId = "D6A4831D-747C-4592-93C0-305F4CD57904";
shapes = (
{
closed = 1;
nodes = (
(286,-12,o),
(301,3,o),
(300,34,cs),
(299,83,l),
(299,288,l),
(298,288,l),
(298,518,ls),
(298,541,o),
(295,562,o),
(288,581,cs),
(278,609,o),
(260,623,o),
(235,623,cs),
(199,623,o),
(177,604,o),
(173,569,cs),
(169,536,o),
(167,509,o),
(167,487,cs),
(166,412,o),
(170,300,o),
(177,151,cs),
(178,124,o),
(182,97,o),
(189,70,cs),
(194,51,o),
(202,31,o),
(214,10,cs),
(223,-5,o),
(237,-12,o),
(256,-12,cs)
);
},
{
closed = 1;
nodes = (
(397,644,o),
(412,656,o),
(412,679,cs),
(412,710,o),
(392,728,o),
(363,729,cs),
(356,729,o),
(342,724,o),
(321,715,c),
(310,708,o),
(299,703,o),
(287,699,c),
(312,678,ls),
(344,651,o),
(357,644,o),
(377,644,cs)
);
},
{
closed = 1;
nodes = (
(136,675,o),
(159,689,o),
(163,702,c),
(146,754,o),
(118,758,o),
(87,757,c),
(76,740,o),
(67,725,o),
(60,712,c),
(85,699,l),
(102,686,o),
(116,678,o),
(127,676,cs)
);
}
);
userData = {
assembly = "PUSHB[ ]	/* 7 values pushed */
31 2 2 0 3 1 76 
MPPEM[ ]	/* MeasurePixelPerEm */
PUSHB[ ]	/* 1 value pushed */
21 
LT[ ]	/* LessThan */
IF[ ]	/* If */
NPUSHB[ ]	/* 35 values pushed */
0 5 0 2 0 5 2 128 0 2 4 0 2 4 126 0 4 4 132 0 3 3 36 77 0 0 0 1 97 0 1 1 36 0 78 
ELSE[ ]	/* Else */
NPUSHB[ ]	/* 43 values pushed */
0 3 1 0 1 3 0 128 0 5 0 2 0 5 2 128 0 2 4 0 2 4 126 0 4 4 132 0 1 3 0 1 89 0 1 1 0 97 0 0 1 0 81 
EIF[ ]	/* EndIf */
NPUSHB[ ]	/* 9 values pushed */
43 36 44 38 39 38 6 8 28 
CALL[ ]	/* CallFunction */";
};
width = 474;
}
);
metricLeft = "=H";
metricRight = "=H";
note = Idieresis;
unicode = 207;
},
{
glyphname = Idotaccent;
lastChange = "2022-09-29 08:18:29 +0000";
layers = (
{
layerId = "D6A4831D-747C-4592-93C0-305F4CD57904";
shapes = (
{
closed = 1;
nodes = (
(164,16,o),
(177,18,o),
(191,22,cs),
(224,31,o),
(254,41,o),
(283,52,cs),
(370,84,o),
(422,99,o),
(485,107,cs),
(500,108,o),
(527,115,o),
(567,128,cs),
(586,134,ls),
(623,143,o),
(636,149,o),
(649,166,c),
(637,203,o),
(607,212,o),
(563,212,cs),
(545,213,o),
(518,211,o),
(482,206,cs),
(390,194,l),
(402,253,ls),
(413,307,o),
(421,350,o),
(428,382,cs),
(435,419,o),
(442,468,o),
(451,531,cs),
(456,567,l),
(527,559,l),
(549,558,ls),
(566,557,o),
(579,557,o),
(588,556,cs),
(611,555,o),
(642,581,o),
(627,596,cs),
(616,607,o),
(605,609,o),
(601,609,c),
(486,642,ls),
(465,647,o),
(440,654,o),
(412,663,cs),
(382,672,o),
(352,677,o),
(321,676,cs),
(254,675,o),
(190,653,o),
(131,609,cs),
(116,598,o),
(104,587,o),
(97,576,cs),
(92,569,o),
(89,561,o),
(89,553,cs),
(89,541,o),
(97,529,o),
(109,524,cs),
(111,523,o),
(118,521,o),
(129,516,cs),
(140,511,o),
(150,508,o),
(160,508,cs),
(169,508,o),
(178,510,o),
(187,515,cs),
(212,528,o),
(234,539,o),
(253,547,c),
(306,556,o),
(345,555,o),
(328,508,c),
(328,504,o),
(328,501,o),
(327,499,c),
(323,468,ls),
(306,333,o),
(295,268,o),
(271,187,cs),
(267,171,o),
(257,160,o),
(240,155,cs),
(201,143,o),
(164,130,o),
(127,115,cs),
(83,96,o),
(68,87,o),
(60,58,c),
(89,30,o),
(120,16,o),
(152,16,cs)
);
},
{
closed = 1;
nodes = (
(284,729,l),
(313,740,o),
(331,751,o),
(337,761,cs),
(342,771,o),
(345,782,o),
(345,794,cs),
(345,826,o),
(326,845,o),
(303,845,cs),
(271,845,o),
(241,821,o),
(226,788,c),
(226,781,o),
(228,768,o),
(229,763,c),
(238,744,o),
(254,733,o),
(278,729,c)
);
}
);
width = 711;
}
);
metricLeft = "=H";
metricRight = "=H";
unicode = 304;
},
{
glyphname = Idotbelow;
lastChange = "2022-09-29 08:18:29 +0000";
layers = (
{
layerId = "D6A4831D-747C-4592-93C0-305F4CD57904";
shapes = (
{
closed = 1;
nodes = (
(164,16,o),
(177,18,o),
(191,22,cs),
(224,31,o),
(254,41,o),
(283,52,cs),
(370,84,o),
(422,99,o),
(485,107,cs),
(500,108,o),
(527,115,o),
(567,128,cs),
(586,134,ls),
(623,143,o),
(636,149,o),
(649,166,c),
(637,203,o),
(607,212,o),
(563,212,cs),
(545,213,o),
(518,211,o),
(482,206,cs),
(390,194,l),
(402,253,ls),
(413,307,o),
(421,350,o),
(428,382,cs),
(435,419,o),
(442,468,o),
(451,531,cs),
(456,567,l),
(527,559,l),
(549,558,ls),
(566,557,o),
(579,557,o),
(588,556,cs),
(611,555,o),
(642,581,o),
(627,596,cs),
(616,607,o),
(605,609,o),
(601,609,c),
(486,642,ls),
(465,647,o),
(440,654,o),
(412,663,cs),
(382,672,o),
(352,677,o),
(321,676,cs),
(254,675,o),
(190,653,o),
(131,609,cs),
(116,598,o),
(104,587,o),
(97,576,cs),
(92,569,o),
(89,561,o),
(89,553,cs),
(89,541,o),
(97,529,o),
(109,524,cs),
(111,523,o),
(118,521,o),
(129,516,cs),
(140,511,o),
(150,508,o),
(160,508,cs),
(169,508,o),
(178,510,o),
(187,515,cs),
(212,528,o),
(234,539,o),
(253,547,c),
(306,556,o),
(345,555,o),
(328,508,c),
(328,504,o),
(328,501,o),
(327,499,c),
(323,468,ls),
(306,333,o),
(295,268,o),
(271,187,cs),
(267,171,o),
(257,160,o),
(240,155,cs),
(201,143,o),
(164,130,o),
(127,115,cs),
(83,96,o),
(68,87,o),
(60,58,c),
(89,30,o),
(120,16,o),
(152,16,cs)
);
},
{
closed = 1;
nodes = (
(350,-168,o),
(363,-160,o),
(376,-151,cs),
(389,-142,o),
(398,-135,o),
(403,-132,cs),
(418,-123,o),
(425,-111,o),
(424,-97,cs),
(423,-83,o),
(417,-71,o),
(404,-62,cs),
(391,-53,o),
(379,-48,o),
(367,-47,cs),
(356,-46,o),
(344,-50,o),
(333,-57,cs),
(250,-113,o),
(313,-185,o),
(338,-173,cs)
);
}
);
width = 699;
}
);
unicode = 7882;
},
{
glyphname = Igrave;
kernLeft = I;
kernRight = I;
lastChange = "2022-09-29 08:18:29 +0000";
layers = (
{
layerId = "D6A4831D-747C-4592-93C0-305F4CD57904";
shapes = (
{
closed = 1;
nodes = (
(312,-31,o),
(324,-28,o),
(334,-22,cs),
(347,-14,o),
(359,8,o),
(359,24,cs),
(360,71,o),
(360,106,o),
(360,129,cs),
(360,338,ls),
(359,367,o),
(355,411,o),
(346,469,cs),
(344,482,o),
(338,497,o),
(329,512,cs),
(312,541,o),
(282,554,o),
(251,554,cs),
(242,554,o),
(234,553,o),
(227,551,cs),
(210,546,o),
(201,537,o),
(201,522,cs),
(201,517,o),
(202,509,o),
(205,500,cs),
(208,490,o),
(209,482,o),
(210,476,cs),
(211,464,o),
(213,449,o),
(215,430,cs),
(236,253,o),
(250,114,o),
(257,13,cs),
(258,-6,o),
(266,-25,o),
(275,-28,cs),
(282,-30,o),
(290,-31,o),
(298,-31,cs)
);
},
{
closed = 1;
nodes = (
(314,690,o),
(327,705,o),
(342,736,cs),
(355,763,o),
(327,780,o),
(319,785,cs),
(140,899,ls),
(137,901,o),
(132,902,o),
(127,901,c),
(98,901,o),
(70,870,o),
(61,831,cs),
(60,828,o),
(60,824,o),
(61,818,c),
(61,791,o),
(76,776,o),
(107,765,cs),
(169,742,ls),
(176,739,o),
(192,733,o),
(217,724,cs),
(242,715,o),
(264,705,o),
(284,696,cs),
(293,692,o),
(300,690,o),
(305,690,cs)
);
}
);
userData = {
assembly = "NPUSHB[ ]	/* 39 values pushed */
23 1 0 1 58 43 2 2 3 2 76 0 1 0 1 133 0 0 3 0 133 0 3 2 3 133 0 2 2 118 51 49 35 33 45 16 4 8 24 
CALL[ ]	/* CallFunction */";
};
width = 422;
}
);
metricLeft = "=H";
metricRight = "=H";
note = Igrave;
unicode = 204;
},
{
glyphname = Ihookabove;
lastChange = "2022-09-29 08:18:29 +0000";
layers = (
{
layerId = "D6A4831D-747C-4592-93C0-305F4CD57904";
shapes = (
{
closed = 1;
nodes = (
(164,16,o),
(177,18,o),
(191,22,cs),
(224,31,o),
(254,41,o),
(283,52,cs),
(370,84,o),
(422,99,o),
(485,107,cs),
(500,108,o),
(527,115,o),
(567,128,cs),
(586,134,ls),
(623,143,o),
(636,149,o),
(649,166,c),
(637,203,o),
(607,212,o),
(563,212,cs),
(545,213,o),
(518,211,o),
(482,206,cs),
(390,194,l),
(402,253,ls),
(413,307,o),
(421,350,o),
(428,382,cs),
(435,419,o),
(442,468,o),
(451,531,cs),
(456,567,l),
(527,559,l),
(549,558,ls),
(566,557,o),
(579,557,o),
(588,556,cs),
(611,555,o),
(642,581,o),
(627,596,cs),
(616,607,o),
(605,609,o),
(601,609,c),
(486,642,ls),
(465,647,o),
(440,654,o),
(412,663,cs),
(382,672,o),
(352,677,o),
(321,676,cs),
(254,675,o),
(190,653,o),
(131,609,cs),
(116,598,o),
(104,587,o),
(97,576,cs),
(92,569,o),
(89,561,o),
(89,553,cs),
(89,541,o),
(97,529,o),
(109,524,cs),
(111,523,o),
(118,521,o),
(129,516,cs),
(140,511,o),
(150,508,o),
(160,508,cs),
(169,508,o),
(178,510,o),
(187,515,cs),
(212,528,o),
(234,539,o),
(253,547,c),
(306,556,o),
(345,555,o),
(328,508,c),
(328,504,o),
(328,501,o),
(327,499,c),
(323,468,ls),
(306,333,o),
(295,268,o),
(271,187,cs),
(267,171,o),
(257,160,o),
(240,155,cs),
(201,143,o),
(164,130,o),
(127,115,cs),
(83,96,o),
(68,87,o),
(60,58,c),
(89,30,o),
(120,16,o),
(152,16,cs)
);
},
{
closed = 1;
nodes = (
(417,700,o),
(453,741,o),
(458,780,c),
(462,792,o),
(461,811,o),
(456,838,c),
(443,862,o),
(434,876,o),
(429,879,cs),
(424,882,o),
(418,886,o),
(410,889,cs),
(373,904,o),
(331,901,o),
(315,892,cs),
(290,875,o),
(307,832,o),
(308,832,cs),
(359,836,l),
(376,840,o),
(396,831,o),
(404,816,c),
(413,805,o),
(414,795,o),
(407,785,c),
(362,764,o),
(339,746,o),
(339,730,cs),
(339,721,o),
(347,708,o),
(364,691,c)
);
}
);
width = 699;
}
);
unicode = 7880;
},
